<?xml version="1.0" encoding="utf-8"?>
<!-- Generator: Adobe Illustrator 25.3.1, SVG Export Plug-In . SVG Version: 6.00 Build 0)  -->
<svg version="1.1" id="Layer_1" xmlns="http://www.w3.org/2000/svg" xmlns:xlink="http://www.w3.org/1999/xlink" x="0px" y="0px"
	 viewBox="0 0 750 750" style="enable-background:new 0 0 750 750;" xml:space="preserve">
<style type="text/css">
	.st0{fill:#FFFFFF;stroke:#153DB3;stroke-width:2;stroke-linejoin:bevel;stroke-miterlimit:10;}
	.st1{fill:#153DB3;}
	.st2{font-family:'NanumGothicBold';}
	.st3{font-size:20px;}
</style>
<g>
	<g>
		<path class="st0" d="M95.97,107.42L0,270.32l40.72,54.3l50.92,15.57L272.28,222.6L95.97,107.42z M44.73,194.39l135.2,88.32
			L44.73,194.39z"/>
		<polygon class="st0" points="501.81,231.72 369.1,159.58 272.28,222.6 272.28,222.6 272.28,222.6 91.64,340.19 483.26,340.97 		
			"/>
		<polygon class="st0" points="369.1,159.58 188.46,60.31 95.97,107.42 272.28,222.6 		"/>
		<polygon class="st0" points="591.86,270.97 604.95,255.93 563.73,172.19 369.1,159.58 501.81,231.72 		"/>
		<polygon class="st0" points="680.18,551.63 648.78,608.55 615.89,559.48 594.69,593.52 499.62,467.24 483.26,340.97 
			404.97,455.32 412.14,595.49 472.8,594.16 521.17,632.05 580.41,620.65 662.4,689.69 750,659.31 		"/>
		<polygon class="st0" points="483.26,340.97 91.64,340.19 148.3,451.54 187.86,460.41 404.97,455.32 		"/>
		<polygon class="st0" points="187.86,460.41 199.22,603.52 269.27,677.53 346.53,665.01 412.14,595.49 404.97,455.32 		"/>
	</g>
	<text transform="matrix(1 0 0 1 509.7466 202.9248)" class="st1 st2 st3">천안</text>
	<text transform="matrix(1 0 0 1 330.8318 278.3848)" class="st1 st2 st3">아산</text>
	<text transform="matrix(1 0 0 1 171.4663 105.1755)" class="st1 st2 st3">당진</text>
	<text transform="matrix(1 0 0 1 109.4365 195.5122)" class="st1 st2 st3">서산</text>
	<text transform="matrix(1 0 0 1 58.9963 280.4631)" class="st1 st2 st3">태안</text>
	<text transform="matrix(1 0 0 1 225.2891 407.7124)" class="st1 st2 st3">보령</text>
	<text transform="matrix(1 0 0 1 296.7239 636.856)" class="st1 st2 st3">서천</text>
	<text transform="matrix(1 0 0 1 470.9924 576.8379)" class="st1 st2 st3">논산</text>
	<path class="st1" d="M44.92,269.49c0-3.74-2.88-6.78-6.43-6.78s-6.43,3.03-6.43,6.78c0,3.44,2.44,6.28,5.59,6.71v6.51h1.68v-6.51
		C42.48,275.77,44.92,272.93,44.92,269.49z"/>
	<path class="st1" d="M98.07,182.29c0-3.74-2.88-6.78-6.43-6.78s-6.43,3.03-6.43,6.78c0,3.44,2.44,6.28,5.59,6.71v6.51h1.68V189
		C95.63,188.57,98.07,185.73,98.07,182.29z"/>
	<path class="st1" d="M157.64,95.09c0-3.74-2.88-6.78-6.43-6.78s-6.43,3.03-6.43,6.78c0,3.44,2.44,6.28,5.59,6.71v6.51h1.68v-6.51
		C155.21,101.37,157.64,98.53,157.64,95.09z"/>
	<path class="st1" d="M213.62,397.08c0-3.74-2.88-6.78-6.43-6.78s-6.43,3.03-6.43,6.78c0,3.44,2.44,6.28,5.59,6.71v6.51h1.68v-6.51
		C211.18,403.35,213.62,400.52,213.62,397.08z"/>
	<path class="st1" d="M282.71,625.94c0-3.74-2.88-6.78-6.43-6.78c-3.55,0-6.43,3.03-6.43,6.78c0,3.44,2.44,6.28,5.59,6.71v6.51h1.68
		v-6.51C280.28,632.21,282.71,629.38,282.71,625.94z"/>
	<path class="st1" d="M461,567.8c0-3.74-2.88-6.78-6.43-6.78s-6.43,3.03-6.43,6.78c0,3.44,2.44,6.28,5.59,6.71v6.51h1.68v-6.51
		C458.56,574.07,461,571.24,461,567.8z"/>
	<path class="st1" d="M499.88,192.29c0-3.74-2.88-6.78-6.43-6.78s-6.43,3.03-6.43,6.78c0,3.44,2.44,6.28,5.59,6.71v6.51h1.68V199
		C497.45,198.57,499.88,195.73,499.88,192.29z"/>
	<path class="st1" d="M320.95,269.49c0-3.74-2.88-6.78-6.43-6.78c-3.55,0-6.43,3.03-6.43,6.78c0,3.44,2.44,6.28,5.59,6.71v6.51h1.68
		v-6.51C318.51,275.77,320.95,272.93,320.95,269.49z"/>
</g>
</svg>
