<?xml version="1.0" encoding="utf-8"?>
<!-- Generator: Adobe Illustrator 25.3.1, SVG Export Plug-In . SVG Version: 6.00 Build 0)  -->
<svg version="1.1" id="Layer_1" xmlns="http://www.w3.org/2000/svg" xmlns:xlink="http://www.w3.org/1999/xlink" x="0px" y="0px"
	 viewBox="0 0 750 750" style="enable-background:new 0 0 750 750;" xml:space="preserve">
<style type="text/css">
	.st0{fill:#FFFFFF;stroke:#153DB3;stroke-width:2;stroke-linejoin:bevel;stroke-miterlimit:10;}
	.st1{fill:#153DB3;}
	.st2{font-family:'NanumGothicBold';}
	.st3{font-size:25px;}
</style>
<g>
	<g>
		<path class="st0" d="M95.97,107.42L0,270.32l40.72,54.3l50.92,15.57L272.28,222.6L95.97,107.42z M44.73,194.39l135.2,88.32
			L44.73,194.39z"/>
		<polygon class="st0" points="501.81,231.72 369.1,159.58 272.28,222.6 272.28,222.6 272.28,222.6 91.64,340.19 483.26,340.97 		
			"/>
		<polygon class="st0" points="369.1,159.58 188.46,60.31 95.97,107.42 272.28,222.6 		"/>
		<polygon class="st0" points="591.86,270.97 604.95,255.93 563.73,172.19 369.1,159.58 501.81,231.72 		"/>
		<polygon class="st0" points="680.18,551.63 648.78,608.55 615.89,559.48 594.69,593.52 499.62,467.24 483.26,340.97 
			404.97,455.32 412.14,595.49 472.8,594.16 521.17,632.05 580.41,620.65 662.4,689.69 750,659.31 		"/>
		<polygon class="st0" points="483.26,340.97 91.64,340.19 148.3,451.54 187.86,460.41 404.97,455.32 		"/>
		<polygon class="st0" points="187.86,460.41 199.22,603.52 269.27,677.53 346.53,665.01 412.14,595.49 404.97,455.32 		"/>
	</g>
	<g>
		<path class="st1" d="M502.81,190.69c0-5.82-4.48-10.54-10-10.54c-5.52,0-10,4.72-10,10.54c0,3.1,1.27,5.89,3.29,7.82
			c3.16,3.58,4.98,6.52,6.71,12.36c1.73-5.84,3.54-8.78,6.71-12.36C501.54,196.58,502.81,193.79,502.81,190.69z"/>
	</g>
	<text transform="matrix(1 0 0 1 509.7466 202.9248)" class="st1 st2 st3">천안</text>
	<g>
		<path class="st1" d="M323.89,266.15c0-5.82-4.48-10.54-10-10.54c-5.52,0-10,4.72-10,10.54c0,3.1,1.27,5.89,3.29,7.82
			c3.16,3.58,4.98,6.52,6.71,12.36c1.73-5.84,3.54-8.78,6.71-12.36C322.62,272.04,323.89,269.25,323.89,266.15z"/>
	</g>
	<text transform="matrix(1 0 0 1 330.8318 278.3848)" class="st1 st2 st3">아산</text>
	<g>
		<path class="st1" d="M178.09,115.76c0-5.82-4.48-10.54-10-10.54c-5.52,0-10,4.72-10,10.54c0,3.1,1.27,5.89,3.29,7.82
			c3.16,3.58,4.98,6.52,6.71,12.36c1.73-5.84,3.54-8.78,6.71-12.36C176.82,121.65,178.09,118.87,178.09,115.76z"/>
	</g>
	<text transform="matrix(1 0 0 1 185.0261 127.9954)" class="st1 st2 st3">당진</text>
	<g>
		<path class="st1" d="M102.5,183.28c0-5.82-4.48-10.54-10-10.54c-5.52,0-10,4.72-10,10.54c0,3.1,1.27,5.89,3.29,7.82
			c3.16,3.58,4.98,6.52,6.71,12.36c1.73-5.84,3.54-8.78,6.71-12.36C101.23,189.17,102.5,186.38,102.5,183.28z"/>
	</g>
	<text transform="matrix(1 0 0 1 109.4365 195.5122)" class="st1 st2 st3">서산</text>
	<g>
		<path class="st1" d="M52.06,268.23c0-5.82-4.48-10.54-10-10.54c-5.52,0-10,4.72-10,10.54c0,3.1,1.27,5.89,3.29,7.82
			c3.16,3.58,4.98,6.52,6.71,12.36c1.73-5.84,3.54-8.78,6.71-12.36C50.79,274.12,52.06,271.33,52.06,268.23z"/>
	</g>
	<text transform="matrix(1 0 0 1 58.9963 280.4629)" class="st1 st2 st3">태안</text>
	<g>
		<path class="st1" d="M218.35,395.48c0-5.82-4.48-10.54-10-10.54c-5.52,0-10,4.72-10,10.54c0,3.1,1.27,5.89,3.29,7.82
			c3.16,3.58,4.98,6.52,6.71,12.36c1.73-5.84,3.54-8.78,6.71-12.36C217.08,401.37,218.35,398.58,218.35,395.48z"/>
	</g>
	<text transform="matrix(1 0 0 1 225.2891 407.7122)" class="st1 st2 st3">보령</text>
	<g>
		<path class="st1" d="M285.35,626.93c0-5.82-4.48-10.54-10-10.54c-5.52,0-10,4.72-10,10.54c0,3.1,1.27,5.89,3.29,7.82
			c3.16,3.58,4.98,6.52,6.71,12.36c1.73-5.84,3.54-8.78,6.71-12.36C284.07,632.82,285.35,630.03,285.35,626.93z"/>
	</g>
	<text transform="matrix(1 0 0 1 292.2839 639.1602)" class="st1 st2 st3">서천</text>
	<g>
		<path class="st1" d="M464.05,564.61c0-5.82-4.48-10.54-10-10.54c-5.52,0-10,4.72-10,10.54c0,3.1,1.27,5.89,3.29,7.82
			c3.16,3.58,4.98,6.52,6.71,12.36c1.73-5.84,3.54-8.78,6.71-12.36C462.78,570.5,464.05,567.71,464.05,564.61z"/>
	</g>
	<text transform="matrix(1 0 0 1 470.9924 576.8379)" class="st1 st2 st3">논산</text>
</g>
</svg>
