<?xml version="1.0" encoding="utf-8"?>
<!-- Generator: Adobe Illustrator 25.3.1, SVG Export Plug-In . SVG Version: 6.00 Build 0)  -->
<svg version="1.1" id="Layer_1" xmlns="http://www.w3.org/2000/svg" xmlns:xlink="http://www.w3.org/1999/xlink" x="0px" y="0px"
	 viewBox="0 0 750 750" style="enable-background:new 0 0 750 750;" xml:space="preserve">
<style type="text/css">
	.st0{fill:#FFFFFF;stroke:#153DB3;stroke-width:2;stroke-linejoin:bevel;stroke-miterlimit:10;}
	.st1{fill:#153DB3;}
	.st2{font-family:'NanumGothicBold';}
	.st3{font-size:20px;}
</style>
<g>
	<g>
		<polygon class="st0" points="89.62,474.51 346.59,420.55 309.29,346.86 39,363.48 		"/>
		<polygon class="st0" points="159.48,498.26 155.58,593.46 242.28,750 354.76,750 429.87,626.68 317.31,577.95 346.59,420.55 
			89.62,474.51 		"/>
		<polygon class="st0" points="173.79,84.33 437.58,166.06 508.87,61.67 272.16,0 39,199.89 39.86,201.75 433.47,276.45 
			39.86,201.75 84.35,298.08 39,363.48 309.29,346.86 308.49,345.3 543.03,216.08 437.58,166.06 		"/>
		<polygon class="st0" points="508.87,61.67 508.87,61.67 508.87,61.67 		"/>
		<polygon class="st0" points="508.87,61.67 437.58,166.06 543.03,216.08 624.85,243.62 711,114.32 		"/>
	</g>
	<text transform="matrix(1 0 0 1 563.1238 154.7417)" class="st1 st2 st3">소백산</text>
	<text transform="matrix(1 0 0 1 382.5078 91.0603)" class="st1 st2 st3">제천</text>
	<text transform="matrix(1 0 0 1 334.3196 194.4514)" class="st1 st2 st3">충주</text>
	<text transform="matrix(1 0 0 1 148.5046 299.509)" class="st1 st2 st3">청주공항</text>
	<text transform="matrix(1 0 0 1 132.8833 418.0999)" class="st1 st2 st3">청주</text>
	<text transform="matrix(1 0 0 1 338.698 646.6311)" class="st1 st2 st3">추풍령</text>
	<path class="st1" d="M554.97,145.7c0-3.74-2.88-6.78-6.43-6.78s-6.43,3.03-6.43,6.78c0,3.44,2.44,6.28,5.59,6.71v6.51h1.68v-6.51
		C552.53,151.98,554.97,149.14,554.97,145.7z"/>
	<path class="st1" d="M371.5,81.04c0-3.74-2.88-6.78-6.43-6.78s-6.43,3.03-6.43,6.78c0,3.44,2.44,6.28,5.59,6.71v6.51h1.68v-6.51
		C369.06,87.31,371.5,84.48,371.5,81.04z"/>
	<path class="st1" d="M324.03,185.49c0-3.74-2.88-6.78-6.43-6.78s-6.43,3.03-6.43,6.78c0,3.44,2.44,6.28,5.59,6.71v6.51h1.68v-6.51
		C321.59,191.77,324.03,188.93,324.03,185.49z"/>
	<path class="st1" d="M140.68,290.47c0-3.74-2.88-6.78-6.43-6.78s-6.43,3.03-6.43,6.78c0,3.44,2.44,6.28,5.59,6.71v6.51h1.68v-6.51
		C138.24,296.74,140.68,293.91,140.68,290.47z"/>
	<path class="st1" d="M124.33,407.46c0-3.74-2.88-6.78-6.43-6.78c-3.55,0-6.43,3.03-6.43,6.78c0,3.44,2.44,6.28,5.59,6.71v6.51h1.68
		v-6.51C121.89,413.74,124.33,410.91,124.33,407.46z"/>
	<path class="st1" d="M371.87,667.61c0-3.74-2.88-6.78-6.43-6.78c-3.55,0-6.43,3.03-6.43,6.78c0,3.44,2.44,6.28,5.59,6.71v6.51h1.68
		v-6.51C369.43,673.89,371.87,671.05,371.87,667.61z"/>
</g>
</svg>
