<?xml version="1.0" encoding="utf-8"?>
<!-- Generator: Adobe Illustrator 25.3.1, SVG Export Plug-In . SVG Version: 6.00 Build 0)  -->
<svg version="1.1" id="Layer_1" xmlns="http://www.w3.org/2000/svg" xmlns:xlink="http://www.w3.org/1999/xlink" x="0px" y="0px"
	 viewBox="0 0 750 750" style="enable-background:new 0 0 750 750;" xml:space="preserve">
<style type="text/css">
	.st0{fill:#FFFFFF;stroke:#153DB3;stroke-width:2;stroke-miterlimit:10;}
	.st1{fill:#153DB3;}
	.st2{font-family:'NanumGothicBold';}
	.st3{font-size:20px;}
</style>
<g>
	<polygon class="st0" points="478.12,512.4 643.96,475.19 587.9,371.54 421.61,408.85 	"/>
	<polygon class="st0" points="440.92,442.97 606.56,406.04 559.87,319.72 393.36,357.08 	"/>
	<polygon class="st0" points="506.37,564.17 507.05,565.41 741.73,672.1 750,671.25 671.99,527.01 506.37,564.17 	"/>
	<polygon class="st0" points="506.37,564.17 506.37,564.17 671.99,527.01 643.96,475.19 478.12,512.4 	"/>
	<polygon class="st0" points="379.85,332.31 379.85,332.31 379.85,332.31 393.36,357.08 559.87,319.72 531.85,267.9 365.11,305.31 	
		"/>
	<polygon class="st0" points="493.59,559.29 507.05,565.41 506.37,564.17 106.16,411.47 204.85,619.55 260.67,634.7 375,514.05 
		260.67,634.7 493.11,697.8 574.7,689.37 507.05,565.41 	"/>
	<polygon class="st0" points="379.85,332.31 99.6,397.66 106.16,411.47 506.37,564.17 451.13,462.94 	"/>
	<polygon class="st0" points="507.05,565.41 574.7,689.37 741.73,672.1 	"/>
	<polygon class="st0" points="365.11,305.31 531.85,267.9 503.82,216.07 336.86,253.53 	"/>
	<polygon class="st0" points="365.11,305.31 336.86,253.53 297.07,180.62 0,187.68 99.6,397.66 379.85,332.31 	"/>
	<polygon class="st0" points="503.82,216.07 415.19,52.2 361.48,179.09 297.07,180.62 336.86,253.53 	"/>
</g>
<text transform="matrix(1 0 0 1 153.0974 305.9783)" class="st1 st2 st3">춘천</text>
<text transform="matrix(1 0 0 1 371.8286 210.2524)" class="st1 st2 st3">강원(고성)</text>
<text transform="matrix(1 0 0 1 398.415 277.1409)" class="st1 st2 st3">속초</text>
<text transform="matrix(1 0 0 1 473.6528 305.074)" class="st1 st2 st3">양양</text>
<text transform="matrix(1 0 0 1 484.9314 356.9475)" class="st1 st2 st3">주문진</text>
<text transform="matrix(1 0 0 1 550.5146 441.2048)" class="st1 st2 st3">강릉</text>
<text transform="matrix(1 0 0 1 581.4846 517.8113)" class="st1 st2 st3">동해</text>
<text transform="matrix(1 0 0 1 634.6162 590.75)" class="st1 st2 st3">삼척</text>
<text transform="matrix(1 0 0 1 590.4346 653.6533)" class="st1 st2 st3">태백</text>
<text transform="matrix(1 0 0 1 329.2312 453.9072)" class="st1 st2 st3">대관령</text>
<text transform="matrix(1 0 0 1 216.2415 538.4529)" class="st1 st2 st3">원주</text>
<text transform="matrix(1 0 0 1 410.5596 623.4631)" class="st1 st2 st3">영월</text>
<path class="st1" d="M533.74,295.92c0-3.74-2.88-6.78-6.43-6.78c-3.55,0-6.43,3.03-6.43,6.78c0,3.44,2.44,6.28,5.59,6.71v6.51h1.68
	v-6.51C531.3,302.2,533.74,299.36,533.74,295.92z"/>
<path class="st1" d="M387.86,267.99c0-3.74-2.88-6.78-6.43-6.78s-6.43,3.03-6.43,6.78c0,3.44,2.44,6.28,5.59,6.71v6.51h1.68v-6.51
	C385.42,274.27,387.86,271.43,387.86,267.99z"/>
<path class="st1" d="M362.34,201.21c0-3.74-2.88-6.78-6.43-6.78c-3.55,0-6.43,3.03-6.43,6.78c0,3.44,2.44,6.28,5.59,6.71v6.51h1.68
	v-6.51C359.9,207.49,362.34,204.65,362.34,201.21z"/>
<path class="st1" d="M563.37,347.79c0-3.74-2.88-6.78-6.43-6.78c-3.55,0-6.43,3.03-6.43,6.78c0,3.44,2.44,6.28,5.59,6.71v6.51h1.68
	v-6.51C560.94,354.07,563.37,351.24,563.37,347.79z"/>
<path class="st1" d="M610.84,432.05c0-3.74-2.88-6.78-6.43-6.78c-3.55,0-6.43,3.03-6.43,6.78c0,3.44,2.44,6.28,5.59,6.71v6.51h1.68
	v-6.51C608.4,438.33,610.84,435.49,610.84,432.05z"/>
<path class="st1" d="M641.05,508.66c0-3.74-2.88-6.78-6.43-6.78c-3.55,0-6.43,3.03-6.43,6.78c0,3.44,2.44,6.28,5.59,6.71v6.51h1.68
	v-6.51C638.61,514.94,641.05,512.1,641.05,508.66z"/>
<path class="st1" d="M692.6,581.6c0-3.74-2.88-6.78-6.43-6.78s-6.43,3.03-6.43,6.78c0,3.44,2.44,6.28,5.59,6.71v6.51h1.68v-6.51
	C690.16,587.87,692.6,585.04,692.6,581.6z"/>
<path class="st1" d="M581.48,644.5c0-3.74-2.88-6.78-6.43-6.78s-6.43,3.03-6.43,6.78c0,3.44,2.44,6.28,5.59,6.71v6.51h1.68v-6.51
	C579.05,650.78,581.48,647.94,581.48,644.5z"/>
<path class="st1" d="M406.22,614.31c0-3.74-2.88-6.78-6.43-6.78s-6.43,3.03-6.43,6.78c0,3.44,2.44,6.28,5.59,6.71v6.51h1.68v-6.51
	C403.78,620.59,406.22,617.75,406.22,614.31z"/>
<path class="st1" d="M209.78,529.3c0-3.74-2.88-6.78-6.43-6.78c-3.55,0-6.43,3.03-6.43,6.78c0,3.44,2.44,6.28,5.59,6.71v6.51h1.68
	v-6.51C207.34,535.58,209.78,532.74,209.78,529.3z"/>
<path class="st1" d="M315.85,444.75c0-3.74-2.88-6.78-6.43-6.78s-6.43,3.03-6.43,6.78c0,3.44,2.44,6.28,5.59,6.71v6.51h1.68v-6.51
	C313.41,451.03,315.85,448.2,315.85,444.75z"/>
<path class="st1" d="M209.78,296.83c0-3.74-2.88-6.78-6.43-6.78c-3.55,0-6.43,3.03-6.43,6.78c0,3.44,2.44,6.28,5.59,6.71v6.51h1.68
	v-6.51C207.34,303.1,209.78,300.27,209.78,296.83z"/>
</svg>
