<?xml version="1.0" encoding="utf-8"?>
<!-- Generator: Adobe Illustrator 25.3.1, SVG Export Plug-In . SVG Version: 6.00 Build 0)  -->
<svg version="1.1" id="Layer_1" xmlns="http://www.w3.org/2000/svg" xmlns:xlink="http://www.w3.org/1999/xlink" x="0px" y="0px"
	 viewBox="0 0 750 750" style="enable-background:new 0 0 750 750;" xml:space="preserve">
<style type="text/css">
	.st0{fill:#FFFFFF;stroke:#153DB3;stroke-width:2;stroke-linecap:square;stroke-linejoin:bevel;stroke-miterlimit:10;}
	.st1{fill:#153DB3;}
	.st2{font-family:'NanumGothicBold';}
	.st3{font-size:20px;}
</style>
<g>
	<g>
		<polygon class="st0" points="182.58,329.11 254.96,153.78 182.14,126.47 20.02,217.65 47.57,273.64 22.83,388.94 113.86,419.29 
			223.72,436.71 		"/>
		<polygon class="st0" points="495.9,177.2 465.69,17.41 330.82,29.37 254.96,153.78 397.79,226.25 		"/>
		<polygon class="st0" points="349.32,529.65 388.34,601.82 349.32,669.63 301.19,734.01 410.11,750 472.16,725.46 472.16,529.65 		
			"/>
		<polygon class="st0" points="223.72,436.71 184.79,532.93 229.17,604.04 273.37,576.09 349.32,529.65 332.91,425.64 		"/>
		<polygon class="st0" points="726.35,507.12 684.46,543.59 646.74,529.65 578.6,529.65 594.01,709.84 578.6,529.65 472.16,529.65 
			472.16,725.46 527.49,703.57 672.76,717.26 729.98,552.8 		"/>
		<polygon class="st0" points="184.79,532.93 223.72,436.71 113.86,419.29 41.54,551.97 41.54,613.89 96.24,632.25 147.19,712.11 
			229.17,736.38 229.17,604.04 		"/>
		<polygon class="st0" points="444.11,301.73 361.39,341.71 182.58,329.11 223.72,436.71 332.91,425.64 399.58,408.81 495.9,384.49 
			495.9,294.3 495.9,276.69 		"/>
		<polygon class="st0" points="495.9,384.49 399.58,408.81 332.91,425.64 349.32,529.65 472.16,529.65 578.6,529.65 646.74,529.65 
			652.2,341.71 		"/>
		<polygon class="st0" points="465.69,17.41 465.69,17.41 465.69,17.41 		"/>
		<polygon class="st0" points="658.21,134.59 658.21,134.59 658.21,134.59 		"/>
		<polygon class="st0" points="465.69,17.41 495.9,177.2 658.21,134.59 662.12,0 		"/>
		<polygon class="st0" points="652.2,341.71 652.2,341.71 652.2,341.71 		"/>
		<polygon class="st0" points="495.9,177.2 495.9,276.69 495.9,294.3 495.9,384.49 652.2,341.71 658.21,134.59 		"/>
		<polygon class="st0" points="397.79,226.25 254.96,153.78 182.58,329.11 361.39,341.71 444.11,301.73 495.9,276.69 495.9,177.2 		
			"/>
	</g>
	<text transform="matrix(1 0 0 1 112.7476 310.5413)" class="st1 st2 st3">상주</text>
	<text transform="matrix(1 0 0 1 117.126 569.8892)" class="st1 st2 st3">김천</text>
	<text transform="matrix(1 0 0 1 316.8088 391.9077)" class="st1 st2 st3">의성</text>
	<text transform="matrix(1 0 0 1 377.3049 282.3157)" class="st1 st2 st3">안동</text>
	<text transform="matrix(1 0 0 1 348.5278 149.2407)" class="st1 st2 st3">영주</text>
	<text transform="matrix(1 0 0 1 579.5256 80.6521)" class="st1 st2 st3">울진</text>
	<text transform="matrix(1 0 0 1 577.052 313.9966)" class="st1 st2 st3">영덕</text>
	<text transform="matrix(1 0 0 1 496.9358 461.7737)" class="st1 st2 st3">보현산</text>
	<text transform="matrix(1 0 0 1 409.0239 647.2393)" class="st1 st2 st3">영천</text>
	<text transform="matrix(1 0 0 1 523.7952 677.9592)" class="st1 st2 st3">경주</text>
	<text transform="matrix(1 0 0 1 647.5288 585.249)" class="st1 st2 st3">포항</text>
	<text transform="matrix(1 0 0 1 260.4143 516.5481)" class="st1 st2 st3">구미</text>
	<path class="st1" d="M566.27,70.35c0-3.74-2.88-6.78-6.43-6.78s-6.43,3.03-6.43,6.78c0,3.44,2.44,6.28,5.59,6.71v6.51h1.68v-6.51
		C563.84,76.63,566.27,73.79,566.27,70.35z"/>
	<path class="st1" d="M566.27,302.76c0-3.74-2.88-6.78-6.43-6.78s-6.43,3.03-6.43,6.78c0,3.44,2.44,6.28,5.59,6.71v6.51h1.68v-6.51
		C563.84,309.03,566.27,306.2,566.27,302.76z"/>
	<path class="st1" d="M637.52,574.61c0-3.74-2.88-6.78-6.43-6.78c-3.55,0-6.43,3.03-6.43,6.78c0,3.44,2.44,6.28,5.59,6.71v6.51h1.68
		v-6.51C635.09,580.89,637.52,578.05,637.52,574.61z"/>
	<path class="st1" d="M514.09,664.74c0-3.74-2.88-6.78-6.43-6.78s-6.43,3.03-6.43,6.78c0,3.44,2.44,6.28,5.59,6.71v6.51h1.68v-6.51
		C511.66,671.01,514.09,668.18,514.09,664.74z"/>
	<path class="st1" d="M399.53,636.6c0-3.74-2.88-6.78-6.43-6.78s-6.43,3.03-6.43,6.78c0,3.44,2.44,6.28,5.59,6.71v6.51h1.68v-6.51
		C397.1,642.88,399.53,640.04,399.53,636.6z"/>
	<path class="st1" d="M489.73,450.68c0-3.74-2.88-6.78-6.43-6.78c-3.55,0-6.43,3.03-6.43,6.78c0,3.44,2.44,6.28,5.59,6.71v6.51h1.68
		v-6.51C487.29,456.96,489.73,454.13,489.73,450.68z"/>
	<path class="st1" d="M304.59,381.27c0-3.74-2.88-6.78-6.43-6.78c-3.55,0-6.43,3.03-6.43,6.78c0,3.44,2.44,6.28,5.59,6.71v6.51H299
		v-6.51C302.15,387.55,304.59,384.71,304.59,381.27z"/>
	<path class="st1" d="M250.26,507.51c0-3.74-2.88-6.78-6.43-6.78c-3.55,0-6.43,3.03-6.43,6.78c0,3.44,2.44,6.28,5.59,6.71v6.51h1.68
		v-6.51C247.82,513.78,250.26,510.95,250.26,507.51z"/>
	<path class="st1" d="M107.68,560.85c0-3.74-2.88-6.78-6.43-6.78c-3.55,0-6.43,3.03-6.43,6.78c0,3.44,2.44,6.28,5.59,6.71v6.51h1.68
		v-6.51C105.24,567.12,107.68,564.29,107.68,560.85z"/>
	<path class="st1" d="M103.56,301.85c0-3.74-2.88-6.78-6.43-6.78s-6.43,3.03-6.43,6.78c0,3.44,2.44,6.28,5.59,6.71v6.51h1.68v-6.51
		C101.12,308.13,103.56,305.29,103.56,301.85z"/>
	<path class="st1" d="M368.13,273.47c0-3.74-2.88-6.78-6.43-6.78s-6.43,3.03-6.43,6.78c0,3.44,2.44,6.28,5.59,6.71v6.51h1.68v-6.51
		C365.69,279.75,368.13,276.91,368.13,273.47z"/>
	<path class="st1" d="M339.34,140.2c0-3.74-2.88-6.78-6.43-6.78s-6.43,3.03-6.43,6.78c0,3.44,2.44,6.28,5.59,6.71v6.51h1.68v-6.51
		C336.9,146.48,339.34,143.64,339.34,140.2z"/>
</g>
</svg>
