<?xml version="1.0" encoding="utf-8"?>
<!-- Generator: Adobe Illustrator 25.3.1, SVG Export Plug-In . SVG Version: 6.00 Build 0)  -->
<svg version="1.1" id="Layer_1" xmlns="http://www.w3.org/2000/svg" xmlns:xlink="http://www.w3.org/1999/xlink" x="0px" y="0px"
	 viewBox="0 0 750 750" style="enable-background:new 0 0 750 750;" xml:space="preserve">
<style type="text/css">
	.st0{fill:#FFFFFF;stroke:#153DB3;stroke-width:2;stroke-linejoin:bevel;stroke-miterlimit:10;}
	.st1{fill:#153DB3;}
	.st2{font-family:'NanumGothicBold';}
	.st3{font-size:20px;}
</style>
<g>
	<g>
		<polygon class="st0" points="89.01,645.1 198.1,695.6 220.31,640.84 91.17,592.02 		"/>
		<polygon class="st0" points="575.06,450.4 750,305.45 676.12,223.56 650.42,168.12 564.18,200.97 484.58,187.43 437.34,314.61 		
			"/>
		<polygon class="st0" points="440.65,495.68 437.34,314.61 354.99,333.57 437.34,489.42 		"/>
		<polygon class="st0" points="238.87,507.37 243.51,583.65 389.47,603.38 465.04,541.85 		"/>
		<polygon class="st0" points="440.65,495.68 465.04,541.85 557.8,507.09 575.06,450.4 		"/>
		<polygon class="st0" points="484.58,187.43 484.58,187.43 484.58,187.43 		"/>
		<polygon class="st0" points="440.65,495.68 440.65,495.68 437.34,489.42 354.99,333.57 278.72,351.13 230.05,362.34 
			231.64,388.57 238.87,507.37 465.04,541.85 		"/>
		<polygon class="st0" points="231.64,388.57 230.05,362.34 95.01,497.22 91.17,592.02 220.31,640.84 243.51,583.65 		"/>
		<polygon class="st0" points="430,178.14 362.08,185.36 264.53,151.08 198.1,64.84 143.51,44.55 48.59,96.97 24.3,210.27 
			48.59,284.68 0,370.92 95.01,497.22 230.05,362.34 278.72,351.13 354.99,333.57 437.34,314.61 484.58,187.43 		"/>
		<polygon class="st0" points="440.65,495.68 440.65,495.68 575.06,450.4 437.34,314.61 		"/>
		<polygon class="st0" points="440.65,495.68 440.65,495.68 440.65,495.68 		"/>
		<polygon class="st0" points="557.8,507.09 557.8,507.09 557.8,507.09 		"/>
		<polygon class="st0" points="472.06,556.14 465.04,541.85 389.47,603.38 436.5,705.45 515.77,645.1 		"/>
		<polygon class="st0" points="465.04,541.85 472.06,556.14 515.77,645.1 557.8,507.09 		"/>
		<polygon class="st0" points="231.64,388.57 231.64,388.57 243.51,583.65 238.87,507.37 		"/>
		<polygon class="st0" points="231.64,388.57 231.64,388.57 230.05,362.34 		"/>
	</g>
	<text transform="matrix(1 0 0 1 149.0393 223.2756)" class="st1 st2 st3">거창</text>
	<text transform="matrix(1 0 0 1 573.4192 303.9275)" class="st1 st2 st3">밀양</text>
	<text transform="matrix(1 0 0 1 167.3381 513.9192)" class="st1 st2 st3">진주</text>
	<text transform="matrix(1 0 0 1 132.9607 651.3633)" class="st1 st2 st3">남해</text>
	<text transform="matrix(1 0 0 1 292.8462 567.5559)" class="st1 st2 st3">사천</text>
	<text transform="matrix(1 0 0 1 425.3127 650.1362)" class="st1 st2 st3">통영</text>
	<text transform="matrix(1 0 0 1 493.6267 579.8804)" class="st1 st2 st3">거제</text>
	<text transform="matrix(1 0 0 1 353.1172 499.1394)" class="st1 st2 st3">마산</text>
	<text transform="matrix(1 0 0 1 382.5574 357.9314)" class="st1 st2 st3">창원</text>
	<text transform="matrix(1 0 0 1 486.8948 507.0864)" class="st1 st2 st3">진해</text>
	<text transform="matrix(1 0 0 1 476.6433 443.1431)" class="st1 st2 st3">김해</text>
	<path class="st1" d="M141.49,214.23c0-3.74-2.88-6.78-6.43-6.78s-6.43,3.03-6.43,6.78c0,3.44,2.44,6.28,5.59,6.71v6.51h1.68v-6.51
		C139.05,220.51,141.49,217.68,141.49,214.23z"/>
	<path class="st1" d="M156.56,504.15c0-3.74-2.88-6.78-6.43-6.78s-6.43,3.03-6.43,6.78c0,3.44,2.44,6.28,5.59,6.71v6.51h1.68v-6.51
		C154.12,510.42,156.56,507.59,156.56,504.15z"/>
	<path class="st1" d="M128.63,635.83c0-3.74-2.88-6.78-6.43-6.78s-6.43,3.03-6.43,6.78c0,3.44,2.44,6.28,5.59,6.71v6.51h1.68v-6.51
		C126.19,642.1,128.63,639.27,128.63,635.83z"/>
	<path class="st1" d="M280.54,552.15c0-3.74-2.88-6.78-6.43-6.78s-6.43,3.03-6.43,6.78c0,3.44,2.44,6.28,5.59,6.71v6.51h1.68v-6.51
		C278.11,558.43,280.54,555.6,280.54,552.15z"/>
	<path class="st1" d="M414.13,492.46c0-3.74-2.88-6.78-6.43-6.78c-3.55,0-6.43,3.03-6.43,6.78c0,3.44,2.44,6.28,5.59,6.71v6.51h1.68
		v-6.51C411.69,498.74,414.13,495.9,414.13,492.46z"/>
	<path class="st1" d="M414.13,375.34c0-3.74-2.88-6.78-6.43-6.78c-3.55,0-6.43,3.03-6.43,6.78c0,3.44,2.44,6.28,5.59,6.71v6.51h1.68
		v-6.51C411.69,381.62,414.13,378.79,414.13,375.34z"/>
	<path class="st1" d="M465.48,434.49c0-3.74-2.88-6.78-6.43-6.78s-6.43,3.03-6.43,6.78c0,3.44,2.44,6.28,5.59,6.71v6.51h1.68v-6.51
		C463.04,440.76,465.48,437.93,465.48,434.49z"/>
	<path class="st1" d="M564.23,294.89c0-3.74-2.88-6.78-6.43-6.78s-6.43,3.03-6.43,6.78c0,3.44,2.44,6.28,5.59,6.71v6.51h1.68v-6.51
		C561.79,301.16,564.23,298.33,564.23,294.89z"/>
	<path class="st1" d="M477.9,504.15c0-3.74-2.88-6.78-6.43-6.78s-6.43,3.03-6.43,6.78c0,3.44,2.44,6.28,5.59,6.71v6.51h1.68v-6.51
		C475.46,510.42,477.9,507.59,477.9,504.15z"/>
	<path class="st1" d="M449.75,667.79c0-3.74-2.88-6.78-6.43-6.78s-6.43,3.03-6.43,6.78c0,3.44,2.44,6.28,5.59,6.71v6.51h1.68v-6.51
		C447.31,674.07,449.75,671.23,449.75,667.79z"/>
	<path class="st1" d="M520.71,603.7c0-3.74-2.88-6.78-6.43-6.78c-3.55,0-6.43,3.03-6.43,6.78c0,3.44,2.44,6.28,5.59,6.71v6.51h1.68
		v-6.51C518.28,609.98,520.71,607.14,520.71,603.7z"/>
</g>
</svg>
