<?xml version="1.0" encoding="utf-8"?>
<!-- Generator: Adobe Illustrator 25.3.1, SVG Export Plug-In . SVG Version: 6.00 Build 0)  -->
<svg version="1.1" id="Layer_1" xmlns="http://www.w3.org/2000/svg" xmlns:xlink="http://www.w3.org/1999/xlink" x="0px" y="0px"
	 viewBox="0 0 750 750" style="enable-background:new 0 0 750 750;" xml:space="preserve">
<style type="text/css">
	.st0{fill:#FFFFFF;stroke:#153DB3;stroke-width:2;stroke-linejoin:bevel;stroke-miterlimit:10;}
	.st1{fill:#153DB3;}
	.st2{font-family:'NanumGothicBold';}
	.st3{font-size:20px;}
</style>
<g>
	<g>
		<polygon class="st0" points="451.59,507.32 400.35,360.87 258.09,341.96 271.18,473.41 347.15,520.88 		"/>
		<polygon class="st0" points="363.55,570.09 388.29,644.31 501.17,595.97 451.59,507.32 347.15,520.88 		"/>
		<polygon class="st0" points="124.72,284.35 126.53,396.8 212.72,360.87 186.21,203.86 		"/>
		<polygon class="st0" points="347.15,520.88 186.91,628.76 271.18,473.41 129.74,543.06 231.29,546.94 129.74,543.06 214.8,670.59 
			363.55,570.09 		"/>
		<polygon class="st0" points="583.83,507.32 451.59,507.32 501.17,595.97 540.8,666.83 625.28,594.24 		"/>
		<polygon class="st0" points="542.61,420.87 400.35,360.87 451.59,507.32 583.83,507.32 341.93,0 186.21,203.86 212.72,360.87 
			258.09,341.96 400.35,360.87 		"/>
		<path class="st0" d="M388.29,644.31l-41.14,97.99L388.29,644.31l-24.74-74.22L214.8,670.59l45.24,67.83L444.01,750l96.79-83.17
			l-39.63-70.86L388.29,644.31z M239.59,707.76l138.23-94.87L239.59,707.76z"/>
		<polygon class="st0" points="347.15,520.88 271.18,473.41 186.91,628.76 		"/>
	</g>
	<text transform="matrix(1 0 0 1 142.3025 322.4675)" class="st1 st2 st3">고양</text>
	<text transform="matrix(1 0 0 1 474.3669 455.7673)" class="st1 st2 st3">양평</text>
	<text transform="matrix(1 0 0 1 525.6384 576.0176)" class="st1 st2 st3">여주</text>
	<text transform="matrix(1 0 0 1 411.4666 719.2556)" class="st1 st2 st3">평택</text>
	<text transform="matrix(1 0 0 1 286.9829 720.8684)" class="st1 st2 st3">화성</text>
	<text transform="matrix(1 0 0 1 250.1101 666.2046)" class="st1 st2 st3">수원</text>
	<text transform="matrix(1 0 0 1 221.2314 628.7627)" class="st1 st2 st3">안산</text>
	<text transform="matrix(1 0 0 1 166.5488 580.8757)" class="st1 st2 st3">시흥</text>
	<text transform="matrix(1 0 0 1 194.0068 537.2632)" class="st1 st2 st3">부천</text>
	<text transform="matrix(1 0 0 1 303.9475 466.8555)" class="st1 st2 st3">광주(경기)</text>
	<text transform="matrix(1 0 0 1 379.3123 584.1758)" class="st1 st2 st3">용인</text>
	<text transform="matrix(1 0 0 1 256.5396 543.4878)" class="st1 st2 st3">안양</text>
	<text transform="matrix(1 0 0 1 243.6807 275.5227)" class="st1 st2 st3">파주</text>
	<path class="st1" d="M192.64,597.65c0-3.74-2.88-6.78-6.43-6.78s-6.43,3.03-6.43,6.78c0,3.44,2.44,6.28,5.59,6.71v6.51h1.68v-6.51
		C190.2,603.93,192.64,601.1,192.64,597.65z"/>
	<path class="st1" d="M221.23,641.08c0-3.74-2.88-6.78-6.43-6.78s-6.43,3.03-6.43,6.78c0,3.44,2.44,6.28,5.59,6.71v6.51h1.68v-6.51
		C218.79,647.36,221.23,644.53,221.23,641.08z"/>
	<path class="st1" d="M246.02,675.68c0-3.74-2.88-6.78-6.43-6.78s-6.43,3.03-6.43,6.78c0,3.44,2.44,6.28,5.59,6.71v6.51h1.68v-6.51
		C243.59,681.96,246.02,679.13,246.02,675.68z"/>
	<path class="st1" d="M401.45,601.31c0-3.74-2.88-6.78-6.43-6.78s-6.43,3.03-6.43,6.78c0,3.44,2.44,6.28,5.59,6.71v6.51h1.68v-6.51
		C399.01,607.59,401.45,604.75,401.45,601.31z"/>
	<path class="st1" d="M401.45,707.65c0-3.74-2.88-6.78-6.43-6.78s-6.43,3.03-6.43,6.78c0,3.44,2.44,6.28,5.59,6.71v6.51h1.68v-6.51
		C399.01,713.92,401.45,711.09,401.45,707.65z"/>
	<path class="st1" d="M353.58,494.09c0-3.74-2.88-6.78-6.43-6.78s-6.43,3.03-6.43,6.78c0,3.44,2.44,6.28,5.59,6.71v6.51h1.68v-6.51
		C351.14,500.37,353.58,497.53,353.58,494.09z"/>
	<path class="st1" d="M236.34,265.46c0-3.74-2.88-6.78-6.43-6.78s-6.43,3.03-6.43,6.78c0,3.44,2.44,6.28,5.59,6.71v6.51h1.68v-6.51
		C233.9,271.74,236.34,268.9,236.34,265.46z"/>
	<path class="st1" d="M164.6,340.56c0-3.74-2.88-6.78-6.43-6.78c-3.55,0-6.43,3.03-6.43,6.78c0,3.44,2.44,6.28,5.59,6.71v6.51h1.68
		v-6.51C162.16,346.84,164.6,344,164.6,340.56z"/>
	<path class="st1" d="M464.45,445.7c0-3.74-2.88-6.78-6.43-6.78s-6.43,3.03-6.43,6.78c0,3.44,2.44,6.28,5.59,6.71v6.51h1.68v-6.51
		C462.01,451.98,464.45,449.15,464.45,445.7z"/>
	<path class="st1" d="M551.29,596.56c0-3.74-2.88-6.78-6.43-6.78s-6.43,3.03-6.43,6.78c0,3.44,2.44,6.28,5.59,6.71v6.51h1.68v-6.51
		C548.85,602.84,551.29,600,551.29,596.56z"/>
	<path class="st1" d="M273.46,714.54c0-3.74-2.88-6.78-6.43-6.78s-6.43,3.03-6.43,6.78c0,3.44,2.44,6.28,5.59,6.71v6.51h1.68v-6.51
		C271.02,720.82,273.46,717.98,273.46,714.54z"/>
	<path class="st1" d="M256.54,558.59c0-3.74-2.88-6.78-6.43-6.78c-3.55,0-6.43,3.03-6.43,6.78c0,3.44,2.44,6.28,5.59,6.71v6.51h1.68
		v-6.51C254.1,564.87,256.54,562.04,256.54,558.59z"/>
	<path class="st1" d="M187.98,526.85c0-3.74-2.88-6.78-6.43-6.78c-3.55,0-6.43,3.03-6.43,6.78c0,3.44,2.44,6.28,5.59,6.71v6.51h1.68
		v-6.51C185.54,533.13,187.98,530.29,187.98,526.85z"/>
</g>
</svg>
