<?xml version="1.0" encoding="utf-8"?>
<!-- Generator: Adobe Illustrator 25.3.1, SVG Export Plug-In . SVG Version: 6.00 Build 0)  -->
<svg version="1.1" id="Layer_1" xmlns="http://www.w3.org/2000/svg" xmlns:xlink="http://www.w3.org/1999/xlink" x="0px" y="0px"
	 viewBox="0 0 750 750" style="enable-background:new 0 0 750 750;" xml:space="preserve">
<style type="text/css">
	.st0{fill:#FFFFFF;stroke:#153DB3;stroke-width:2;stroke-linejoin:bevel;stroke-miterlimit:10;}
	.st1{fill:#153DB3;}
	.st2{font-family:'NanumGothicBold';}
	.st3{font-size:20px;}
</style>
<g>
	<g>
		<polygon class="st0" points="250.58,498.97 455.4,527.51 608.38,443.87 318.33,375 		"/>
		<polygon class="st0" points="173.9,272.66 0,431.92 115.04,566.02 250.58,498.97 318.33,375 		"/>
		<polygon class="st0" points="522.98,183.98 173.9,272.66 318.33,375 		"/>
		<polygon class="st0" points="318.33,375 608.38,443.87 660.85,257.21 522.98,183.98 		"/>
		<polygon class="st0" points="718.64,232.45 708.55,262.5 750,288.46 750,242.53 		"/>
	</g>
	<text transform="matrix(1 0 0 1 307.1826 296.176)" class="st1 st2 st3">제주</text>
	<text transform="matrix(1 0 0 1 60.4446 442.1116)" class="st1 st2 st3">제주(레이다기지)</text>
	<text transform="matrix(1 0 0 1 363.5393 474.0264)" class="st1 st2 st3">서귀포</text>
	<text transform="matrix(1 0 0 1 526.5181 276.292)" class="st1 st2 st3">성산일출봉</text>
	<path class="st1" d="M290.84,287.02c0-3.74-2.88-6.78-6.43-6.78s-6.43,3.03-6.43,6.78c0,3.44,2.44,6.28,5.59,6.71v6.51h1.68v-6.51
		C288.41,293.3,290.84,290.46,290.84,287.02z"/>
	<path class="st1" d="M40.42,433.07c0-3.74-2.88-6.78-6.43-6.78c-3.55,0-6.43,3.03-6.43,6.78c0,3.44,2.44,6.28,5.59,6.71v6.51h1.68
		v-6.51C37.99,439.35,40.42,436.51,40.42,433.07z"/>
	<path class="st1" d="M354.87,462.1c0-3.74-2.88-6.78-6.43-6.78s-6.43,3.03-6.43,6.78c0,3.44,2.44,6.28,5.59,6.71v6.51h1.68v-6.51
		C352.43,468.38,354.87,465.54,354.87,462.1z"/>
	<path class="st1" d="M646.03,263.07c0-3.74-2.88-6.78-6.43-6.78c-3.55,0-6.43,3.03-6.43,6.78c0,3.44,2.44,6.28,5.59,6.71v6.51h1.68
		v-6.51C643.6,269.35,646.03,266.51,646.03,263.07z"/>
</g>
</svg>
