<?xml version="1.0" encoding="utf-8"?>
<!-- Generator: Adobe Illustrator 25.3.1, SVG Export Plug-In . SVG Version: 6.00 Build 0)  -->
<svg version="1.1" id="Layer_1" xmlns="http://www.w3.org/2000/svg" xmlns:xlink="http://www.w3.org/1999/xlink" x="0px" y="0px"
	 viewBox="0 0 750 750" style="enable-background:new 0 0 750 750;" xml:space="preserve">
<style type="text/css">
	.st0{fill:none;}
	.st1{fill:#FFFFFF;stroke:#153DB3;stroke-width:2;stroke-linejoin:bevel;stroke-miterlimit:10;}
	.st2{fill:#153DB3;}
	.st3{font-family:'NanumGothicBold';}
	.st4{font-size:20px;}
</style>
<g>
	<g>
		<polygon class="st0" points="292.36,653.38 292.36,653.38 292.36,653.38 		"/>
		<path class="st1" d="M544.13,346.49L750,279.99l-35.2-48.01L498.68,249.4L544.13,346.49z M625.5,239.18l22.32,73.82L625.5,239.18z
			"/>
		<polygon class="st1" points="714.8,231.97 680.31,184.93 629.68,127.6 451.71,149.08 498.68,249.4 		"/>
		<polygon class="st1" points="621.62,512 667.54,469.45 745.13,406.11 571.24,404.38 		"/>
		<polygon class="st1" points="571.24,404.38 407.63,514.6 571.24,404.38 571.24,404.38 544.13,346.49 544.13,346.49 352.31,428.08 
			458.31,593.88 352.31,428.08 292.36,653.38 364.66,619.29 564.31,565.13 621.62,512 571.24,404.38 		"/>
		<polygon class="st1" points="544.13,346.49 571.24,404.38 745.13,406.11 750,279.99 		"/>
		<polygon class="st1" points="51.74,621.46 230.98,682.33 292.36,653.38 130.76,517.21 		"/>
		<polygon class="st1" points="0,407.01 51.74,621.46 130.76,517.21 		"/>
		<polygon class="st1" points="131.11,516.75 230.98,430.05 212.27,367.15 0,407.01 130.76,517.21 		"/>
		<polygon class="st1" points="230.98,430.05 131.11,516.75 130.76,517.21 292.36,653.38 292.36,653.38 352.31,428.08 		"/>
	</g>
	<g>
		<path class="st1" d="M257.27,216.39c0.82-0.41,1.59-0.92,2.29-1.52l6.91-5.88c5.99-5.09,15.21-2.87,18.21,4.4l0,0
			c2.33,5.64,8.65,8.51,14.43,6.54l13.68-4.64c3.22-1.09,6.76-0.72,9.68,1.03l5.29,3.16c3.55,2.12,5.69,5.97,5.63,10.1l-0.06,4.48
			c-0.07,5.02,3.1,9.52,7.85,11.13l26.76,9.11c2.67,0.91,4.88,2.75,6.27,5.13l124.48-10.04l-46.97-100.32l-0.07,0.01l-34.5-74.45
			l-75.97-6.97l-91.8,89.98l-6.43,65.97L257.27,216.39z"/>
		<path class="st1" d="M218.05,308.62l-15.09-1.42c-2.84-2.78-4.05-6.82-3.22-10.7l8.9-41.5c0.38-1.78,1.18-3.43,2.3-4.83
			l-90.06-66.4l-59.64,77.53L0,407.01l212.27-39.86l16.46-60.98C225.08,306.26,221.45,307.07,218.05,308.62z"/>
		<path class="st1" d="M288.82,342.39c-7.02-0.21-13.95-1.57-20.53-4.03c-3.66-1.36-7.76-2.77-11.03-3.56
			c-6.4-1.54-8.74-18.84-13.39-23.49l-2.32-2.32c-4.03-2-8.43-2.94-12.82-2.83l-16.46,60.98l18.71,62.89l121.33-1.97l-61.88-85.64
			L288.82,342.39z"/>
		<path class="st1" d="M212.29,248.75l24.25-21.48c0.75-0.66,1.57-1.22,2.46-1.67l3.93-1.98l6.43-65.97l-83.6-74.89l-44.9,101.01
			l90.06,66.4C211.35,249.66,211.8,249.19,212.29,248.75z"/>
		<path class="st1" d="M498.68,249.4L374.2,259.44c0.49,0.84,0.88,1.74,1.15,2.69l3.16,11.19c0.1,0.34,0.18,0.68,0.24,1.02
			l4.32,23.15c0.48,2.57,0.08,5.23-1.15,7.54l-9.75,18.42c-1.55,2.94-4.3,5.07-7.53,5.85l-17.79,4.29c-0.24,0.06-0.47,0.12-0.7,0.19
			l-29.01,8.96c-1.79,0.55-3.69,0.66-5.53,0.32l-21.19-0.63l61.88,85.64l191.82-81.59L498.68,249.4z"/>
		<path class="st2" d="M383.08,297.5l-4.32-23.15c-0.06-0.34-0.14-0.69-0.24-1.02l-3.16-11.19c-0.27-0.95-0.66-1.85-1.15-2.69
			c-1.39-2.38-3.6-4.22-6.27-5.13l-26.76-9.11c-4.75-1.62-7.92-6.11-7.85-11.13l0.06-4.48c0.06-4.13-2.09-7.98-5.63-10.1l-5.29-3.16
			c-2.92-1.75-6.46-2.12-9.68-1.03l-13.68,4.64c-5.78,1.96-12.1-0.9-14.43-6.54c-3.01-7.27-12.22-9.49-18.21-4.4l-6.91,5.88
			c-0.7,0.59-1.47,1.1-2.29,1.52l-14.33,7.23L239,225.6c-0.89,0.45-1.72,1.01-2.46,1.67l-24.25,21.48
			c-0.49,0.43-0.94,0.91-1.34,1.42c-1.13,1.4-1.92,3.05-2.3,4.83l-8.9,41.5c-0.83,3.88,0.38,7.92,3.22,10.7l15.09,1.42
			c3.4-1.55,7.03-2.36,10.67-2.45c4.39-0.11,8.79,0.83,12.82,2.83l2.32,2.32c4.65,4.65,7,21.95,13.39,23.49
			c3.27,0.79,7.37,2.19,11.03,3.56c6.58,2.45,13.51,3.82,20.53,4.03l1.62,0.05l21.19,0.63c1.84,0.34,3.74,0.23,5.53-0.32l29.01-8.96
			c0.23-0.07,0.47-0.14,0.7-0.19l17.79-4.29c3.23-0.78,5.97-2.91,7.53-5.85l9.75-18.42C383.15,302.73,383.56,300.07,383.08,297.5z"
			/>
	</g>
	<text transform="matrix(1 0 0 1 177.7212 184.0469)" class="st2 st3 st4">영광</text>
	<text transform="matrix(1 0 0 1 110.5391 323.0117)" class="st2 st3 st4">무안</text>
	<text transform="matrix(1 0 0 1 125.4907 442.457)" class="st2 st3 st4">목포</text>
	<text transform="matrix(1 0 0 1 239.8086 535.7136)" class="st2 st3 st4">해남</text>
	<text transform="matrix(1 0 0 1 359.1807 577.9248)" class="st2 st3 st4">완도</text>
	<text transform="matrix(1 0 0 1 36.3335 528.302)" class="st2 st3 st4">흑산도</text>
	<text transform="matrix(1 0 0 1 144.748 596.9541)" class="st2 st3 st4">진도</text>
	<text transform="matrix(1 0 0 1 242.9385 407.9543)" class="st2 st3 st4">춘양</text>
	<text transform="matrix(1 0 0 1 341.4917 381.2136)" class="st2 st3 st4">보성</text>
	<text transform="matrix(1 0 0 1 412.7554 455.4636)" class="st2 st3 st4">장흥</text>
	<text transform="matrix(1 0 0 1 513.011 531.1506)" class="st2 st3 st4">고흥</text>
	<text transform="matrix(1 0 0 1 556.5837 208.9712)" class="st2 st3 st4">승주</text>
	<text transform="matrix(1 0 0 1 571.241 300.426)" class="st2 st3 st4">순천</text>
	<text transform="matrix(1 0 0 1 672.7827 275.8049)" class="st2 st3 st4">광양</text>
	<text transform="matrix(1 0 0 1 612.6411 378.1689)" class="st2 st3 st4">여수공항</text>
	<text transform="matrix(1 0 0 1 636.6592 447.6316)" class="st2 st3 st4">여수</text>
	<path class="st2" d="M168.07,174.89c0-3.74-2.88-6.78-6.43-6.78s-6.43,3.03-6.43,6.78c0,3.44,2.44,6.28,5.59,6.71v6.51h1.68v-6.51
		C165.64,181.17,168.07,178.34,168.07,174.89z"/>
	<path class="st2" d="M98.45,313.86c0-3.74-2.88-6.78-6.43-6.78s-6.43,3.03-6.43,6.78c0,3.44,2.44,6.28,5.59,6.71v6.51h1.68v-6.51
		C96.01,320.14,98.45,317.3,98.45,313.86z"/>
	<path class="st2" d="M114.36,433.3c0-3.74-2.88-6.78-6.43-6.78c-3.55,0-6.43,3.03-6.43,6.78c0,3.44,2.44,6.28,5.59,6.71v6.51h1.68
		v-6.51C111.93,439.58,114.36,436.75,114.36,433.3z"/>
	<path class="st2" d="M70.96,552.44c0-3.74-2.88-6.78-6.43-6.78s-6.43,3.03-6.43,6.78c0,3.44,2.44,6.28,5.59,6.71v6.51h1.68v-6.51
		C68.53,558.72,70.96,555.88,70.96,552.44z"/>
	<path class="st2" d="M169.98,618.24c0-3.74-2.88-6.78-6.43-6.78s-6.43,3.03-6.43,6.78c0,3.44,2.44,6.28,5.59,6.71v6.51h1.68v-6.51
		C167.54,624.52,169.98,621.68,169.98,618.24z"/>
	<path class="st2" d="M265.04,555.13c0-3.74-2.88-6.78-6.43-6.78c-3.55,0-6.43,3.03-6.43,6.78c0,3.44,2.44,6.28,5.59,6.71v6.51h1.68
		v-6.51C262.6,561.41,265.04,558.57,265.04,555.13z"/>
	<path class="st2" d="M305.22,398.8c0-3.74-2.88-6.78-6.43-6.78s-6.43,3.03-6.43,6.78c0,3.44,2.44,6.28,5.59,6.71v6.51h1.68v-6.51
		C302.78,405.08,305.22,402.24,305.22,398.8z"/>
	<path class="st2" d="M366.72,398.8c0-3.74-2.88-6.78-6.43-6.78c-3.55,0-6.43,3.03-6.43,6.78c0,3.44,2.44,6.28,5.59,6.71v6.51h1.68
		v-6.51C364.28,405.08,366.72,402.24,366.72,398.8z"/>
	<path class="st2" d="M398.9,446.31c0-3.74-2.88-6.78-6.43-6.78s-6.43,3.03-6.43,6.78c0,3.44,2.44,6.28,5.59,6.71v6.51h1.68v-6.51
		C396.46,452.59,398.9,449.75,398.9,446.31z"/>
	<path class="st2" d="M384.41,537.51c0-3.74-2.88-6.78-6.43-6.78c-3.55,0-6.43,3.03-6.43,6.78c0,3.44,2.44,6.28,5.59,6.71v6.51h1.68
		v-6.51C381.97,543.79,384.41,540.95,384.41,537.51z"/>
	<path class="st2" d="M501.42,522c0-3.74-2.88-6.78-6.43-6.78c-3.55,0-6.43,3.03-6.43,6.78c0,3.44,2.44,6.28,5.59,6.71v6.51h1.68
		v-6.51C498.98,528.27,501.42,525.44,501.42,522z"/>
	<path class="st2" d="M625.5,438.48c0-3.74-2.88-6.78-6.43-6.78c-3.55,0-6.43,3.03-6.43,6.78c0,3.44,2.44,6.28,5.59,6.71v6.51h1.68
		v-6.51C623.06,444.76,625.5,441.92,625.5,438.48z"/>
	<path class="st2" d="M598.6,369.02c0-3.74-2.88-6.78-6.43-6.78c-3.55,0-6.43,3.03-6.43,6.78c0,3.44,2.44,6.28,5.59,6.71v6.51h1.68
		v-6.51C596.16,375.29,598.6,372.46,598.6,369.02z"/>
	<path class="st2" d="M563.39,291.27c0-3.74-2.88-6.78-6.43-6.78s-6.43,3.03-6.43,6.78c0,3.44,2.44,6.28,5.59,6.71v6.51h1.68v-6.51
		C560.96,297.55,563.39,294.71,563.39,291.27z"/>
	<path class="st2" d="M664.62,266.65c0-3.74-2.88-6.78-6.43-6.78s-6.43,3.03-6.43,6.78c0,3.44,2.44,6.28,5.59,6.71v6.51h1.68v-6.51
		C662.18,272.93,664.62,270.09,664.62,266.65z"/>
	<path class="st2" d="M619.07,199.82c0-3.74-2.88-6.78-6.43-6.78s-6.43,3.03-6.43,6.78c0,3.44,2.44,6.28,5.59,6.71v6.51h1.68v-6.51
		C616.63,206.1,619.07,203.26,619.07,199.82z"/>
</g>
</svg>
