<?xml version="1.0" encoding="utf-8"?>
<!-- Generator: Adobe Illustrator 25.3.1, SVG Export Plug-In . SVG Version: 6.00 Build 0)  -->
<svg version="1.1" id="Layer_1" xmlns="http://www.w3.org/2000/svg" xmlns:xlink="http://www.w3.org/1999/xlink" x="0px" y="0px"
	 viewBox="0 0 750 750" style="enable-background:new 0 0 750 750;" xml:space="preserve">
<style type="text/css">
	.st0{fill:#FFFFFF;stroke:#153DB3;stroke-width:2;stroke-linejoin:bevel;stroke-miterlimit:10;}
	.st1{fill:#153DB3;}
	.st2{font-family:'NanumGothicBold';}
	.st3{font-size:20px;}
</style>
<g>
	<g>
		<polygon class="st0" points="189.86,201.13 68.57,220.48 101.08,275.89 196.46,248.26 226.74,190.46 		"/>
		<polygon class="st0" points="25.58,415.07 156.88,453.93 226.74,415.07 156.88,453.93 92.73,614.2 196.9,516.75 302.17,527.21 
			169.25,326.4 		"/>
		<polygon class="st0" points="25.58,415.07 0,534.04 92.73,614.2 156.88,453.93 		"/>
		<polygon class="st0" points="636.22,335.92 750,266.99 739.03,190.46 646.06,190.46 542.26,221.25 169.25,326.4 302.17,527.21 
			406.91,385.67 		"/>
		<polygon class="st0" points="406.91,385.67 603.37,459.03 636.22,335.92 		"/>
		<polygon class="st0" points="302.17,527.21 340.5,610.5 471.13,593.14 505.98,422.67 471.13,593.14 549.97,582.67 588.6,631.19 
			625.5,553.46 603.37,459.03 406.91,385.67 		"/>
		<polygon class="st0" points="450.4,147.15 387.23,162.18 333.96,118.81 284.1,118.81 226.74,190.46 196.46,248.26 169.25,326.4 
			542.26,221.25 		"/>
	</g>
	<text transform="matrix(1 0 0 1 126.3779 244.6768)" class="st1 st2 st3">군산</text>
	<text transform="matrix(1 0 0 1 255.3921 255.3203)" class="st1 st2 st3">익산</text>
	<text transform="matrix(1 0 0 1 389.3276 343.2234)" class="st1 st2 st3">전주</text>
	<text transform="matrix(1 0 0 1 139.6387 408.7678)" class="st1 st2 st3">부안</text>
	<text transform="matrix(1 0 0 1 58.3657 534.5156)" class="st1 st2 st3">변산</text>
	<text transform="matrix(1 0 0 1 198.0645 494.3982)" class="st1 st2 st3">정읍</text>
	<text transform="matrix(1 0 0 1 426.5073 487.637)" class="st1 st2 st3">임실</text>
	<text transform="matrix(1 0 0 1 545.2515 395.2119)" class="st1 st2 st3">장수</text>
	<text transform="matrix(1 0 0 1 535.8896 552.2581)" class="st1 st2 st3">남원</text>
	<path class="st1" d="M48.02,525.36c0-3.74-2.88-6.78-6.43-6.78c-3.55,0-6.43,3.03-6.43,6.78c0,3.44,2.44,6.28,5.59,6.71v6.51h1.68
		v-6.51C45.59,531.64,48.02,528.8,48.02,525.36z"/>
	<path class="st1" d="M127.93,399.61c0-3.74-2.88-6.78-6.43-6.78s-6.43,3.03-6.43,6.78c0,3.44,2.44,6.28,5.59,6.71v6.51h1.68v-6.51
		C125.5,405.89,127.93,403.06,127.93,399.61z"/>
	<path class="st1" d="M189.94,485.25c0-3.74-2.88-6.78-6.43-6.78c-3.55,0-6.43,3.03-6.43,6.78c0,3.44,2.44,6.28,5.59,6.71v6.51h1.68
		v-6.51C187.5,491.52,189.94,488.69,189.94,485.25z"/>
	<path class="st1" d="M117.75,235.52c0-3.74-2.88-6.78-6.43-6.78s-6.43,3.03-6.43,6.78c0,3.44,2.44,6.28,5.59,6.71v6.51h1.68v-6.51
		C115.31,241.8,117.75,238.97,117.75,235.52z"/>
	<path class="st1" d="M245.3,246.17c0-3.74-2.88-6.78-6.43-6.78s-6.43,3.03-6.43,6.78c0,3.44,2.44,6.28,5.59,6.71v6.51h1.68v-6.51
		C242.87,252.44,245.3,249.61,245.3,246.17z"/>
	<path class="st1" d="M378.74,334.07c0-3.74-2.88-6.78-6.43-6.78s-6.43,3.03-6.43,6.78c0,3.44,2.44,6.28,5.59,6.71v6.51h1.68v-6.51
		C376.31,340.35,378.74,337.51,378.74,334.07z"/>
	<path class="st1" d="M451.66,511.41c0-3.74-2.88-6.78-6.43-6.78c-3.55,0-6.43,3.03-6.43,6.78c0,3.44,2.44,6.28,5.59,6.71v6.51h1.68
		v-6.51C449.22,517.69,451.66,514.85,451.66,511.41z"/>
	<path class="st1" d="M521.56,542.17c0-3.74-2.88-6.78-6.43-6.78c-3.55,0-6.43,3.03-6.43,6.78c0,3.44,2.44,6.28,5.59,6.71v6.51h1.68
		v-6.51C519.12,548.45,521.56,545.61,521.56,542.17z"/>
	<path class="st1" d="M569.55,415.55c0-3.74-2.88-6.78-6.43-6.78c-3.55,0-6.43,3.03-6.43,6.78c0,3.44,2.44,6.28,5.59,6.71v6.51h1.68
		v-6.51C567.11,421.82,569.55,418.99,569.55,415.55z"/>
</g>
</svg>
