<?xml version="1.0" encoding="utf-8"?>
<!-- Generator: Adobe Illustrator 25.3.1, SVG Export Plug-In . SVG Version: 6.00 Build 0)  -->
<svg version="1.1" id="Layer_1" xmlns="http://www.w3.org/2000/svg" xmlns:xlink="http://www.w3.org/1999/xlink" x="0px" y="0px"
	 viewBox="0 0 478.98 690.93" style="enable-background:new 0 0 478.98 690.93;" xml:space="preserve">
<style type="text/css">
	.st0{fill:#30CE2C;}
	.st1{fill:#30CE2C;stroke:#30CE2C;stroke-width:1.0385;}
	.st2{fill:#008BEE;stroke:#008BEE;stroke-width:0.5187;stroke-linecap:round;stroke-linejoin:round;stroke-miterlimit:10;}
	.st3{fill:#FF7900;stroke:#FF7900;stroke-width:0.5187;stroke-linecap:round;stroke-linejoin:round;stroke-miterlimit:10;}
	.st4{fill:#FC3E55;stroke:#FC3E55;stroke-width:0.5187;stroke-linecap:round;stroke-linejoin:round;stroke-miterlimit:10;}
	.st5{fill:#FFC035;stroke:#FFC035;stroke-width:0.5187;stroke-linecap:round;stroke-linejoin:round;stroke-miterlimit:10;}
	.st6{fill:#9A41FF;stroke:#9A41FF;stroke-width:1.0385;}
	.st7{fill:#FFFFFF;stroke:#1D1D1B;stroke-miterlimit:10;}
	.st8{fill:#110BFF;}
	.st9{fill:none;stroke:#153DB3;stroke-miterlimit:10;}
	.st10{fill:#153DB3;}
	.st11{fill:#FFFFFF;}
	.st12{fill:none;stroke:#FFFFFF;stroke-width:5;stroke-miterlimit:10;}
	.st13{fill:#FFFFFF;stroke:#153DB3;stroke-miterlimit:10;}
	.st14{fill:#153DB3;stroke:#153DB3;stroke-miterlimit:10;}
	.st15{fill:none;}
	.st16{fill:#FFFFFF;stroke:#153DB3;stroke-width:2;stroke-linejoin:bevel;stroke-miterlimit:10;}
	.st17{fill:#FFFFFF;stroke:#153DB3;stroke-width:2;stroke-linecap:square;stroke-linejoin:bevel;stroke-miterlimit:10;}
	.st18{fill:#FFFFFF;stroke:#153DB3;stroke-width:3;stroke-linejoin:bevel;stroke-miterlimit:10;}
	.st19{fill:#FFFFFF;stroke:#153DB3;stroke-width:3;stroke-linecap:square;stroke-linejoin:bevel;stroke-miterlimit:10;}
	.st20{fill:#153DB3;stroke:#FFFFFF;stroke-width:3;stroke-linejoin:bevel;stroke-miterlimit:10;}
	.st21{fill:#153DB3;stroke:#FFFFFF;stroke-width:3;stroke-linecap:square;stroke-linejoin:bevel;stroke-miterlimit:10;}
</style>
<g>
	<g>
		<path class="st0" d="M1727.73-906.94c-4.15,1.54,8.22,7.52,8.61,1.94C1736.71-910.16,1730.34-907.91,1727.73-906.94z"/>
		<path class="st0" d="M1722.93-903.37c3.33-0.23,1.99,5.96-0.69,5.69C1719.52-897.96,1720.69-903.22,1722.93-903.37z"/>
		<path class="st1" d="M1911.89-848.04c-2.76-2.33-4.29-8.04-6.04-11.4c-2.8-5.37-0.23-8.01-1.45-13.46c-1.05-4.69-3.55-3-5.97-5.82
			c-1.7-1.98-1.58-4.76-3.52-6.56c-1.57-1.45-3.99-1.29-5.69-2.57c-0.38,1.66-7.09,13.12-8.76,13.18
			c-5.1,0.19-6.46-11.12-9.46-15.28c-5.77,3.35-1.12,12.2-4.96,16.72c-7.81-4.23-7.82-14.66-12.09-21.38
			c0.03-0.52,0.06-1.04,0.09-1.56c0.61-1.97-0.41-2.91-3.05-2.81c-1.1-1.61-2.19-1.87-3.1-3.74c-2.4-4.96,0.36-10.98-2.46-16.26
			c-2.29-4.29-6.04-5.68-6.76-10.82c-0.66-4.68,2.16-10.2,2.28-15.01c0.14-5.94-7.76-23.25,1.73-24.56c2.91-0.4,8.68,4.78,11.17,5.8
			c8.78,3.62,6.31-0.17,11-6.02c2.74-3.42,2.43-2.9,6.31-2.99c1.71-0.04,2.08,2.6,4.27,1.38c2.15-1.19,1.43-4.14,1-6.11
			c-1.54-7-11.41-10.46-15.35-15.52c-1.92-2.47-3.23-4.5-4.91-6.37c-3.78-4.21-5.93-3.44-10.1-5.72c-2.51-1.38-4.17-4.89-6.95-5.73
			c-3.31-1-6.98,1.46-9.96,2.54c-9.65,3.49-18.62,5.03-27.87,8.98c-6.32,2.7-3.36,5.41-6.13,9.13c-1.42,1.9-1.9,2.79-3.36-0.11
			c-4.08-8.12,1.9-19.48-9.73-24.09c-2.11-0.84-7.51-2.79-9.24-2.99c-1.55-0.18-3.46,0.6-5.04,0.4c-6.46-0.83-5.16-2.37-10.49-5.4
			c-0.96-0.55-2.97-0.64-3.69-1.15c0.35,0.25-5.98-4.26-5.39-4.04c-2.84-1.03-5.14-1.6-7.29,1.13c-3.89,4.94,1.52,6.88,1.93,11.18
			c0.29,3.02,1.54,3.43-2.04,2.78c-0.41-0.07-2.26-4.29-3.05-4.92c-2.99-2.4-5.85-2.96-9.71-2.88c-3.36,0.07-9.15,0.44-9.13,4.73
			c0-0.57,7.04,9.09,7.44,9.47c2.33,2.24,7.42-0.15,7.34,4.81c-0.08,4.43-5.79,2.85-8.32,4.65c-1.31,0.93,0.1,2.48-0.9,3.68
			c-1.27,1.52-3.16,1.72-4.52,3c-2.05,1.93-1.36,5.25-4.53,3.7c-4.03-1.98,2.02-9.03,2.31-11.39c0.61-4.99-2.61-11.02-2.72-16.17
			c-2.73-1.58-4.1,18.71-6.48,19.65c-5.94,2.33-3.68-7.08-7.48-7.53c-5.67-0.67,0.24,16.12-0.05,16.59
			c-1.84,2.97-4.56-2.2-5.57-1.98c-5.61,1.2,0.12,0.2-3.17,4.08c-1.95,2.3-3.92,5.2-4.49,8.06c0.16-0.82,1.21,6.29,0.67,5.19
			c0.48,0.98-2.17,4.82,1.87,3.24c2.43-0.94,0.96-5.01,2.97-6.04c2.77-1.43,7.09,0.63,7.14,3.86c0.04,2.21-11.83,5.32-5.78,8.36
			c5.89,2.95,8.29-8.32,12.34-8.02c3.65,0.27,0.61,1.8,1.61,3.8c-0.5,1.14-0.63,2.31-0.4,3.53c0.45,1.2,1.32,1.84,2.61,1.9
			c1.5,3.05,3.12,1.24,3.19,5.51c0.05,3.09-3.16,4.22-1.82,7.47c0.8,1.93,4.24,2.61,5.36,5.17c1.45,3.3,0.28,9.21,0.86,12.85
			c1,6.26,1.99,15.44,9.84,15.94c9.23,0.59,6.16-8.56,3.92-14.71c-2.39-6.57-4.27-13.32-6.62-19.84
			c-0.62-1.72-8.67-19.64-4.69-18.72c2.5,0.58,1.85,6.99,2.36,8.68c1.2,3.95,1.84,5.04,5.24,6.95c8.2,4.61,5.09-1.61,6.43-7.2
			c2.56-10.67,3.95,3.7,3.51,7.83c-0.9,8.48,2.02,14.44,3.15,22.39c0.39,2.72,1.98,5.75,2.22,8.24c0.29,3.12-2.4,7.21-1.41,10.08
			c0.96,2.77,4.7,2.29,5.94,4.27c2.83,4.54,0.45,0.77-0.77,3.73c-1.38,3.35-4.12,0.82-2.55,6.2c0.76,2.6,5.08,3.3,5.13,6.69
			c0.04,2.51-3.25,3.14-3.31,5.35c-0.07,3,3.1,3.65,2.74,6.47c-0.29,2.23-7.94,7.16-6.7,9.54c1.46,2.78,4.28-0.18,6.54,0.31
			c2.24,0.48,4.04,1.96,6,3.36c2.96,2.11,6.09,3.76,7.8,7.87c2.13,5.12,1.27,13.13,9.66,12.82c3.45-0.13,4.31-2.05,7.22-3.31
			c2.76-1.2,6.19-0.87,8.54-1.8c6.81-2.68,8.58-10.44,12.37-15.71c5.77-8.03,10.81-4.03,18.94-3.63c2.21,0.11,6.21-1.36,8.23-0.25
			c2.86,1.56,2.99,6.22,6.16,8.19c6.05,3.74,16.8,1.43,22.67-0.94c4.39-1.77,3.76-3.92,7.09-0.62c0.63,0.62-0.01,3.28,0.54,4.22
			c1.29,2.17,2.59,2.47,4.42,4.16c6.11,5.64,9.86,12.35,19.09,12.71C1890.79-838.56,1913.75-846.49,1911.89-848.04z"/>
		<path class="st0" d="M1733.08-1030.72c2.93,0.59,6.13,5.89,1.36,5.65C1731.19-1025.23,1730.26-1031.28,1733.08-1030.72z"/>
	</g>
	<path class="st2" d="M2242.28-1175.35c-6.64,10.72-26.88-1.4-16.89-10.05C2233.84-1192.7,2249.95-1187.72,2242.28-1175.35z"/>
	<path class="st2" d="M1709.4-764.69c-3,1.71-1.89-7.17,2.35-8.51C1720.67-776.02,1712.7-766.56,1709.4-764.69z"/>
	<path class="st3" d="M1677.02-727.16c3.4,4.13-4.2,2.46-3.87,2.3C1672.37-724.49,1672.26-732.94,1677.02-727.16z"/>
	<g>
		<path class="st4" d="M1811.76-427.24c1.69,4.74-3.74,3.97-4.97,1.13C1805.4-429.32,1810.47-430.86,1811.76-427.24z"/>
		<path class="st4" d="M1785.96-436.11c-9.52,0.97-17.42,2.5-26.33,5.63c-7.5,2.64-14.35,0.93-22.06,4.04
			c-11.59,4.68-21.97,6.63-30.98,15.94c-4.39,4.53-11.05,9.26-11.75,15.62c-0.87,7.86,5.53,13.63,11.35,17.73
			c9.42,6.65,4.89-2.64,12.51-4.76c0.61-0.17,6.58,0.81,7.34,0.87c2.21,0.19,3.86-0.15,6.47,0.34c1.03,0.19,3.14-0.16,4.32-0.07
			c0.76,1.04,1.78,1.65,3.04,1.85c1.31-0.84,2.7-1.53,4.16-2.07c5.77-0.59,10.87,2.02,16.33-0.57c1.24-1.39,2.46-2.81,3.64-4.26
			c1.47-1.23,3.05-1.38,4.73-0.45c2.01-0.7,5.02-1.48,7.42-2.21c0.99-0.3,4.51-0.82,5.27-0.99c0.23-1.82,1.32-2.58,3.27-2.31
			c1.71,0.77,3.42,0.83,5.15,0.2c4.75-2.01,5.59-7.43,8.15-10.99c3.77-5.25,7.99-6.45,7.09-13.55c-0.67-5.29-2.71-11.29-7.12-14.04
			c-0.61-0.38-4.91-1.26-5.98-1.77C1789.3-433.18,1790.07-436.53,1785.96-436.11z"/>
	</g>
	<g>
		<path class="st3" d="M1934.8-569.51c1.22,2.77-2.13,8.68-3.41,4.29C1930.88-566.96,1933.24-573.04,1934.8-569.51z"/>
		<g>
			<path class="st3" d="M1687.85-679.08c1.29,7.68-13.79,4.13-8.87-3.36c0.79-1.21,9.42-9.44,11.19-7.25
				C1691.25-688.36,1687.45-681.48,1687.85-679.08z"/>
			<path class="st3" d="M1694.99-671.93c-1.47-0.79-10.52-1.72-2.38-3.94C1698.87-677.57,1700.38-669.04,1694.99-671.93z"/>
			<path class="st3" d="M1688.94-665.84c-5.39-0.6,1.3-6.67,5.64-2.1c1.58,1.66,3.23,3.36,0.42,5.05
				C1692.55-661.42,1691.35-665.57,1688.94-665.84z"/>
			<path class="st3" d="M1709.4-666.04c2.29,0.67,1.84,3.51-0.36,3.88C1704.97-661.48,1706.45-666.9,1709.4-666.04z"/>
			<path class="st3" d="M1590.8-615.21c3.69-5.15,6.78,2.16,3.77,5.37C1591-606.02,1588.26-611.65,1590.8-615.21z"/>
			<path class="st3" d="M1621.25-609.63c-0.36,1.94-4.46,8.17-0.35,9.58c2.53,0.87,4.8-3.78,5.91-5.47c1.7-2.61,5.63-4.01,1.54-7.26
				C1625.14-615.34,1621.87-612.97,1621.25-609.63z"/>
			<path class="st3" d="M1648.33-596.68c-5.32,1.51-6.4-2.65-1.12-4.02C1651.61-601.83,1652.86-597.97,1648.33-596.68z"/>
			<path class="st3" d="M1667.13-624.94c-1.7,1.06-4.1,0.33-5.57,1.77c-1.19,1.16,0.68,3.85-1.01,5.17c-4.4,3.44-7.57-4.02-4.44-7.4
				c1.37-1.47,3.4-0.25,4.75-1.14c0.72-0.48,2.69-2.62,3.43-2.91c2.19-0.86,3.14-4.57,5.03-1.5
				C1670.14-629.61,1668.22-625.61,1667.13-624.94z"/>
			<path class="st3" d="M1663.94-614.34c-1.48,1.34-3.47,0.21-4.55,2.21c-2.02,3.72,1.65,4.92,4.39,4.83
				C1671.53-607.55,1670.94-620.7,1663.94-614.34z"/>
			<path class="st3" d="M1675.5-590.9c-4.37,0.59-5.45-10.84-0.39-10.43c-1.14-0.09,1.94,5.48,1.84,4.96
				C1677.26-594.71,1680.73-591.61,1675.5-590.9z"/>
			<path class="st3" d="M1681.66-595.18c0.48,3.44-8.22,14.16,0.97,6.93c2.57-2.02,4.77-3.66,3.39-7.76
				c0.21,0.63-5.77-5.59-5.22-5.36C1676.4-603.22,1681.71-594.81,1681.66-595.18z"/>
			<path class="st3" d="M1690.83-605.57c-1.44,2.26-3.97,3.37-0.85,5.82c-0.75-0.59,6.03-0.75,5.42-0.24
				C1699.3-603.2,1693.88-610.46,1690.83-605.57z"/>
			<path class="st3" d="M1681.6-644.29c-0.73,2.88-4.1,3.36-6.24,1.53c-3.22-2.74,0.52-6.22,1.46-7.4
				C1682.99-657.92,1683.24-650.78,1681.6-644.29z"/>
			<path class="st3" d="M1693.1-644.86c2.41,1.15-3.03,7.63-5.47,2.67C1685.59-646.33,1690.84-645.94,1693.1-644.86z"/>
			<path class="st3" d="M1685.35-639.14c-0.97,0.3-8.95-0.49-4.81,4.08C1684.78-630.37,1690-640.57,1685.35-639.14z"/>
			<path class="st3" d="M1687.98-627.02c-6.23,2.17,2.08-5.77,4.22-5.3c2.15,0.48,3.23,1.82,2.55,4.31
				C1693.57-623.67,1690.43-627.87,1687.98-627.02z"/>
			<path class="st3" d="M1683.21-618.69c1.03,2.56,2.94,0.61,4.45,1.22c-1.29-0.52,5.57,2.2,4.4,2.29c2.2-0.17,4.72,0.45,3.68-4.1
				C1694.53-624.52,1680.15-626.28,1683.21-618.69z"/>
			<path class="st3" d="M1706.66-653.39c2.96,2.48-2.66,3.83-4.25,2.48c-0.35-0.3-3.69-5.29-0.69-4.78
				C1701.83-655.67,1706.59-653.45,1706.66-653.39z"/>
			<path class="st3" d="M1712.66-657.61c-1.88-6.77-5.1,3.6-0.86,3.81C1712.93-654.76,1713.22-656.03,1712.66-657.61z"/>
			<path class="st3" d="M1715.31-650.51c-1.16,0.32-3.85,5.79-5.54,7.08c-2.31,1.77-9.97,3.74-2.59,5.26
				c2.23,0.46,9.86-2.87,11.11-4.42C1720.43-645.27,1720.62-651.98,1715.31-650.51z"/>
			<path class="st3" d="M1723.05-636.54c0.64-3.64,0.4-9.53-3.19-3.87C1717.02-635.92,1721.59-628.24,1723.05-636.54z"/>
			<path class="st3" d="M1714.95-626.46c0.32-2.44,4.43-1.62,4,0.66C1718.58-623.78,1714.65-624.21,1714.95-626.46z"/>
			<path class="st3" d="M1713.78-674.73c-1.05,0.44-5.58,1.26-5.81,1.31c-1.32,0.32-0.12,2.87-2.72,2.61
				c-0.87-0.09-0.93-3.58-1.57-4.11c-1.85-1.5-4.36-0.61-6.54-2.52c-3.27-2.87-2.99-5.71,1.55-6.74c1.8-0.41,4.75,2.31,6.21,1.55
				c1.64-0.86,0.87-2.99,1.72-3.74c2.37-2.1-1.99-1.75,3.4-4.01c1.27-0.53,2.24,0.08,3.46-0.02c3.16-0.26,5.24-0.2,6.87,2.21
				c2.2,3.26-0.76,6.22-1.28,7.25c0.3-0.59-2.08,0.21-2.42,0.59C1714.9-678.36,1717.56-676.32,1713.78-674.73z"/>
			<path class="st3" d="M1669.91-550.22c-2.35,2.26,4.5,2.6,5.23,3.33c2.66,2.7-1.61,5.34,3.99,6.11c3.88,0.54,7.13-2.3,5.24-5.47
				C1683.28-548.06,1671.25-551.51,1669.91-550.22z"/>
			<path class="st3" d="M1714.29-589.1c-0.85-2.67-5.29-5.04-7.54-2.54c-1.17,1.3,1.48,4.06,0.44,5.94
				c-0.8,1.46-5.98,3.35-7.63,4.68c-2.38,1.92-4.93,4.43-7.56,6.5c-5,3.94-11.46,10.57-4.91,16.25c0.48,0.41,6.59,3.22,7,3.28
				c3.87,0.64,3.4-0.64,6.8-1.29c1.91-0.37,3.91-1.16,6.21-1.1c-0.74-0.02,6.35,0.48,4.74,0.8c3.98-0.79,5.51-3.71,8.65-7.45
				c1.09-1.3,2.93-2.87,3.66-4.56c0.36-0.82,1.57-9.48,1.41-10.21C1724.56-583.35,1719.88-587.12,1714.29-589.1z"/>
			<path class="st3" d="M1718.92-485.83c-4.87-3.13-6.36,1.09-1.72,3.97c1.61,1-0.19,3.56,3.09,1.61
				C1723.11-481.93,1721.01-484.49,1718.92-485.83z"/>
			<path class="st3" d="M1756.89-525.46c2.11-1.63,4.1,1.22,3.75-3.65c-0.26-3.61-6.15-4.67-8.41-2.53
				C1747.98-527.61,1752.07-521.74,1756.89-525.46z"/>
			<path class="st3" d="M1749.52-513.96c-7.17,1.18-6.35-6.16-1.27-7.33C1752.92-522.37,1756.52-515.11,1749.52-513.96z"/>
			<path class="st3" d="M1766.32-524.33c-3.21,1.96-5.63,14.75,0.97,12.23C1768.98-512.75,1771.95-527.77,1766.32-524.33z"/>
			<path class="st3" d="M1784.45-525.51c-0.68,0.54-2.46,2.86-2.75,3.02c-1.79,1-2.37-5-0.9-6.3
				C1782.63-530.41,1786.34-527,1784.45-525.51z"/>
			<path class="st3" d="M1802.14-528.66c-2.72-0.98-4.61,0.01-6.13,2.03c-3.85,5.12-0.54,5.14,2.08,6.59
				C1805.51-515.95,1809.04-526.18,1802.14-528.66z"/>
			<path class="st3" d="M1806.42-491.81c2.74,1.22,0.62,6.14-1.86,5.12C1800.86-488.23,1802.31-493.63,1806.42-491.81z"/>
			<path class="st3" d="M1857.64-497.4c-2.61-5.27,0.33-5.01,3.11-4.45C1868.55-500.27,1860.34-491.95,1857.64-497.4z"/>
			<path class="st3" d="M1854.85-533c-1.16,0.88-5.49,7.36-5.88,1.37C1848.53-538.49,1857.56-535.07,1854.85-533z"/>
			<path class="st3" d="M1772.22-544.96c-13.19-6.52-6.3-24.7,3.22-15.81c2.3,2.15,1.05,4.26,1.91,6.91
				c0.71,2.2,3.05,4.55,3.54,6.71C1782.52-539.97,1776.61-542.79,1772.22-544.96z"/>
			<path class="st3" d="M1782.61-550.2c-1.25,2.43,4.28,2.14,4.91,2.41c1.15-0.03,2.28-0.17,3.4-0.43c1.49,0.25,2.11,1.02,1.88,2.3
				c1.9,0.42,0.94,1.82,4.38,0.38c-0.66,0.28,2.77-4.48,2.38-3.2c0.41-1.35,1.06-5.01-3.56-5.16c-2.61-0.08-2.93,2.64-5.19,3.15
				C1788.42-550.2,1784.25-553.4,1782.61-550.2z"/>
			<path class="st3" d="M1791.13-557.22c-13.62,1.95-12.11-6.85-2.16-9.78c4.07-1.2,5.35-0.45,5.49,4.09
				C1794.51-561.28,1796.24-557.95,1791.13-557.22z"/>
			<path class="st3" d="M1797.71-557.67c1.3,3.06,9.05,5.09,10.84,1.56C1811.43-561.82,1795.23-563.51,1797.71-557.67z"/>
			<path class="st3" d="M1818.54-547.58c-1.04-4.3-9.19-4.46-8.04,0.65C1811.25-543.59,1819.14-545.07,1818.54-547.58z"/>
			<path class="st3" d="M1827.42-552.57c-0.33-2.1-11.45-6.34-9.43-0.97C1818.73-551.58,1828.22-547.54,1827.42-552.57z"/>
			<path class="st3" d="M1825.09-571.32c3.52,1.4,2.26,6.95-1.18,5.8C1819.85-566.89,1820.19-573.27,1825.09-571.32z"/>
			<path class="st3" d="M1846.55-566.98c-3.83,1.14-12.5,1.44-14.71-2.66c-2.3-4.27,1.03-6.18,4.95-7.3c0.5-0.14,4.98-0.1,5.94-0.09
				c2.23,0.02,3.17-1.56,5.49,0.16C1851.52-574.41,1850.48-568.16,1846.55-566.98z"/>
			<path class="st3" d="M1890.19-571.89c10.55,2.42,3.94,13.59-3.06,8.81c0.38,0.26-2.55-7.15-2.67-6.27
				C1884.81-572.04,1885.34-573,1890.19-571.89z"/>
			<path class="st3" d="M1882.44-584.82c0.51-0.22,1.02-0.43,1.53-0.65c2.08,0.94-0.61,4.69,0.64,6.16
				c0.84,0.98,4.13-1.29,5.39,0.85C1890.93-576.89,1874.44-575.22,1882.44-584.82z"/>
			<path class="st3" d="M1922.96-580.68c-2.65-1.76-4-5.95-0.42-7.71c4.12-2.02,2.55,1.51,4.25,3.26
				C1931.65-580.13,1930.41-575.71,1922.96-580.68z"/>
			<path class="st3" d="M1921.04-647.95c6.24-0.12-0.61,4.33-0.6,4.1C1920.46-644.38,1916.15-647.86,1921.04-647.95z"/>
			<path class="st3" d="M1920.46-653.05c-0.27,1.36,6.12,4.58,7.5,2.78C1929.5-652.27,1921.38-657.74,1920.46-653.05z"/>
			<path class="st3" d="M1927.02-610.84c-0.54,5.71-9.99,5.25-5.81,13.56c-0.74-1.46,4.39,2.11,3.89,1.84
				c2.61,1.39,3.53,5.88,6.78,1.95c0.96-1.16,1.81-11.95,1.49-12.97c-0.09-0.3-6.61-5.19-5.94-6.06
				C1927.3-611.95,1927.16-611.4,1927.02-610.84z"/>
			<path class="st3" d="M1927.21-615.88c1.25,0.16,8.27,4.54,3.7-1.06C1926.63-622.16,1925.25-616.13,1927.21-615.88z"/>
		</g>
		<path class="st3" d="M1929.01-673.35c-1.33-3.11-4.24-3.67-6.5-5.78c-2.81-2.62-2.9-4.86-4.99-7.85
			c-2.97-4.24-7.47-4.91-10.99-8.38c-8.89-8.79-2.73-27.08-16.61-32.47c-2.54-0.98-6.03-1.23-8.6-0.2c-3.41,1.36-3.37,4.55-6.06,6
			c-2.78,1.5-3.31-0.55-5.7-0.05c-1.66,0.34-3.39,1.74-4.93,2.14c-3.81,0.99-4.57,0.53-8.57-0.02c-3.78-0.51-6.54,1.06-9.68,0.83
			c-1.66-0.12-2.2-2.07-2.91-2.15c-2.58-0.28-3.64,0.32-6.74,0.86c-4.11,0.71-11.69,2.01-12.19-3.77c-0.1-1.16,2.63-2.53,2.56-4.23
			c-0.17-3.93-2.28-2.24-3.92-4.53c-1.57-2.2-1.74-1.66-2.58-4.36c-0.9-2.88,3.88-4.94-0.65-7.72c-6.6-4.04-6.49,6.68-10.12,8.25
			c-8.33,3.62-13.62-21.85-26.79-8.44c-3.22,3.28-4.99,10.03-7.26,14.17c-1.09,1.12-1.77,2.43-2.02,3.93c-0.02,1.9-1,2.16-2.95,0.76
			c-2.2,1.96-4.2,2.16-6.06,5.18c-1.04-2.16-2.93-5.39-5.8-4.07c-2.8,1.3-0.7,4.35-2.48,6.2c-6.75,7.01-9.72-4.84-11.39-8.87
			c-1.29-3.12-6.5-15.73-12.02-13.39c-5.09,2.15-5.5,17.5-8.34,21.43c-2.94,4.06-8.01,5.65-8.71,11.51
			c-0.84,6.96,2.76,7.74,7.35,11.82c3.72,3.31,6.72,8.78,9.85,12.58c3.44,4.17,2.38,15.01-3.63,10.36c-2.24-1.73-0.49-8.83-6.6-6.08
			c-2.66,1.19-2.62,3.51-1.22,5.54c1.38,1.99,3.77-1.17,5.03,1.38c1.57,3.19-1.43,3.32-2.22,4.45c-1.47,2.1-8.33,6.66-8.77,9.66
			c-0.58,3.93,3.74,6.43,6.94,4.01c2.72-2.06,0.08-7.24,4.08-7.64c2.53-0.25,1.41,17.59,1.21,20.2c-0.54,7.03-9.2,14.32,2.5,12.84
			c1.43-0.18,18.17-3.78,15,2.68c-1.1,2.24-15.01-1.3-18.55,2.26c-6.76,6.79,9.29,6.14,13.06,7.87c7.07,3.24,8.23,13.61-0.24,8.81
			c-5.1-2.89-6.41-15.3-13.01-5.29c-7.38,11.19,6.26,9.53,9.32,17.2c-11.11,3.91-14.07-12.52-16.62-19.34
			c-1.67-4.48-2.77-12.52-8.44-4.29c-3.05,4.43-1.66,11.48-0.22,16.15c2.05,6.65,4.18,10.63,10.04,13.34
			c5.09,2.35,11.18,2.99,15.13,7.74c4,4.81,0.18,10.64,3.67,14.67c3.41,3.93,5.74-1.69,4.47,4.27c-0.31,1.48-4.46,5.29-4.26,7.3
			c0.76,7.61,3.28-0.87,6.61,1.12c3.42,2.04-3.02,7.94-0.54,10.44c2.43,2.46,2.97-1.46,4.36-1.79c0.46-1.21,1.29-2.05,2.48-2.54
			c0.63,0.32,1.26,0.63,1.88,0.95c5.63-2.85,4.74-2.32,6.25-9.31c1.69-7.82,6.13-6.79,11.7-11.39c4.12-3.4,8.2-9.23,9.64-14.34
			c0.42-1.48,0.04-15.9,1.81-15.69c2.39,0.29,1.28,15.58,1.38,17.23c0.29,4.74,0.14,6.14,3.39,9.24c0.68,0.65,6.27,4.35,7.31,4.32
			c3.13-0.1,2.29-2.44,4.74-3.19c1.25-0.39,2.64,2.14,4.19,1.47c1.54-0.66,1.17-3.74,2.33-4.92c2.11-2.15,3.98-1.24,5.42-4.73
			c0.7-1.7-0.91-3.36-0.46-4.92c0.4-1.41,2.11-2.56,2.47-3.87c0.78-2.76,0.32-6.58,1.32-9.23c2.05-5.44,10.72-8.59,15.18-12.34
			c5.54-4.65,3.71-1,10.46-3.14c6.06-1.91,5.43-10.24,10.22-10.06c0.45,0.02,2.47,3.5,4.99,3.43c1.49-0.04,3.28-2.55,3.37-2.55
			c4.91,0.06,6.78,10.84,1.51,12.8c-5.53,2.05-3.18-7.22-7.71-6.49c-4.28,0.69-2.32,11.45-5.97,13.42
			c-1.32,0.71-2.85-2.12-4.73-1.15c-2.54,1.3-1,2.92-2.19,4.5c-0.58,0.78-1.52,2.58-2.21,3.52c-1.38,1.89-5.13,2.73-5.46,5.84
			c-0.59,5.61,4.95,6.91,8.97,7.1c6.86,0.33,9.01-1.5,13.55,3.83c0.57,0.67,4.22,7.55,5.26,7.51c2.61-0.09,1.34-3.27,2.56-4.04
			c2.16-1.36,4.03-0.89,6.31-2.05c3.14-1.59,9.6-6.79,7.87-10.62c-0.1-0.23-4.56-2.43-4.6-2.45c-0.06-0.02-1.83-1.66-2.54-1.96
			c-0.52-0.22-2.7,2.14-3.2,1.8c-6.47-4.42,5.07-4.95,8-4.05c4.35,1.34,3.28,1.08,7.2,0.38c17.51-3.11-8.1-16.53-10.49-23.55
			c-1.43-4.19,1.53-8.57,0.53-12.62c-0.13-0.51-2.34-5.07-2.4-4.98c2.19-3.35,1.11,0.13,3.78-0.92c2.68-1.06,9.56-0.69,12.44-2.51
			c4.27-2.69,1.35-7.19,5-0.42c1.26,2.33,1.43,4.99,3.1,7.25c1.58,2.15,4.34,3,5.62,5.57c4.01,8.07-6.44,10.37-4.26,17.64
			c0.64,2.15,7.56,7.56,9.84,7.61c8.62,0.2-0.4-9.24,0.63-13.18c0.04-0.14,7.88-9.06,7.11-8.93c3.99-0.66,1.65,9.97,9.31,3.16
			c3.43-3.05,3.72-7.35,4.83-11.19c1.52-5.28,1.37-12.12-7.15-10.32c-6.65,1.4-9.49,9.89-15.55,0.98
			c-1.53-2.24-5.01-10.28-1.09-11.07c3.02-0.61,4.96,4.09,8.9,2.55c3.48-1.37,2.78-5.13,5.29-7.01c1.52-1.14,2.74-0.45,4.25-1.25
			c4.18-2.21,2.21,0.11,4.39-3.56C1928.8-663.41,1930.34-670.25,1929.01-673.35z"/>
	</g>
	<g>
		<path class="st4" d="M1716.2-1156.69c-0.23,0.21-10.83,3.96-10.86,3.96c-4.62-0.58-4.89-4.66-2.2-8.17
			C1706.65-1165.47,1725.12-1164.86,1716.2-1156.69z"/>
		<path class="st4" d="M1700.55-1136.62c-0.65,0.47-6.3-0.45-6.62-1.43C1692.4-1142.83,1706.29-1140.81,1700.55-1136.62z"/>
		<path class="st4" d="M1709.09-1130.6c1.57-4.11-6.2-5.19-5.94-2.22C1703.26-1131.63,1708.41-1128.82,1709.09-1130.6z"/>
		<path class="st4" d="M1719.21-1143.24c2.23,2.16,9.09,2.75,4.61,7.76c-4.35,4.87-4.34-1.19-6.13-2.98
			c-2.3-2.32-4.81-2.94-5.16-6.79c-0.1-1.11,1.76-9.56,4.75-7.79C1719.98-1151.46,1716.92-1145.46,1719.21-1143.24z"/>
		<path class="st4" d="M1728.59-1111.81c-0.18-1.81-11.74-7.96-12.41-3.08c0.15-1.07,4.79,6.13,4.14,5.85
			C1721.5-1108.54,1728.77-1109.92,1728.59-1111.81z"/>
		<path class="st4" d="M1739.39-1112.83c0.18-2.46-4.72-2.12-5.53-1.62c-1.43,0.88-0.51,2.84-0.88,3.27c-0.05,0.06-1.34,3.88-2,4.88
			c-1.18,1.78-5.76,2.84-6.4,5.03c-1.6,5.44,4.48,6.7,9,7.78c2.49,0.59,3.66,2.51,6.28,0.94c2.7-1.61,0.57-5.66,2.37-7.19
			c2.91-2.48,4.53-0.17,7.88-1.86c1.43-0.72,4.88-4.36,3.55-6.66c-1.77-3.06-3.88-0.45-5.96-0.83c-1.87-0.34-2.92-2.59-5.08-1.7
			c-1.7,0.7-1.53,2.94-2.46,3.38C1732.47-1103.76,1739.16-1109.6,1739.39-1112.83z"/>
		<path class="st4" d="M1731.15-1083.18c2.54,3.58,5.47-4.36,0.89-6.77C1727.04-1092.59,1729.46-1085.57,1731.15-1083.18z"/>
		<path class="st4" d="M1712.68-1066.55c-5.97,3.03,7.06,7.57,8.49,6.6C1726.03-1063.23,1714.15-1067.29,1712.68-1066.55z"/>
		<path class="st4" d="M1734.69-1067.03c2.73-3.42,11.44-1.04,6.23,5.11C1736.02-1056.12,1730.31-1061.55,1734.69-1067.03z"/>
		<path class="st4" d="M1689.1-1062.02c-3.71-5.12-7.16-2.68-4.91,2.87c2.88,7.07,5.49,2.47,9,2.3c0.53-0.03,7.32,6.08,4.67-0.61
			C1696.7-1060.38,1690.4-1060.21,1689.1-1062.02z"/>
		<path class="st4" d="M1686.82-1050.9c1.98,1.98,1.76,6.28-2.09,3.94C1681.39-1049,1683.65-1054.07,1686.82-1050.9z"/>
		<path class="st4" d="M1748.07-1134.76c1.02,2.01,0.51,9.54-1.5,10.93c-2.23,1.54-9.68-0.69-12.51-0.9
			c-2.84-0.21-7.12,0.82-8.58-2.68c-1.95-4.67,2.28-2.55,2.95-5.41c1.43-6.03-0.92-6.24-4.39-10.58c-5.2-6.5-4.65-18.06,4.9-20.76
			c5.79-1.64,12.81,2.11,15.92,7.56C1748.7-1149.9,1744.46-1141.84,1748.07-1134.76z"/>
		<path class="st4" d="M1712.41-1047.55c-1.89-3.93-9.51-3.02-6.16,1.13C1707.36-1045.06,1714.15-1043.95,1712.41-1047.55z"/>
		<path class="st4" d="M1784.94-1098.88c1.88-5.99-3.35-8.67-3.75-14.35c-0.38-5.43,2.77-9.13-3.67-11.69
			c-5.98-2.37-11.52,2.45-15.9,5.47c-5.04,3.47-3.68,1.81-4.77,7.22c-0.57,2.83-0.32,7.19,0.05,9.97c0.69,5.19,4.17,5.16,5.52,9.16
			c1.13,3.37-4.48,8.17,2.18,9.03c2.04,0.26,1.96-2.51,3.53-2.5c1.14,0,3.9,0.72,4.61,0.56
			C1780.08-1087.7,1782.5-1091.14,1784.94-1098.88z"/>
		<path class="st4" d="M1680.23-1034.71c-0.3-3.32,3.8-3.78,5.39-1.67C1687.17-1034.32,1680.59-1030.77,1680.23-1034.71z"/>
	</g>
	<path class="st3" d="M1830.99-1008.89c9.67-4.4,15.65,5.27,24.24,8.52c5.54,2.1,0.55,1.4,4.51-0.89c1.62-0.93,2.8-3.32,4.99-4.5
		c1.77-0.95,4.1-0.31,5.78-1.8c2.23-1.97,0.68-4.62,2.07-6.14c2.47-2.7,6.59-2.82,9.98-5.52c2.1-1.67,2.08-4.46,5.05-5.67
		c2.33-0.95,4.95,0.6,7.32-0.54c2.03-0.98,2.07-3.28,4.08-4.6c2.46-1.61,5.44-0.14,7.84-2.36c3.68-3.4,0.26-12.07,2.89-13.59
		c6.48,5.7,10.35,2.84,12.59-4.17c0.44-1.39,2.35-10.73,0.4-9.81c6.03-2.86,5.76-9.08,5.37-14.59c-0.6-8.52,1.65-7.99,4.83-15.03
		c2.99-6.6-1.6-9.34-2.76-15.13c-1.72-8.58,6.79-4.96,7.85-10.85c1.25-7-9.85-5.71-13.64-6.36c-6.26-1.07-7.35-3.71-12.15-7.43
		c-5.86-4.54-8-1.77-13.86-1.26c-5.24,0.46-4.41-0.3-3.16-5.39c0.89-3.61,3.84-6.38,1.34-9.9c-1.9-2.68-4.21,2.17-5.64-1.74
		c-0.62-1.7,1.98-3.88,2.27-5.32c0.37-1.81,2.09-3.23,2.2-5.26c0.18-3.16-3.24-6.33-2.05-9.59c1.81-4.96,12.63-4.72,13.86-11.52
		c1.34-7.45-6.79-7.03-9.84-10.57c-1.31-1.52,1.12-3.93,0.17-5.42c-2.57-4.03-4.13-0.97-7.58-2.11c-6.35-2.1-7.46-2.95-7.87-10.39
		c-0.32-5.83-1.07-12.24-8.05-5.41c-1.2-9.91-5.56-0.5-8.67-0.22c-1.16,0.1-6.43-3.27-7-4.35c-1.59-3.04,0.23-6.43,1.24-9.74
		c-3.96-2-6.55,6.07-10.87,4.81c-3.04-0.89-2.85-6.07-6.33-6.54c-2.8,3.31,2.76,18.55-8,10.43c-2.4-1.81-5.33-6.38-7.4-8.63
		c-3.25-3.52-3.61-8.64-7.08-12.2c-3.24,2.74-7.57,5.28-8.82,9.3c-0.63,2.06,1.42,5.39,0.37,7.47c-1.2,2.36-7.61,5.16-9.5,7.23
		c-4.51,4.96-4.6,11.85-8.72,17.13c-5.15,6.6-11.19,6.32-18.15,9.38c-4.94,2.18-3.32,0.19-4.26,6.23c-0.39,2.5-0.67,6.83-0.04,9.38
		c0.24,0.96,3.25,5.09,3.16,5.95c-0.12,1.21-3.04,1.19-3.48,2.8c-1.48,5.44-0.5,13.63-0.31,19.26c0.22,6.6-0.57,4.43,3.03,8.44
		c2.47,2.75,5.85,3.13,7.78,7.09c-9.71-1.28-12.13-8.03-13.22-16.03c-1.57-11.56-0.95-8.04-9.32-6.49c-1.86,0.34-6.11-1.7-7.74-0.27
		c-2.51,2.19-1.78,10.59-1.61,13.52c0.49,8.64,6.16,14.79,7.4,23.08c6.15-1.69,8.85-7.98,15.78-8.83c7.57-0.92,9.04,1.65,9.6,8.04
		c0.27,3.07-0.77,5.16,0.36,8.39c0.69,1.97,2.95,3.23,3.32,5.41c1.26,7.34-5.46,15.33-11.6,17.68c2.66,2.41-5.34,4.68-4.76,8.07
		c0.79,4.59,13.83,2.03,13.53,6.99c-0.35,5.84-11.74,0.84-12.63,1.03c-7.19,1.56-1.21,5.25-5.23,9.85c-2-0.38-1.26-5.08-2.55-6.52
		c0.77,0.86-6.04-2.72-4.79-2.54c-6.25-0.92-4.56,0.39-6.6,5.41c-0.15,0.38-2.11,7.72-2.09,7.77c2.36,6.65,8.92-2.55,11.27-2.26
		c5.85,0.73,3.38,5.59,6.07,9.19c-0.18,1.77,0.53,2.93,2.14,3.49c0.96-0.78,2.05-1.16,3.27-1.15c1.2,1.04-5.54,17.44,3.61,5.23
		c1.5-2.01,3.02-6.54,6.14-7.16c3.6-0.72,7.74,0.88,6.05,5.39c-0.98,2.62-4.65,2.65-5.82,5.98c-0.65,1.87,0.93,5.5,0.61,7.71
		c-0.61,4.23-5.84,3.62-0.43,6.92c2.08,1.27,6.55-1.91,7.78,1.7c-4.7,3.08-5.03,1.25-1.71,4.29c0.45,0.41,2.77,0.34,3.64,1.02
		c1.38,1.07,1.81,4.11,2.96,5.5c2.33,2.83,7.82,6.89,11.72,6c5.42-1.24,3.25-7.51,7.08-8.85c1.12,2.54,0.69,5.89-0.82,8.18
		C1818.95-1005.39,1824.81-1006.07,1830.99-1008.89z"/>
	<path class="st5" d="M1930.17-1042.25c4.22,1.82,17.73-0.99,21-4.48c3.78-4.03,1.82-18.17,11.05-14.23
		c3.02,1.29,3.67,5.96,6.04,7.86c5.13,4.13,4.72,0.91,8.99-1.08c0.86-1.51,2.09-2.66,3.69-3.45c2.04-0.3,3.58,0.39,4.64,2.09
		c3.03-1,2.26-4.29,6.07-4.2c4.31,0.11,5.78,5.14,10.42,4.93c3.17-0.14,8.29-4.99,6.58,1.42c-1.1,4.13-10.65,7.26-1.87,10.4
		c3.27,1.17,6.45-1.99,9.69-1.39c4.33,0.81,2.46,3.09,5.56,4.45c6.43,2.83,11.34-0.12,18.4,3.58c6.26,3.28,13.51,3.74,19.35,7.4
		c4.73,2.97,7.71,10.29,12.94,3.95c4.29-5.2-2.47-15.89,6.71-16.32c9.49-0.44,6.05,11.26,12.12,13.12c2.15,0.66,5.35-2.89,7.2-3.38
		c3.84-1.01,6.5,0.12,10.19,0.46c8.12,0.77,13.62-5.76,20.89-1.71c5.87,3.27,7.3,11.56,14.51,4.04c5.54-5.79,5.87-12.65,14.83-15.72
		c-4.7-6.56,0.12-16.11-4.96-23.66c-2.74-4.08-6.27-6.41-8.18-11.08c-1-2.43,0.41-4.22-1.35-6.81c-1.29-1.91-4.42-2.19-6.01-3.87
		c-2.55-2.69-2.76-6.29-4.71-9.3c-2.3-3.56-6.18-5.5-7.81-9.78c-1.67-4.39-0.18-8.79-2.66-12.77c-2.8-4.5-6.73-5.47-8.18-11.01
		c-1.19-4.55,0.75-4.94-3.31-9.73c-3.33-3.93-7.32-6.84-10.78-10.58c-7.89-8.55-13.14-18.63-18.59-28.21
		c-5.71-10.04-16.52-16.82-21.46-27.55c-2.1-4.56-3.41-6.37-6.51-10.26c-4.02-5.05-2.91-9.61-4.82-15.37
		c-3.37-10.16-9.96-21.61-15.07-31.14c-5.28-9.83-8.72-19.88-12.61-30.22c-1.38-3.66-5.58-14.8-10.3-13.06
		c-4.99,1.84-2.72,10.16-3.01,13.64c-0.44,5.25-1.75,11.67-3.98,16.51c-4.92,10.69-15.27,15.85-24.96,20.96
		c-3.53,1.86-6.04,3.72-9.93,4.6c-7.35,1.66-14.67-2.06-21.93-1.29c-4.73,0.5-7.79,2.84-12.7,1.93c-5.15-0.96-8.21-2.56-14.02-2.45
		c-5.84,0.11-11.58-0.58-17.43-0.84c-2.28-0.1-4.44-0.63-6.7-0.05c-2.14,0.55-3.99,3.14-5.97,3.43c-5.26,0.78-10.29-4.02-15.99-4.19
		c-6.2-0.18-11.47,1.78-17.69,1.3c-5.92-0.46-9.09,2.75-14.67,3.34c-7.45,0.79-10.11,1.59-16.34,6.77c-1.21,1.01-6.41,4.63-6.64,5.6
		c0.26-1.11,4.08,9.82,3.88,9.54c2.04,2.92,6.27,6,8.79,8.74c2.01,2.19,6.03,7.29,9.11,3.1c2.29-3.13-2.03-7.74,0.71-10.98
		c3.43,0.46,3.33,5.66,6.33,6.54c4.36,1.27,6.86-6.83,10.87-4.81c-0.71,2.34-2.88,6.43-2.02,9.03c0.45,1.35,6.55,5.18,7.79,5.07
		c2.99-0.27,7.46-9.73,8.67,0.22c5.14-5.03,7.8-2.76,8.27,3.31c0.64,8.34-0.2,10.02,7.65,12.48c2.34,0.73,4.57-1.56,6.68,1.11
		c1.57,2-0.49,3.97,0.38,5.53c2.45,4.41,9.88,2.9,10.12,9.88c0.3,8.68-11.25,7.27-13.79,13.09c-1.59,3.64,1.96,9.18,0.53,13.73
		c-0.41,1.29-3.66,4.75-2.94,6.44c1.28,3.01,3.05-0.38,4.83,1.47c3.48,3.59,0.43,5.8-0.53,10.16c-2.49,11.3,8.01,0.74,15.79,5.76
		c5.45,3.52,6.66,7.08,13.38,8.32c3.7,0.68,13.18-0.89,13.83,5.16c0.61,5.72-8.4,3.72-8.3,10.49c0.09,6.32,6.27,9.51,3.02,16.68
		c-2.66,5.88-5.72,6.11-5.23,13.31c0.42,6.06,2.13,12.94-4.98,16.32C1922.2-1059.69,1926.88-1043.66,1930.17-1042.25z"/>
	<g>
		<path class="st2" d="M1907.81-721.81c2.18-4.08-0.84-8.08,0.76-12.13c1.74-4.42,5.42-1.67,4.51-7.97
			c0.02,0.15-3.33-2.53-3.62-3.43c-1.09-3.43,1.3-7.04-0.76-11.12c-3.07-6.1-5.61-5.68-4.12-13.24c0.79-3.99,2.83-8.19,4.24-11.98
			c1.38-3.71,4.5-8.1,5.22-11.92c0.53-2.81-1.08-5.9,1-8.32c0.97-1.13,6.16-3.4,7.67-4.52c2.61-1.94,5.74-3.9,8.36-5.88
			c2.91-2.2,4.42-3.35,7.32-5.16c1.94,0.29,3.58-0.25,4.94-1.62c0.23-2.09,0.29-4.18,0.18-6.27c1.32-3.84,5.23-3.79,4.78-8.93
			c-0.27-3.03-2.64-5.69-4.76-7.61c-6.7-6.08-7.87-0.25-14.49-0.6c0.05,0-6.45-3.34-6.64-3.43c-1.72,0.91-3.28,0.75-4.67-0.48
			c-0.13-1-0.33-1.99-0.59-2.96c-7.06-0.3-14.11,8.41-21.98,10.01c-8.72,1.78-14.37,0.22-20.14-6.11c-2.9-3.18-7.56-5.48-10.03-8.7
			c-2.23-2.92,0.77-6.68-3.2-7.64c-1.75-0.42-7.41,3.93-9.51,4.48c-3.67,0.95-8.86,1.31-12.63,0.61c-7.78-1.44-7.7-8.28-13.77-9.94
			c-2.95-0.8-9.64-0.69-13.02-0.98c-3.55-0.31-6.12-0.53-9.22,1.73c-6.67,4.87-7.09,14.47-15.01,19.14c3.27,1.8-3.83,2.53-3.15,2.06
			c0.13-0.09-6.41,4.56-5.83,4.26c-6.41,3.24-15.29,3.29-22.37,4.08c-3.8,0.42-13.06,0.38-5.83,4.75c2.19,1.32,5.65-0.03,7.24,1.59
			c2.42,2.45-0.49,6.3,1.92,8.9c2.9,3.14,10.35-1.12,14.13-0.99c2.58,0.09,4.08,1.42,6.84,0.82c2.34-0.51,5.39-6.03,8.2-3.91
			c1.46,1.11-5.18,8.6-6.63,9.14c-3.95,1.45-14.2-3.01-9.21,5.53c0.96,1.65,14.02,5.81,10.01,8.89c-1.46,1.12-11.63-3.27-15.38-2.74
			c-7.99,1.12-4.78,3.33-7.53,9.15c-1.7,3.6-3.42,3.65-6.56,5.72c-3.24,2.14-5.31,4.61-8.34,7.12c-1.68,1.4-8.52,4.07-9.12,5.7
			c-3.1,8.57,8.32,9.04,13.43,8.3c2.68-0.39,10.71-2.15,13.29-0.2c3.93,2.96,1.15,1.05-0.22,3.1c-3.47,5.18-11.97,4.67-17.15,6.79
			c-7.56,3.1-10.5,10.4-13.32,17.43c12.53,1.61,8.04,16.85,15.66,22.49c9.26,6.85,9.77-15.42,16.03-2.36
			c1.33-2.17,2.88-3.23,4.76-4.71c0.83-0.58,1.69-0.64,2.58-0.16c1.68,0.87,2.37,0.04,2.05-2.49c3.24-3.26,4.05-7.45,5.93-11.31
			c5.56-11.38,14.79-10.49,22.37-1.54c11.26,13.3,8.21-9.45,17.5-3.67c4.57,2.84-0.94,7.81,1.22,11.05c1.12,1.68,4.3,0.77,5.35,2.42
			c1.41,2.2-0.56,3.52-0.37,5.29c0.38,3.48-4.27,3.15,2.08,6.17c5.25,2.49,9.2-2.74,13.73-2.11c1.75,0.24,1.63,2.89,2.72,3
			c1.28,0.13,2.46-0.9,3.44-0.81c5.3,0.52,11.64,0.93,16.5,0.07c1.15-0.2,2.27-2.29,3.81-2.62c2.17-0.46,3.25,1.92,5.65,1.2
			c4.11-1.23,4.58-6.61,10.03-7.28c5.12-0.63,9.69,2.48,12.5,6.48c0.59,0.85,1.94,5.12,2.66,5.42
			C1901.4-715.85,1906.97-720.24,1907.81-721.81z"/>
	</g>
	<path class="st4" d="M1949.86-848.39c7.15-2.4,11.02-12.18,12.04-20.02c0.56-4.3-1.68-4.33,1.78-6.88
		c0.73-0.53,3.75,0.82,4.97-0.08c3.49-2.56,0.67-1.98,0.1-4.61c-0.31-1.44-1.44-5.34-2.73-6.2c-2.57-1.71-3.03,0.18-5.13-0.19
		c-1.63-0.29-2.51,1.02-4.59,0.31c-1.5-0.51-2.23-2.98-3.53-3.76c-8.05-4.79-15.33,5.33-10.22-9.2c1.76-4.99,1.76-9.43,2.23-14.79
		c0.49-5.57,2.87-11.56,2.88-17.05c0.02-7.85-7.69-8.71-12.14-13.46c-6.24-6.67,5.98-5.81,8.72-10.58c2.21-3.86,0.11-4.77,3.8-7.34
		c3.25-2.27,8.29-0.21,8.49-6.63c0.51,1.99,16.02,2.74,15.97,2.82c1.58-2.35-7.34-9.84-3.15-15.49c3.27-4.41,9.89-3.04,14.29-3.75
		c5.6-0.9,10.57-6.34,15.89-6.4c7.66-0.08,6.69,8.59,12.65,9.88c6.67,1.45,14.12-4.32,14.39-10.42c0.42-9.39-2.94-11.08,6.24-16.9
		c5.7-3.61,8.92-4.51,12.41-10.25c1.92-3.16,0.98-3.88,4.08-6.2c2.85-2.14,6.64-1.18,9.41-4.17c-3.16-2.31-6.89-1.62-10.45-2.57
		c-4.54-1.2-7.18-4.93-11.37-6.41c-4.36-1.54-7.78,1.54-11.77,0.49c-3.45-0.91-4.04-4.52-7.31-5.71
		c-5.67-2.05-18.29,5.03-12.54-5.99c0.84-1.61,6.51-4.99,2.58-7.26c-0.3-0.17-6.2,2.89-7.84,2.58c-2.75-0.51-4.09-4-6.84-4.47
		c-3.26-0.55-6.4,1.97-8.47,2.69c-0.69,0.24-3.46-0.86-5.13-0.22c-2.23,0.85-2.39,3.89-4.59,4.77c-8.53,3.44-12.55-17.34-20.02-6.33
		c-2.28,3.37-0.81,8.25-3.81,11.43c-2.56,2.72-8.68,3.55-12.25,4.23c-12.48,2.37-10.6-4.43-15.37-13.01
		c-1.37,8.18-4.84,17.43-13.81,9.54c-2.66,1.53,0.51,6.54-0.07,8.77c-1.44,5.52-4.41,4.1-8.03,6.58c-2.17,1.49-5.52,4.95-7.85,5.78
		c-4.68,1.68-5.59,0.02-9.82,3.3c-0.82,1.57-1.81,3.01-2.98,4.33c-1.27,1.1-2.73,1.53-4.38,1.29c-1.49-0.32-2.78,0.05-3.85,1.09
		c-0.38,1.53-0.44,3.08-0.19,4.64c-3.38,4.66-14.56,4.24-14.71,11.9c-0.13,6.46,11.81,11.82,15.61,15.84
		c1.65,1.75,5.52,8.13,2.9,10.56c-3.42,3.17-4.55-2.3-8.4-1.39c-3.55,0.84-6.03,9.67-7.19,12.28c-2.67,6.03-2.43,6.54-1.49,12.06
		c0.24,1.43,1.78,8.41,2.77,9.53c2.17,2.46,7.54,0.49,8.79,3.9c-4.38,1.46,0.35,8.34,1.35,10.01c2.14,3.62,0.31,3.03,3.99,4.09
		c2.53,0.73,1.86-2.53,5.59-0.36c1.87,1.09,1.66,3.93,2.75,5.43c2.35,3.25,2.56,4.61,6.49,3.03c1.71-0.69,1.51-8.14,4.18-1.64
		c1.74,4.25-2.02,8.45-3.57,12.09c-1.01,2.39-3.77,8.62-3.33,11.49c0.77,5.03,3.21,2.9,6.68,6.07c1.6,1.47,1.41,3.52,2.79,5.13
		c0.99,1.16,2.66,1.58,3.5,2.57c3.76,4.44,1.79,5.24,2.08,11.15c0.18,3.73,6.7,17.12,9,18.26c0.8,0.4,2.15-2.36,3.72-1.49
		c0.56,0.31,1.53,2.46,1.54,2.46c2.55,0.85,6.14,1.42,9.24,2.42c4.16,1.35,2.05,2.11,6.79,1.28c5.45-0.96,4.72-3.11,10.04,1.72
		C1944.94-843.53,1947.56-847.61,1949.86-848.39z"/>
	<path class="st2" d="M1866.23-916.75c-4.31,3.38-7.02,1.01-9.89,6.56c-1.55,2.99-3.19,11.99-2.41,15.27
		c0.9,3.78,3.29,7.04,4.53,10.87c1.49,4.59,3.05,8.37,7.57,10.82c3.9-4.58-0.88-13.33,4.96-16.72c1.72,2.38,4.82,13.87,6.59,14.64
		c3.46,1.52,4.87-2.36,7.04-5.16c5.34-6.91,3.71-14.95,7.75-23.8c0.91-1.99,6.65-12.84,0.72-13.4c-2.4-0.23-0.9,6.08-5.57,5.22
		c-2.93-0.54-2.69-5.07-3.99-6.77c-2.02-2.63-2.64-2.16-5.45-2.99c-1.62-0.48-2.46,2.39-4.46,0.9c-1.03-0.77-1.92-5.41-2.39-6.1
		C1869.18-924.41,1869.06-918.96,1866.23-916.75z"/>
	<path class="st3" d="M1842.68-969.37c-8.38-0.12-3.01,12.99-2.34,16.92c1.29,7.47-1.79,13.66-1.45,20.81
		c0.34,7.28,6.03,9.41,7.95,16.14c2.16,7.58-2.39,14.63,7.31,17.78c0.54-3.58,0.51-9.2,2.2-12.46c2.88-5.56,5.97-2.96,9.89-6.56
		c1.58-1.45,4.79-8.57,5-10.64c0.18-1.82-5.14-6.5-0.39-8.09c-1.18-3.19-4.91-1.08-6.66-2.66c-3.28-2.96-1.83-3.69-3.28-7.56
		c-2.71-7.24-3.5-7.94,0.12-15.82C1854.86-962.56,1848.32-969.29,1842.68-969.37z"/>
	<g>
		<path class="st5" d="M2001.61-599.36c5.39-1.31-3.59-8.12-6.28-6.13C1990.24-601.72,1998.77-598.67,2001.61-599.36z"/>
		<path class="st5" d="M1990.99-616.15c3.73,2.06-0.68,4.29-3.18,3.37C1984.67-613.94,1988.31-617.63,1990.99-616.15z"/>
		<path class="st5" d="M1988.75-642.08c4.83-1.5,2.72,7.96-1.68,4.82C1984.82-638.87,1986.78-641.47,1988.75-642.08z"/>
		<path class="st5" d="M1992.77-635.55c-0.38,5.23,7.95,7.03,7.33,1.75C2000.04-634.3,1993.05-639.43,1992.77-635.55z"/>
		<path class="st5" d="M1965.32-648.45c2.01-6.47-7.98-0.08-8.71,4.38c-0.51,3.15,0.69,7.04,4.2,7.95c0.78,0.2,8.36-0.29,8.49-0.32
			c2.8-0.57,3.39,1.71,4.75-1.97c0.84-2.29-2.82-1.36-3.25-2.42c-0.5-1.24,1.23-4.32-0.35-5.35c-3.8-2.46-3.08,2.55-5.54,3.31
			C1962.21-642.04,1965.43-648.82,1965.32-648.45z"/>
		<path class="st5" d="M1948.88-645.75c6.58-4.5-0.6-14.7-7.42-6.82c-1.39,1.61-1.36,4.17-2.57,5.8c-1.11,1.49-3.4,2.07-4.41,3.81
			c-2.87,4.96,0.35,7.63,2.53,11.68c0.75,1.39,2.33,2.18,2.78,3.79c0.35,1.23-1.42,3.25-1.06,4.6c1.1,4.13,4.95,7.14,8.75,3.58
			c1.85-1.74-0.41-4.89,2.28-5.88c5.5-2.01,2.47,4.35,3.88,6.63c2.77,4.49,4.34,1.55,8.36,2.28c2.57,0.46,4.01,5.2,6.83,1.57
			c0.98-1.26-0.44-4.35-0.03-5.89c0.91-3.46,4.25-5.48,2.58-9.96c-3.75-10.04-12.43,1.32-18.01-1.24c0.84,0.39-3.81-5.88-3.67-5.61
			C1948.5-639.72,1944.83-642.97,1948.88-645.75z"/>
		<path class="st5" d="M2013.66-637.32c6,1.96-3.04,4.62-2.35,3.4C2011.54-634.33,2009.23-638.77,2013.66-637.32z"/>
		<path class="st5" d="M2017.85-638.27c2.31,3.67,0.14,1.63,0.26,3.98c0.13,2.42-4.41,4.15,1.19,8.06c3.93,2.74,2.35,1.73,4.62-1.96
			c0.68-1.1,1.97-4.03,2.26-5.45c0.25-1.22-1.25-3.62-1.14-4.04c0.44-1.67,8.59-10.66,3.11-10.49
			C2027.43-648.16,2018.11-637.86,2017.85-638.27z"/>
		<path class="st5" d="M2034.04-631.73c-0.86-1.99-4.59,3.79-4.2,2.82c-0.64,1.6-1.22,1.56-1.25,3.76c0.02-1.46,4.08,6.02,2.58,4.99
			c2.6,1.79,0.58,2.09,2.99,0.94c-2.08,0.99,1.73-7.26,1.72-5.06C2035.9-626.55,2035.29-628.85,2034.04-631.73z"/>
		<path class="st5" d="M2035.67-658.94c1.05-6.59,3.35-0.6,3.65,0.67C2041.25-650.23,2035.3-656.66,2035.67-658.94z"/>
		<path class="st5" d="M2081.66-665.34c0.26-2.49-5.63-16.01,3.08-11.22c2.13,1.17,0.79,6.2,0.2,7.81
			C2085.46-670.19,2081.17-660.62,2081.66-665.34z"/>
		<path class="st5" d="M2064.18-666.03c3-2.91,1.35-7.27-2.76-5.37c-2.13,0.99-2.74,8.18-5.3,10.44c-1.89,1.67-6.05,1.54-7.29,3.33
			c-2.77,4,7.01,4.64,3.05,8.77c-5.18-5.79-3.51,0.31-7.36,0.37c-2.92,0.04-1.76-3.08-5.55-2.58c-1.63,0.22-3.88,2.59-4.89,3.77
			c-4.88,5.67-2.57,7.52,1.12,11.04c3.78,3.61,1.82,2.6,5.28,1c1.66-0.77,4.32-5.72,6.99-3.4c5.13,4.47-2.38,6.09-3.61,7.68
			c-5.76,7.48,1.84,2.83,2.98,4.17c1.84,2.17-0.15,3.61-0.14,6.43c0-0.06,2.58,2.1,2.67,2.41c0.45,1.56-4.08,1.17-1.87,3.83
			c3.3,3.98,6.25-0.71,7.82-3.9c1.65-3.35,1.89-6.48,3.62-9.82c0.57-1.11,0.33-3.05,1.36-3.86c1.22-0.97,4.18,1.32,5.29,0.29
			c2.91-2.72-0.72-3.77,0.08-6.81c0.46-1.72,4.37-0.34,4.25-3.62c-0.06-1.68-2.22-2.08-2.39-2.53c-0.16-0.42-2.52,1.71-3.44,0.23
			c-1.49-2.4,1.96-4.1,2.43-6.34C2067.27-654.23,2061.64-663.57,2064.18-666.03z"/>
		<path class="st5" d="M2079.93-688.71c-0.28-3.64,5.73-1.04,7.12-1.94c3.27-2.11,1.19-5.72,3.33-8.13
			c3.26-3.67,5.66-1.11,9.92-1.87c5.35-0.95,4.67-3.84,7.96-6.82c4.99-4.51,13.14-5.01,16.15-11.36c1.59-3.34-0.68-6.01,2.52-8.79
			c2.45-2.13,7.51,0.62,10.56-3c7.45-8.83-4.99-11.81-9.79-15.67c-3.73-3-5.38-5.13-10-7.12c-2.38-1.02-8.36-2.28-9.19-5.32
			c-1.03-3.75,4.71-5.67,3.86-10.25c-1.08-5.87-5.08-4.22-9.36-5.06c-3.95-0.77-7.95-3.21-11.94-1.56c-1.44,1.35-2.6,2.9-3.48,4.67
			c-1.22,1.72-2.86,2.38-4.94,1.99c-1.26,0.75-7.72,4.59-9.25,4.85c-3.61,0.63-8.16-3.03-11.67-3.76
			c-3.06-0.64-12.25,1.78-14.07,0.8c-2.75-1.47-3.12-7.84-5.97-9.92c-6.82-4.97-13.51-0.55-19.88,1.59
			c-5.89,1.98-3.32,1.66-9.22-0.47c-4.43-1.6-7.26-1.85-12.02-1.85c-3.05,0-9.52,0.91-11.52-2.44c-1.22-2.05-0.21-11.15-1.54-14.59
			c-1.63-4.23-4.86-6.31-6.63-8.87c-1.67,0.21-2.57-0.58-2.7-2.34c0.46-1.73,0.3-3.4-0.47-5c-2.58-1.92-7.37,1.35-10.28,1.17
			c-5.66-0.35-4.88-3.05-8.41-5.65c-0.38-1.49-1.27-2.53-2.68-3.12c-1.66,0.05-3.19,0.52-4.6,1.41c-3.23-0.77-4.7-3.31-8.07-4.2
			c0.47,4.43-3.15,2.6-5.27,3.85c-2.7,1.59-4.69,3.27-7.32,5.16c-4.44,3.19-7.7,5.66-11.94,9.29c-2.17,1.86-3.79,0.22-5.24,3.42
			c-0.86,1.9,0,5.6-0.72,7.96c-2.23,7.34-7.08,14.23-8.59,21.95c-1.79,9.13,5.16,10.96,5.73,19.6c0.13,1.97-1.36,4.23-0.67,6.19
			c0.73,2.07,4.23,1.33,4.47,4.23c0.34,4.1-4.65,3.45-5.54,5.74c-1.21,3.12,0.57,5.43,0.12,8.48c-0.79,5.26-3.09,4.67-6.01,7.63
			c-3.49-0.13-4.35,1.11-2.58,3.72c0.38,1.46,0.69,2.93,0.91,4.42c1.86,8,2.4,11.71,9.13,16.67c5.98,4.41,6.47,7.76,11.22,12.98
			c5.91,6.5,8.51,4.72,7.16,14.63c-0.93,6.8-2.22,9.34,5.67,9.83c2.55,0.16,11.28-1.31,13.17-2.97c2.35-2.07,1.94-10.98,5.64-9.66
			c2.45,0.87,0.77,9.58,8.05,5.84c8.6-4.41-1.87-8.31-1.53-10.24c0.33-1.86,4.32-0.41,4.24,1.52c2.76-0.86,2.15-6.16,4.12-6.41
			c3.23-0.41,0.64,9.22,0.42,10.68c-0.34,2.28-2.19,6.45-1.72,8.71c1.02,4.81,2.37,2.72,6.11,4.56c4.35,2.15,10.88,10.62,17.71,4.17
			c2.6-2.46-1.41-4.73,4.06-5.48c5.18-0.71,3.51,3.36,6.92,4.03c5.53,1.09,5.11-12.97,9.37-5.85c3.82,6.38-9.57,10.45-0.29,13.72
			c8.42,2.96,12.79-4.24,13.94-10.5c0.22-1.18,2.04-6.44,1.6-7.47c-0.56-1.3-3.87-1.48-4.21-2.58c1.39-3.67,13.53,2.83,11.48-6.56
			c-2.13-9.76-10.23-0.14-13.87,0.34c-7.07,0.94-1.07-6.61,4.49-6.75c7.48-0.2,13.26,0.38,2.22-6.01c2.57-3.59,5.04,0.13,7.72,0.16
			c0.69,0.01,4.95-1.71,4.8-1.74c2.04,0.34,3.56-0.07,5.03,2.38c1.27,2.13-1.06,1.78-0.81,2.7c1.06,3.8-2.2,4,3.84,3.71
			c5.41-0.26,8.51-3.34,5.56-9.31c-0.77-1.57-10.77-9.94-3.66-10.57c4.75-0.42,1.74,3.86,4.75,5.1c2.64,1.08,5.69-1.62,8.05-0.2
			c2.48,1.5,1.31,5.16,3.54,6.87c2.49,1.91,3.95,1.27,6.82,1.53c1.22,0.11,3.88-0.46,5.07-0.41c2.46,0.11,4.73,1.49,7.83,1.31
			C2083.63-682.51,2080.1-686.54,2079.93-688.71z"/>
	</g>
	<path class="st6" d="M2189.81-854.26c-2.15-5.07-12.8,14.84-17.78,14.05c-1.13-0.18-6.24-6.02-6.66-6.8
		c-2.29-4.21-1.07-1.27,2.55-6.8c3.37-5.14,0.98-5.23-1.04-10.16c-1.53-3.73-2.09-6.95-2.89-11.08c-1.91-9.85-3.09-22.8,2.26-32.01
		c4.92-8.46,7.94-16.63,6.1-27.21c-1.58-9.07-6.81-14.51-1.08-23.7c2.43-3.91,5.2-4.74,5.91-9.85c0.64-4.62-0.36-10.5-1.96-14.84
		c-4.35-11.84-7.32-20.8-6.95-34.06c0.13-4.87,1.06-9.59-0.78-13.85c-1.01-2.33-4.01-4.2-5.34-6.67c-0.7-1.3-0.18-4.18-1.43-5.12
		c-8.93-6.68-12.45,12.42-18.32,15.74c-7.77,4.39-10.14-7.81-16.96-8.33c-4.5-0.34-8.34,4.14-13,4.36
		c-6.17,0.29-9.87-1.43-16.1,0.33c-4.85,1.37-4.09,2.76-7.77-0.8c-3.19-3.09-0.53-8.73-7.58-9.89
		c-13.03-2.14-0.81,16.79-11.46,18.56c-4.97,0.83-5.79-5.14-9.53-6.25c-1.23-0.36-8.57,1.67-10.65,3.05
		c-4.31,2.85-2.37,4.99-4.92,8.75c-2.97,4.38-7.29,5.14-11.57,7.7c-4.1,2.45-6.91,4.18-7.49,9.19c-0.68,5.86,3.61,9.41-1.37,14.29
		c-2.36,2.31-11.21,5.27-14.39,3.43c-3.64-2.1-2.84-8.55-8.68-9.48c-5.17-0.83-7.42,3.93-11.66,5.49
		c-4.32,1.58-8.69,0.32-13.16,1.51c-4.24,1.13-6.84,2.31-7.81,6.63c-0.58,2.61,4.78,11.24,4.25,12.03
		c0.05-0.08-15.46-0.84-15.97-2.82c-0.26,8.11-6.97,3.75-9.94,6.67c-2.98,2.93-1.09,6.98-4.36,9.95c-2.02,1.83-7.64,0.43-8.69,3.72
		c-1.03,3.22,6.18,6.91,8.43,8.89c3.44,3.04,5.7,3.65,5.69,8.78c-0.01,6.24-2.61,12.95-3.08,19.32c-0.23,3.05,0.15,6.38-0.69,9.36
		c-0.66,2.36-4.14,5.75-4.06,8.04c0.31,8.26,4.36,1.45,8.33,1.94c4.8,0.6,5.87,5.94,10.36,6.86c2.33,0.48,3.41-2.38,6.12-1.46
		c2.54,0.86,3.6,4.43,4.11,6.82c0.64,2.95,4.71,1.09-0.1,4.61c-2.23,1.63-4.2-0.97-5.84,0.21c-1.98,1.43-1.66,9.11-2.61,12.11
		c-1.69,5.29-3.32,10.9-7.5,14.37c-1.85,1.54-9.16,2.59-9.04,6.91c0.05,1.8,4.36,4.69,4.61,7.44c0.22,2.47-0.56,3.35-1.56,5.61
		c-2.2,4.96-5.67,4.39,0.13,9.11c4.48,3.65,5.63-0.54,9.48,1.04c3.97,1.64,3.27,6.78,8.1,8.44c3.68,1.27,9.55-2.76,12.29-1.13
		c2.72,1.63,0.05,3.49,1.45,5.29c2.17,2.77,2.54,0.62,4.54,2.6c3.48,3.45,6.43,11.13,6.91,15.9c0.65,6.5-1.59,8.44,6.22,9.77
		c4.62,0.79,9.54-1.18,14.1,0.48c7.94,2.89,5.05,4.88,12.96,0.92c8.36-4.18,16.68-4.3,22.01,3.96c0.28,0.43,1.93,4.82,2.77,5.27
		c0.99,0.53,8.8-1.42,10.54-1.29c4.74,0.35,10.76,5.2,15.2,4.25c2.44-0.52,3.18-3.07,5.29-3.99c2.04-0.89,4.93-0.1,6.78-1.08
		c4.7-2.5,3.64-6.41,9.82-6.87c4.28-0.32,9.89,3.44,14.22,2.63c8.93-1.66,6.31-6.86,9.63-12.76c2.81-4.99,9.58-5.29,14.6-4.9
		c2.26,0.18,4.79,0.22,6.87,1.26c3.67,1.84,2.95,4.27,5.2,6.53c4.99,5,5.82,2.95,12.39,1.54c3.83-0.83,6.64,0.03,10.36,0.24
		c5.25,0.29,3.15,1.64,6.13-1.91c3.63-4.32,4.39-14.66,5.93-20.2c1.92-6.89,2.49-12.78,3.52-19.64
		C2185.73-833.58,2194.24-843.81,2189.81-854.26z"/>
	<path class="st2" d="M2146.02-732.39c-6.24-5.09-8.24,2.07-13.35,4.5c-2.88,1.38-4.97-1.08-7.32,1.65
		c-1.51,1.75-0.09,5.42-0.95,7.41c-2.17,5.02-6.66,5.23-10.95,7.63c-4.47,2.5-5.91,7.66-10.15,9.79c-6.89,3.46-8.98-1.87-13.56,4.91
		c-1.63,2.42,0.19,3.98-2.7,5.85c-1.69,1.09-4.63-1.31-6.17,0.35c-2.66,2.85,3.74,10.8,7.05,10.39c0.79-0.1,3.14-2.98,2.41-3.14
		c0.49,0.1,2.7,2.03,2.49,1.98c0.13,0.03,0.45,2.75,1.77,3.12c1.5,0.42,2.23-3.71,4.79-3.13c1.78,0.41,1.32,6.25,3.11,7.5
		c3.83,2.67,4.94-0.29,7.33-2.33c2.25-1.92-0.21-3.03,3.67-3.59c1.11-0.16,2.34,5,4.39,3.37c4.13-3.29-6.05-6.31-2.45-9.22
		c2.14-1.72,2.98,1.96,4.91,2.15c4.98,0.49,3.39-0.47,6.26-2.79c0.29-0.24,2.47-3.2,3.63-4.25c2.09-1.9,4.37-2.47,6.36-4.07
		c5.24-4.19,6.86-8,7.93-15.19c0.58-3.91-1.59-12.11,4.12-11.36C2148.15-724.51,2149.37-729.66,2146.02-732.39z"/>
	<path class="st4" d="M2174.86-772.32c-2.59-2.4-2.9-4.52-1.46-7.87c-4.23-1.39-8.54-2.34-13-1.82c-3.11,0.37-6.56,3.12-9.64,2.53
		c-6.08-1.17-5-8.27-11.39-10.8c-4.86-1.92-14.08-1.77-18.07,1.71c-3.58,3.13-1.39,5.71-2.98,8.79c-2.2,4.28-5.48,2.97-8.79,6.38
		c7.7,4.89-2.4,10.64-0.46,15.33c1.68,4.07,12.87,6.02,16.42,8.98c4.87,4.06,9.89,7,13.82,11.57c-1,3.21,0.2,4.48,3.6,3.79
		c1.04,0.45,2.08,0.89,3.12,1.34c3.3,2.9,2.11,7.74,2.63,11.53c3.91,0.51,4.88-3.48,7.08-5.64c4.34-4.28,4.44-0.94,3.87-9.62
		c-0.14-2.08,3.47-18.63,4.79-18.44c3.78,0.54-1.39,7.54,3.66,7.21c3.7-0.24,2.81-5.16,3.24-7.47
		C2171.84-757.69,2176.61-770.7,2174.86-772.32z"/>
	<path class="st5" d="M1792.83-1124.97c-10.48-1.14-3.28,9.84-0.87,13.59c3.83,5.96,6.62,14.34,15.41,14.59
		c5.37,0.16,3.7-3,7.22-4.36c4.06-1.57,2.95,0.32,6.25,1.28c4.86,1.42,4.23,3.55,10.12,1.54c3.28-1.12,8.27-4.45,9.89-7.53
		c1.86-3.51,2.23-7.2-0.38-10.58c-2.38-3.08-6.85-2.23-8.84-4.79c-3.48-4.46,1.52-14.75-2.48-19.58
		c-4.29-5.18-11.57,0.34-14.63,3.68C1808.01-1130.01,1804.04-1123.75,1792.83-1124.97z"/>
	<path class="st4" d="M2045.5-837.52c-1.2,0.66-5.53,2.42-6.65,4.19c-1.33,2.1-0.08,4.88-1.08,6.66c-4.28,7.59-7.8-3.44-13.34-2.17
		c-4.54,1.04-6.69,9.57-3.83,12.95c2.53,2.99,8.87,0.13,8.89,5.3c0.01,3.9-6.9,4.13-8.71,6.53c-3.74,4.97,1.93,7.64,1.07,12.6
		c-0.96,5.5-6.17,1.16-6.72,8.3c-0.56,7.18,5.44,9.11,11.26,8.5c5.51-0.58,8.99-2.46,11.23-7.61c1.79-4.11,1.56-13.65,8.65-12.76
		c4.18,0.52,4.86,6.58,10.24,4.6c2.24-0.82,2.31-3.3,3.62-4.42c0.78-0.67,4.84-1.89,5.54-3c2.05-3.23,1.67-11.01,3.22-15.3
		c2.37-6.55,5.63-11.38,1.22-17.29c-1.9-2.54-5.31-8.4-7.74-10.15C2057.28-844.25,2050.19-840.08,2045.5-837.52z"/>
	<path class="st5" d="M1797.21-708.08c-3.23,1.02-5.58,4.14-9.07,4.51c-3.01,0.32-5.48-2.37-8.33-2.24
		c-6.5,0.29-11.86,6.05-13.73,12.18c-3.41,11.23,5.49,6.08,11.58,9.11c6.18,3.07,2.84,10.15,10.73,9.88
		c2.95-0.1,5.69-3.38,8.59-4.18c3.4-0.93,6.67-0.11,10.09-0.47c7.39-0.79,8.34-1.35,9.57-8.2c1.42-7.94-0.11-6.38-4.62-10.68
		C1807.55-702.43,1805.38-710.67,1797.21-708.08z"/>
</g>
<path class="st7" d="M2373.54,1470.64"/>
<polygon class="st8" points="1348.54,-798.13 1214.9,-566.65 1482.19,-566.65 "/>
<polygon class="st9" points="1348.54,-556.02 1214.9,-324.54 1482.19,-324.54 "/>
<path class="st7" d="M2737.22,2780.88"/>
<path class="st7" d="M2357.44,2780.88"/>
<path class="st7" d="M1949.18,2780.88"/>
<path class="st7" d="M1554.18,2780.88"/>
<path class="st7" d="M1159.18,2780.88"/>
<path class="st7" d="M1019.86,2580.52"/>
<path class="st7" d="M280,2780.88"/>
<path class="st7" d="M-137.76,2780.88"/>
<path class="st7" d="M-565.01,2780.88"/>
<path class="st7" d="M-992.26,2780.88"/>
<path class="st7" d="M2357.44,2363.12"/>
<path class="st7" d="M1949.18,2363.12"/>
<path class="st7" d="M1554.18,2363.12"/>
<path class="st7" d="M1159.18,2363.12"/>
<path class="st7" d="M697.76,2363.12"/>
<path class="st7" d="M280,2363.12"/>
<path class="st7" d="M-137.76,2363.12"/>
<path class="st7" d="M-565.01,2363.12"/>
<path class="st7" d="M-992.26,2363.12"/>
<g>
	<path class="st10" d="M2112.55,166.03c0-29.82-22.94-54-51.23-54s-51.23,24.18-51.23,54c0,15.89,6.51,30.18,16.88,40.06
		c16.2,18.35,25.5,33.38,34.35,63.32c8.85-29.94,18.15-44.97,34.35-63.32C2106.03,196.21,2112.55,181.92,2112.55,166.03z"/>
	<ellipse class="st11" cx="2061.31" cy="166.03" rx="26.51" ry="27.94"/>
</g>
<ellipse class="st12" cx="1983.58" cy="1326.56" rx="18.01" ry="18.99"/>
<g>
	<path class="st13" d="M2373.54,906.05c0-29.82-22.94-54-51.23-54s-51.23,24.18-51.23,54c0,15.89,6.51,30.18,16.88,40.06
		c16.2,18.35,25.5,33.38,34.35,63.32c8.85-29.94,18.15-44.97,34.35-63.32C2367.03,936.22,2373.54,921.94,2373.54,906.05z"/>
	<ellipse class="st14" cx="2322.31" cy="906.05" rx="26.51" ry="27.94"/>
</g>
<path class="st10" d="M2433.08,507.71c0,127.88,9.33,151.52,38.52,97.57c-29.19,53.95-4.89,46.51,100.3-30.72
	c-105.19,77.23-117.85,99.26-52.27,90.95c-65.59,8.31-44.62,22.66,86.55,59.27c-131.17-36.6-156.29-32.76-103.7,15.84
	c-52.6-48.61-50.75-23.26,7.63,104.62c-58.38-127.88-77.04-145.13-77.04-71.2c0-73.94-18.66-56.69-77.04,71.2
	c58.38-127.88,60.23-153.23,7.63-104.62c52.6-48.61,27.48-52.44-103.7-15.84c131.17-36.6,152.14-50.96,86.55-59.27
	c65.59,8.31,52.93-13.72-52.27-90.95c105.19,77.23,129.49,84.67,100.3,30.72C2423.75,659.23,2433.08,635.6,2433.08,507.71z"/>
<g>
	<path class="st10" d="M1981.23,1325.2C1948.89,1284.02,1929.39,1317.79,1981.23,1325.2L1981.23,1325.2z"/>
	<path class="st10" d="M1983.58,1329.28C1964.08,1377.88,2003.08,1377.88,1983.58,1329.28L1983.58,1329.28z"/>
	<path class="st10" d="M1981.23,1327.92C1929.39,1335.33,1948.89,1369.11,1981.23,1327.92L1981.23,1327.92z"/>
	<path class="st10" d="M1992.82,1342.56c-3.06-5.29-5.53-10.19-7.54-14.73c0.22,0.03,0.44,0.05,0.66,0.09
		c-0.13-0.17-0.27-0.35-0.4-0.53c4.93-0.53,10.41-0.83,16.52-0.83c-6.11,0-11.59-0.31-16.52-0.83c0.13-0.17,0.27-0.36,0.4-0.53
		c-0.21,0.03-0.44,0.06-0.66,0.09c2.01-4.53,4.49-9.43,7.54-14.73c-3.06,5.29-6.06,9.89-8.98,13.89c-0.08-0.2-0.17-0.41-0.25-0.61
		c-0.08,0.2-0.17,0.41-0.25,0.61c-2.92-4.01-5.93-8.6-8.98-13.89c3.06,5.29,5.53,10.19,7.54,14.73c-0.22-0.03-0.44-0.05-0.66-0.09
		c0.13,0.17,0.27,0.35,0.4,0.53c-4.93,0.53-10.41,0.83-16.52,0.83c6.11,0,11.59,0.31,16.52,0.83c-0.13,0.17-0.27,0.36-0.4,0.53
		c0.21-0.03,0.44-0.06,0.66-0.09c-2.01,4.53-4.49,9.43-7.54,14.73c3.06-5.29,6.06-9.89,8.98-13.89c0.08,0.2,0.17,0.41,0.25,0.61
		c0.08-0.2,0.17-0.41,0.25-0.61C1986.75,1332.67,1989.76,1337.27,1992.82,1342.56z M1983.01,1327.54c-0.12-0.16-0.23-0.3-0.35-0.45
		c-0.08-0.18-0.14-0.35-0.22-0.53c0.08-0.18,0.14-0.35,0.22-0.53c0.12-0.15,0.23-0.3,0.35-0.45c0.19-0.02,0.37-0.05,0.56-0.07
		c0.19,0.02,0.37,0.05,0.57,0.07c0.12,0.16,0.23,0.3,0.35,0.45c0.08,0.18,0.14,0.35,0.22,0.53c-0.08,0.18-0.14,0.35-0.22,0.53
		c-0.12,0.15-0.23,0.3-0.35,0.45c-0.19,0.02-0.37,0.05-0.56,0.07C1983.39,1327.59,1983.21,1327.56,1983.01,1327.54z"/>
</g>
<g>
	<path class="st15" d="M1975.85,1408.23c-0.21-0.03-0.44-0.06-0.66-0.09c1.75,3.96,3.89,8.21,6.43,12.74
		c4.42-2.9,7.38-8.08,7.39-13.99c-4.93,0.08-9.44,0.36-13.56,0.8C1975.58,1407.87,1975.71,1408.06,1975.85,1408.23z"/>
	<path class="st15" d="M1971.14,1408.23c-3.12,3.97-6.12,7.24-8.94,9.91c0.94,1.06,2,1.98,3.17,2.75c2.54-4.53,4.68-8.79,6.43-12.74
		C1971.58,1408.17,1971.36,1408.2,1971.14,1408.23z"/>
	<path class="st15" d="M1971.14,1405.51c0.21,0.03,0.44,0.06,0.66,0.09c-1.75-3.96-3.89-8.21-6.43-12.74
		c-1.17,0.77-2.23,1.69-3.17,2.75C1965.03,1398.27,1968.03,1401.54,1971.14,1405.51z"/>
	<path class="st15" d="M1972.93,1407.85c0.19,0.02,0.37,0.05,0.56,0.07c0.19-0.02,0.37-0.05,0.56-0.07c0.12-0.16,0.23-0.3,0.35-0.45
		c0.08-0.18,0.14-0.35,0.22-0.53c-0.08-0.18-0.14-0.35-0.22-0.53c-0.12-0.15-0.23-0.3-0.35-0.45c-0.19-0.02-0.37-0.05-0.56-0.07
		c-0.19,0.02-0.37,0.05-0.56,0.07c-0.12,0.16-0.23,0.3-0.35,0.45c-0.08,0.18-0.14,0.35-0.22,0.53c0.08,0.18,0.14,0.35,0.22,0.53
		C1972.7,1407.55,1972.81,1407.69,1972.93,1407.85z"/>
	<path class="st15" d="M1973.24,1408.97c-2.55,3.5-5.17,7.46-7.83,11.94c1.2,0.78,2.5,1.4,3.88,1.81c0.9-3.89,2.26-8.27,4.21-13.14
		C1973.41,1409.38,1973.32,1409.17,1973.24,1408.97z"/>
	<path class="st15" d="M1973.49,1404.15c0.08,0.2,0.17,0.41,0.25,0.61c2.55-3.5,5.17-7.46,7.84-11.94
		c-2.36-1.54-5.12-2.45-8.09-2.45s-5.73,0.91-8.09,2.45c2.66,4.48,5.28,8.43,7.84,11.94
		C1973.32,1404.56,1973.41,1404.35,1973.49,1404.15z"/>
	<path class="st15" d="M1975.85,1405.51c-0.13,0.17-0.27,0.35-0.4,0.53c4.12,0.44,8.63,0.72,13.56,0.8
		c-0.01-5.91-2.97-11.09-7.39-13.99c-2.54,4.53-4.68,8.79-6.43,12.74C1975.41,1405.57,1975.63,1405.54,1975.85,1405.51z"/>
	<path class="st15" d="M1971.55,1407.7c-4.12-0.44-8.63-0.72-13.56-0.8c0,1.38,0.18,2.72,0.49,4.01c3.64-1.07,7.84-1.98,12.67-2.68
		C1971.28,1408.06,1971.41,1407.87,1971.55,1407.7z"/>
	<path class="st15" d="M1973.49,1409.58c1.95,4.87,3.31,9.24,4.21,13.14c1.38-0.42,2.68-1.03,3.88-1.81
		c-2.66-4.48-5.28-8.43-7.83-11.94C1973.67,1409.17,1973.58,1409.38,1973.49,1409.58z"/>
	<path class="st15" d="M1971.14,1405.51c-4.83-0.69-9.03-1.61-12.67-2.68c-0.31,1.28-0.49,2.62-0.49,4.01
		c4.93-0.08,9.44-0.37,13.56-0.8C1971.41,1405.87,1971.28,1405.68,1971.14,1405.51z"/>
	<path class="st10" d="M1965.41,1420.91c-0.38,0.64-0.76,1.3-1.15,1.96c0.39-0.67,0.74-1.32,1.11-1.98
		c-1.17-0.77-2.23-1.69-3.17-2.75c-1.29,1.22-2.54,2.31-3.75,3.29c2.63,2.98,6.04,5.17,9.91,6.22c0.22-1.54,0.53-3.18,0.93-4.92
		C1967.9,1422.31,1966.6,1421.69,1965.41,1420.91z"/>
	<path class="st10" d="M1957.98,1406.9c-0.97-0.02-1.96-0.03-2.96-0.03c1.01,0,1.99-0.01,2.96-0.03c0-1.38,0.18-2.72,0.49-4.01
		c-1.71-0.5-3.29-1.04-4.75-1.59c-0.47,1.8-0.74,3.68-0.74,5.63c0,1.95,0.27,3.83,0.74,5.63c1.46-0.56,3.04-1.09,4.75-1.59
		C1958.17,1409.62,1957.99,1408.28,1957.98,1406.9z"/>
	<path class="st10" d="M1994.01,1406.87c0-11.85-9.2-21.49-20.51-21.49c-5.95,0-11.3,2.68-15.05,6.94c1.21,0.97,2.47,2.07,3.75,3.29
		c0.94-1.06,2-1.98,3.17-2.75c-0.37-0.66-0.72-1.31-1.11-1.98c0.38,0.66,0.77,1.32,1.15,1.96c2.36-1.54,5.12-2.45,8.09-2.45
		s5.73,0.91,8.09,2.45c0.38-0.64,0.76-1.29,1.15-1.96c-0.39,0.67-0.74,1.32-1.11,1.98c4.42,2.9,7.38,8.08,7.39,13.99
		c0.97,0.02,1.96,0.03,2.96,0.03c-1.01,0-1.99,0.01-2.96,0.03c-0.01,5.91-2.97,11.09-7.39,13.99c0.37,0.66,0.72,1.31,1.11,1.98
		c-0.38-0.66-0.77-1.32-1.15-1.96c-1.2,0.78-2.5,1.4-3.88,1.81c0.4,1.74,0.71,3.38,0.93,4.92
		C1987.46,1425.24,1994.01,1416.85,1994.01,1406.87z"/>
	<path class="st10" d="M1971.14,1405.51c-3.12-3.97-6.12-7.24-8.94-9.91c-1.77,2.01-3.07,4.48-3.73,7.23
		C1962.11,1403.9,1966.32,1404.82,1971.14,1405.51z"/>
	<path class="st10" d="M1953.72,1401.24c0.88-3.38,2.52-6.42,4.73-8.92C1938.51,1376.32,1929.58,1392.04,1953.72,1401.24z"/>
	<path class="st11" d="M1962.2,1395.6c-1.29-1.22-2.54-2.31-3.75-3.29c-2.21,2.5-3.85,5.55-4.73,8.92c1.46,0.56,3.04,1.09,4.75,1.59
		C1959.13,1400.09,1960.43,1397.61,1962.2,1395.6z"/>
	<path class="st10" d="M1968.35,1427.64c-3.55,24.51,13.84,24.51,10.28,0c-1.65,0.45-3.36,0.71-5.14,0.71
		S1970,1428.09,1968.35,1427.64z"/>
	<path class="st10" d="M1969.29,1422.72c1.34,0.4,2.75,0.63,4.21,0.63s2.87-0.23,4.21-0.63c-0.9-3.89-2.26-8.27-4.21-13.14
		C1971.54,1414.45,1970.18,1418.83,1969.29,1422.72z"/>
	<path class="st11" d="M1973.49,1423.35c-1.46,0-2.87-0.23-4.21-0.63c-0.4,1.74-0.71,3.38-0.93,4.92c1.65,0.45,3.36,0.71,5.14,0.71
		s3.5-0.26,5.14-0.71c-0.22-1.54-0.53-3.18-0.93-4.92C1976.36,1423.12,1974.96,1423.35,1973.49,1423.35z"/>
	<path class="st10" d="M1958.45,1421.42c-2.21-2.5-3.85-5.55-4.73-8.92C1929.58,1421.7,1938.51,1437.42,1958.45,1421.42z"/>
	<path class="st10" d="M1971.14,1408.23c-4.83,0.69-9.03,1.61-12.67,2.68c0.65,2.75,1.96,5.23,3.73,7.23
		C1965.03,1415.47,1968.03,1412.2,1971.14,1408.23z"/>
	<path class="st11" d="M1958.47,1410.9c-1.71,0.5-3.29,1.04-4.75,1.59c0.88,3.38,2.52,6.42,4.73,8.92c1.21-0.97,2.47-2.07,3.75-3.29
		C1960.43,1416.13,1959.13,1413.65,1958.47,1410.9z"/>
	<path class="st10" d="M1971.14,1405.51c0.13,0.17,0.27,0.35,0.4,0.53c-4.12,0.44-8.63,0.72-13.56,0.8c0,0.01,0,0.02,0,0.03
		s0,0.02,0,0.03c4.93,0.08,9.44,0.36,13.56,0.8c-0.13,0.17-0.27,0.36-0.4,0.53c0.21-0.03,0.44-0.06,0.66-0.09
		c-1.75,3.96-3.89,8.21-6.43,12.74c0.01,0.01,0.02,0.02,0.04,0.02c2.66-4.48,5.28-8.43,7.83-11.94c0.08,0.2,0.17,0.41,0.25,0.61
		c0.08-0.2,0.17-0.41,0.25-0.61c2.55,3.5,5.17,7.46,7.83,11.94c0.01-0.01,0.02-0.02,0.04-0.02c-2.54-4.53-4.68-8.79-6.43-12.74
		c0.22,0.03,0.44,0.05,0.66,0.09c-0.13-0.17-0.27-0.35-0.4-0.53c4.12-0.44,8.63-0.72,13.56-0.8c0-0.01,0-0.02,0-0.03s0-0.02,0-0.03
		c-4.93-0.08-9.44-0.37-13.56-0.8c0.13-0.17,0.27-0.36,0.4-0.53c-0.21,0.03-0.44,0.06-0.66,0.09c1.75-3.96,3.89-8.21,6.43-12.74
		c-0.01-0.01-0.02-0.02-0.04-0.02c-2.66,4.48-5.28,8.43-7.84,11.94c-0.08-0.2-0.17-0.41-0.25-0.61c-0.08,0.2-0.17,0.41-0.25,0.61
		c-2.55-3.5-5.17-7.46-7.84-11.94c-0.01,0.01-0.02,0.02-0.04,0.02c2.54,4.53,4.68,8.79,6.43,12.74
		C1971.58,1405.57,1971.36,1405.54,1971.14,1405.51z M1972.58,1406.34c0.12-0.15,0.23-0.3,0.35-0.45c0.19-0.02,0.37-0.05,0.56-0.07
		c0.19,0.02,0.37,0.05,0.56,0.07c0.12,0.16,0.23,0.3,0.35,0.45c0.08,0.18,0.14,0.35,0.22,0.53c-0.08,0.18-0.14,0.35-0.22,0.53
		c-0.12,0.15-0.23,0.3-0.35,0.45c-0.19,0.02-0.37,0.05-0.56,0.07c-0.19-0.02-0.37-0.05-0.56-0.07c-0.12-0.16-0.23-0.3-0.35-0.45
		c-0.08-0.18-0.14-0.35-0.22-0.53C1972.44,1406.69,1972.51,1406.52,1972.58,1406.34z"/>
	<path class="st10" d="M1982.73,1390.87c-0.38,0.66-0.77,1.32-1.15,1.96c0.01,0.01,0.02,0.02,0.04,0.02
		C1981.99,1392.19,1982.34,1391.54,1982.73,1390.87z"/>
	<path class="st10" d="M1964.26,1390.87c0.39,0.67,0.74,1.32,1.11,1.98c0.01-0.01,0.02-0.02,0.04-0.02
		C1965.02,1392.19,1964.64,1391.53,1964.26,1390.87z"/>
	<path class="st10" d="M1982.73,1422.87c-0.39-0.67-0.74-1.32-1.11-1.98c-0.01,0.01-0.02,0.02-0.04,0.02
		C1981.97,1421.55,1982.35,1422.2,1982.73,1422.87z"/>
	<path class="st10" d="M1989.01,1406.9c0.97-0.02,1.96-0.03,2.96-0.03c-1.01,0-1.99-0.01-2.96-0.03c0,0.01,0,0.02,0,0.03
		S1989.01,1406.89,1989.01,1406.9z"/>
	<path class="st10" d="M1964.26,1422.87c0.38-0.66,0.77-1.32,1.15-1.96c-0.01-0.01-0.02-0.02-0.04-0.02
		C1965,1421.55,1964.65,1422.19,1964.26,1422.87z"/>
	<path class="st10" d="M1957.98,1406.84c-0.97,0.02-1.96,0.03-2.96,0.03c1.01,0,1.99,0.01,2.96,0.03c0-0.01,0-0.02,0-0.03
		S1957.98,1406.85,1957.98,1406.84z"/>
</g>
<g>
	<path class="st15" d="M2043.36,1412.92c-0.21-0.03-0.44-0.06-0.66-0.09c1.75,3.96,3.89,8.21,6.43,12.74
		c4.42-2.9,7.38-8.08,7.39-13.99c-4.93,0.08-9.44,0.36-13.56,0.8C2043.09,1412.56,2043.23,1412.75,2043.36,1412.92z"/>
	<path class="st15" d="M2038.66,1412.92c-3.12,3.97-6.12,7.24-8.94,9.91c0.94,1.06,2,1.98,3.17,2.75c2.54-4.53,4.68-8.79,6.43-12.74
		C2039.1,1412.86,2038.87,1412.89,2038.66,1412.92z"/>
	<path class="st15" d="M2038.66,1410.2c0.21,0.03,0.44,0.06,0.66,0.09c-1.75-3.96-3.89-8.21-6.43-12.74
		c-1.17,0.77-2.23,1.69-3.17,2.75C2032.54,1402.96,2035.54,1406.23,2038.66,1410.2z"/>
	<path class="st15" d="M2040.45,1412.54c0.19,0.02,0.37,0.05,0.56,0.07c0.19-0.02,0.37-0.05,0.56-0.07c0.12-0.16,0.23-0.3,0.35-0.45
		c0.08-0.18,0.14-0.35,0.22-0.53c-0.08-0.18-0.14-0.35-0.22-0.53c-0.12-0.15-0.23-0.3-0.35-0.45c-0.19-0.02-0.37-0.05-0.56-0.07
		c-0.19,0.02-0.37,0.05-0.56,0.07c-0.12,0.16-0.23,0.3-0.35,0.45c-0.08,0.18-0.14,0.35-0.22,0.53c0.08,0.18,0.14,0.35,0.22,0.53
		C2040.22,1412.24,2040.33,1412.38,2040.45,1412.54z"/>
	<path class="st15" d="M2040.76,1413.66c-2.55,3.5-5.17,7.46-7.83,11.94c1.2,0.78,2.5,1.4,3.88,1.81c0.9-3.89,2.26-8.27,4.21-13.14
		C2040.93,1414.07,2040.84,1413.86,2040.76,1413.66z"/>
	<path class="st15" d="M2041.01,1408.84c0.08,0.2,0.17,0.41,0.25,0.61c2.55-3.5,5.17-7.46,7.84-11.94
		c-2.36-1.54-5.12-2.45-8.09-2.45s-5.73,0.91-8.09,2.45c2.66,4.48,5.28,8.43,7.84,11.94
		C2040.84,1409.25,2040.93,1409.04,2041.01,1408.84z"/>
	<path class="st15" d="M2043.36,1410.2c-0.13,0.17-0.27,0.35-0.4,0.53c4.12,0.44,8.63,0.72,13.56,0.8
		c-0.01-5.91-2.97-11.09-7.39-13.99c-2.54,4.53-4.68,8.79-6.43,12.74C2042.92,1410.26,2043.15,1410.23,2043.36,1410.2z"/>
	<path class="st15" d="M2039.06,1412.39c-4.12-0.44-8.63-0.72-13.56-0.8c0,1.38,0.18,2.72,0.49,4.01c3.64-1.07,7.84-1.98,12.67-2.68
		C2038.79,1412.75,2038.93,1412.56,2039.06,1412.39z"/>
	<path class="st15" d="M2041.01,1414.27c1.95,4.87,3.31,9.24,4.21,13.14c1.38-0.42,2.68-1.03,3.88-1.81
		c-2.66-4.48-5.28-8.43-7.83-11.94C2041.18,1413.86,2041.09,1414.07,2041.01,1414.27z"/>
	<path class="st15" d="M2038.66,1410.2c-4.83-0.69-9.03-1.61-12.67-2.68c-0.31,1.28-0.49,2.62-0.49,4.01
		c4.93-0.08,9.44-0.37,13.56-0.8C2038.93,1410.55,2038.79,1410.37,2038.66,1410.2z"/>
	<path class="st10" d="M2032.92,1425.6c-0.38,0.64-0.76,1.3-1.15,1.96c0.39-0.67,0.74-1.32,1.11-1.98
		c-1.17-0.77-2.23-1.69-3.17-2.75c-1.29,1.22-2.54,2.31-3.75,3.29c2.63,2.98,6.04,5.17,9.91,6.22c0.22-1.54,0.53-3.18,0.93-4.92
		C2035.42,1427,2034.12,1426.38,2032.92,1425.6z"/>
	<path class="st10" d="M2025.5,1411.59c-0.97-0.02-1.96-0.03-2.96-0.03c1.01,0,1.99-0.01,2.96-0.03c0-1.38,0.18-2.72,0.49-4.01
		c-1.71-0.5-3.29-1.04-4.75-1.59c-0.47,1.8-0.74,3.68-0.74,5.63c0,1.95,0.27,3.83,0.74,5.63c1.46-0.56,3.04-1.09,4.75-1.59
		C2025.68,1414.31,2025.5,1412.97,2025.5,1411.59z"/>
	<path class="st10" d="M2061.52,1411.56c0-11.85-9.2-21.49-20.51-21.49c-5.95,0-11.3,2.68-15.05,6.94c1.21,0.97,2.47,2.07,3.75,3.29
		c0.94-1.06,2-1.98,3.17-2.75c-0.37-0.66-0.72-1.31-1.11-1.98c0.38,0.66,0.77,1.32,1.15,1.96c2.36-1.54,5.12-2.45,8.09-2.45
		s5.73,0.91,8.09,2.45c0.38-0.64,0.76-1.29,1.15-1.96c-0.39,0.67-0.74,1.32-1.11,1.98c4.42,2.9,7.38,8.08,7.39,13.99
		c0.97,0.02,1.96,0.03,2.96,0.03c-1.01,0-1.99,0.01-2.96,0.03c-0.01,5.91-2.97,11.09-7.39,13.99c0.37,0.66,0.72,1.31,1.11,1.98
		c-0.38-0.66-0.77-1.32-1.15-1.96c-1.2,0.78-2.5,1.4-3.88,1.81c0.4,1.74,0.71,3.38,0.93,4.92
		C2054.98,1429.93,2061.52,1421.54,2061.52,1411.56z"/>
	<path class="st10" d="M2038.66,1410.2c-3.12-3.97-6.12-7.24-8.94-9.91c-1.77,2.01-3.07,4.48-3.73,7.23
		C2029.63,1408.59,2033.83,1409.51,2038.66,1410.2z"/>
	<path class="st10" d="M2021.24,1405.93c0.88-3.38,2.52-6.42,4.73-8.92C2006.03,1381.01,1997.1,1396.73,2021.24,1405.93z"/>
	<path class="st11" d="M2029.72,1400.29c-1.29-1.22-2.54-2.31-3.75-3.29c-2.21,2.5-3.85,5.55-4.73,8.92
		c1.46,0.56,3.04,1.09,4.75,1.59C2026.64,1404.77,2027.94,1402.3,2029.72,1400.29z"/>
	<path class="st10" d="M2035.87,1432.33c-3.55,24.51,13.84,24.51,10.28,0c-1.65,0.45-3.36,0.71-5.14,0.71
		S2037.52,1432.78,2035.87,1432.33z"/>
	<path class="st10" d="M2036.8,1427.41c1.34,0.4,2.75,0.63,4.21,0.63s2.87-0.23,4.21-0.63c-0.9-3.89-2.26-8.27-4.21-13.14
		C2039.06,1419.14,2037.7,1423.52,2036.8,1427.41z"/>
	<path class="st11" d="M2041.01,1428.04c-1.46,0-2.87-0.23-4.21-0.63c-0.4,1.74-0.71,3.38-0.93,4.92c1.65,0.45,3.36,0.71,5.14,0.71
		s3.5-0.26,5.14-0.71c-0.22-1.54-0.53-3.18-0.93-4.92C2043.88,1427.81,2042.47,1428.04,2041.01,1428.04z"/>
	<path class="st10" d="M2025.96,1426.11c-2.21-2.5-3.85-5.55-4.73-8.92C1997.1,1426.39,2006.03,1442.11,2025.96,1426.11z"/>
	<path class="st10" d="M2038.66,1412.92c-4.83,0.69-9.03,1.61-12.67,2.68c0.65,2.75,1.96,5.23,3.73,7.23
		C2032.55,1420.16,2035.54,1416.89,2038.66,1412.92z"/>
	<path class="st11" d="M2025.99,1415.59c-1.71,0.5-3.29,1.04-4.75,1.59c0.88,3.38,2.52,6.42,4.73,8.92
		c1.21-0.97,2.47-2.07,3.75-3.29C2027.94,1420.82,2026.64,1418.34,2025.99,1415.59z"/>
	<path class="st10" d="M2038.66,1410.2c0.13,0.17,0.27,0.35,0.4,0.53c-4.12,0.44-8.63,0.72-13.56,0.8c0,0.01,0,0.02,0,0.03
		s0,0.02,0,0.03c4.93,0.08,9.44,0.36,13.56,0.8c-0.13,0.17-0.27,0.36-0.4,0.53c0.21-0.03,0.44-0.06,0.66-0.09
		c-1.75,3.96-3.89,8.21-6.43,12.74c0.01,0.01,0.02,0.02,0.04,0.02c2.66-4.48,5.28-8.43,7.83-11.94c0.08,0.2,0.17,0.41,0.25,0.61
		c0.08-0.2,0.17-0.41,0.25-0.61c2.55,3.5,5.17,7.46,7.83,11.94c0.01-0.01,0.02-0.02,0.04-0.02c-2.54-4.53-4.68-8.79-6.43-12.74
		c0.22,0.03,0.44,0.05,0.66,0.09c-0.13-0.17-0.27-0.35-0.4-0.53c4.12-0.44,8.63-0.72,13.56-0.8c0-0.01,0-0.02,0-0.03s0-0.02,0-0.03
		c-4.93-0.08-9.44-0.37-13.56-0.8c0.13-0.17,0.27-0.36,0.4-0.53c-0.21,0.03-0.44,0.06-0.66,0.09c1.75-3.96,3.89-8.21,6.43-12.74
		c-0.01-0.01-0.02-0.02-0.04-0.02c-2.66,4.48-5.28,8.43-7.84,11.94c-0.08-0.2-0.17-0.41-0.25-0.61c-0.08,0.2-0.17,0.41-0.25,0.61
		c-2.55-3.5-5.17-7.46-7.84-11.94c-0.01,0.01-0.02,0.02-0.04,0.02c2.54,4.53,4.68,8.79,6.43,12.74
		C2039.1,1410.26,2038.87,1410.23,2038.66,1410.2z M2040.1,1411.03c0.12-0.15,0.23-0.3,0.35-0.45c0.19-0.02,0.37-0.05,0.56-0.07
		c0.19,0.02,0.37,0.05,0.56,0.07c0.12,0.16,0.23,0.3,0.35,0.45c0.08,0.18,0.14,0.35,0.22,0.53c-0.08,0.18-0.14,0.35-0.22,0.53
		c-0.12,0.15-0.23,0.3-0.35,0.45c-0.19,0.02-0.37,0.05-0.56,0.07c-0.19-0.02-0.37-0.05-0.56-0.07c-0.12-0.16-0.23-0.3-0.35-0.45
		c-0.08-0.18-0.14-0.35-0.22-0.53C2039.96,1411.38,2040.03,1411.21,2040.1,1411.03z"/>
	<path class="st10" d="M2050.25,1395.56c-0.38,0.66-0.77,1.32-1.15,1.96c0.01,0.01,0.02,0.02,0.04,0.02
		C2049.51,1396.88,2049.86,1396.23,2050.25,1395.56z"/>
	<path class="st10" d="M2031.77,1395.56c0.39,0.67,0.74,1.32,1.11,1.98c0.01-0.01,0.02-0.02,0.04-0.02
		C2032.54,1396.88,2032.16,1396.22,2031.77,1395.56z"/>
	<path class="st10" d="M2050.25,1427.56c-0.39-0.67-0.74-1.32-1.11-1.98c-0.01,0.01-0.02,0.02-0.04,0.02
		C2049.48,1426.24,2049.86,1426.89,2050.25,1427.56z"/>
	<path class="st10" d="M2056.52,1411.59c0.97-0.02,1.96-0.03,2.96-0.03c-1.01,0-1.99-0.01-2.96-0.03c0,0.01,0,0.02,0,0.03
		S2056.52,1411.58,2056.52,1411.59z"/>
	<path class="st10" d="M2031.77,1427.56c0.38-0.66,0.77-1.32,1.15-1.96c-0.01-0.01-0.02-0.02-0.04-0.02
		C2032.52,1426.24,2032.16,1426.88,2031.77,1427.56z"/>
	<path class="st10" d="M2025.5,1411.53c-0.97,0.02-1.96,0.03-2.96,0.03c1.01,0,1.99,0.01,2.96,0.03c0-0.01,0-0.02,0-0.03
		S2025.5,1411.54,2025.5,1411.53z"/>
</g>
<path class="st10" d="M2113.94,1342.56c42.46-73.55-23.99-73.55,18.47,0c-42.46-73.55-75.69-16,9.24-16c-84.93,0-51.7,57.55-9.24-16
	c-42.46,73.55,23.99,73.55-18.47,0c42.46,73.55,75.69,16-9.24,16C2189.64,1326.56,2156.41,1269.01,2113.94,1342.56z"/>
<g>
	<polygon class="st16" points="254.38,0.48 362.89,201.12 279.63,209.73 186.2,184.36 119.81,44.39 236.97,41.6 	"/>
	<polygon class="st16" points="115.21,47.61 63.06,115.88 63.49,142.88 79.03,136.4 79.89,167.88 64.27,177.99 95.55,224.89 
		139.72,227.67 183.24,190.28 	"/>
	<polygon class="st16" points="90.33,136.36 117.14,124.68 135.29,151.25 112.81,161.78 	"/>
	<polygon class="st16" points="20.26,107.75 59.22,115.86 59.22,149.2 75.21,141.75 76.39,165.53 53.18,180.75 20.26,142.44 	"/>
	<polygon class="st16" points="188.5,191.35 141.69,231.48 150.79,251.2 141.69,264.33 151.85,286.63 165.88,291.39 165.1,310.51 
		182.5,341.94 205.09,341.94 220.17,317.18 197.57,307.4 203.45,275.79 195.8,260.68 242.89,234.74 259.32,240.26 276.62,214.3 	"/>
	<polygon class="st17" points="281.83,213.58 366.84,206.04 362.89,341.94 372.57,345.52 383.32,336.16 384.25,347.88 
		369.57,390.08 332.3,386.57 302.18,398.48 274.23,394.38 286.58,377.86 296.59,360.46 286.58,341.94 267.09,353.86 255.75,361.03 
		255.75,394.99 234.72,388.76 221.64,368.27 207.61,363.56 207.61,347.67 226.16,313.62 202.81,305.84 209.15,276.25 202.08,261.89 
		243.68,238.49 262.37,245.5 	"/>
	<polygon class="st16" points="143.83,318.69 148.2,310.8 155.51,322.16 160.91,310.8 161.93,294.36 150.79,290.22 138.31,294.01 
		135.29,305.25 	"/>
	<polygon class="st16" points="148.2,286.71 137.26,264.52 141.04,257.26 126.59,251.77 123.15,269.2 126.16,295.77 131.71,302.63 
		135.95,289.34 	"/>
	<polygon class="st16" points="143.24,254.01 146.16,250.66 136.97,231.97 93.54,229.16 53.23,207.01 32.59,217.52 11.17,253.87 
		20.26,265.98 31.62,269.46 44.27,294.31 53.09,296.29 55.63,328.22 71.26,344.74 88.5,341.94 103.14,326.43 116.67,326.13 
		127.47,334.59 140.69,332.04 158.98,347.45 178.53,340.67 162.95,316.64 155.94,329.34 148.61,318.39 143.87,325.99 122.66,297.81 
		119.01,269.63 123.15,245.25 	"/>
	<polygon class="st16" points="104.41,330.07 115.07,330.07 126.46,339.34 139.96,336.13 159.59,351.97 181.78,345.39 
		201.66,345.39 204,361.75 179.68,376.48 172.66,402.8 177.39,422.98 169.5,439.6 161.24,429.23 116.47,435.17 108.27,417.37 
		85.77,415.14 63.5,435.97 43.68,418.83 49.15,393.4 79.86,374.45 85.68,357.74 65.29,363.65 58.34,351.8 84.27,347.67 
		92.15,345.39 	"/>
	<polygon class="st16" points="42.66,422.92 31.37,448.32 16.37,467.82 0.97,504.46 13.98,558.39 59.06,573.7 92.67,557.84 
		142.88,544.22 168.84,520.16 188.35,504.23 189.58,472.52 172.05,448.61 159.32,434.2 114.55,439.6 105.87,420.88 86.77,419.12 
		63.68,441.75 	"/>
	<polygon class="st16" points="86.87,447.37 97.42,443.68 108.27,454.55 106.31,467.65 93.39,465.64 89.09,469.41 79.13,461.43 
		66.61,457.34 77.47,446.51 	"/>
	<polygon class="st16" points="172.05,442.48 183.24,422.63 177.65,405.5 183.24,379.42 205.09,367.35 217.66,372.02 232.95,391.87 
		255.41,399.76 271.04,398.1 301.93,403.36 321.78,395.79 327.7,408.56 344.71,427.41 304.44,460.78 290.79,505.6 272.54,519.49 
		261.71,496 228.11,491.45 217.66,517.23 192.54,505.6 193.92,471.56 	"/>
	<polygon class="st16" points="284.36,347.49 259.94,363.35 259.33,394.38 268.4,394.38 283.2,376.3 292.34,360.46 	"/>
	<polygon class="st16" points="325.77,393.91 331.57,405.55 354.6,431.46 372.57,397.32 368.65,393.72 333.46,390.07 	"/>
	<polygon class="st16" points="308.69,462.72 326.21,474.4 352.94,443.42 345.87,432.16 	"/>
	<polygon class="st16" points="404.27,95.78 423.53,106.24 426.75,89.26 415.55,85.11 	"/>
	<polygon class="st16" points="459.35,117.03 463.24,111.97 468.11,115.86 468.11,121.9 463.73,124.23 	"/>
	<polygon class="st16" points="475.51,119.95 472.39,125.01 478.04,126.96 	"/>
	<polygon class="st16" points="16.38,672.55 31.37,690.03 49.03,681.29 75.73,685.01 95.66,674.11 102.5,649.79 84.53,640.24 
		39.04,651.8 	"/>
	<polygon class="st16" points="110.03,646.56 108.72,650.48 114.12,653.86 114.12,647.87 	"/>
</g>
<polygon class="st18" points="1631.26,-92.8 1778.3,179.06 1665.48,190.72 1538.89,156.35 1448.93,-33.3 1607.67,-37.07 "/>
<polygon class="st18" points="1442.7,-28.94 1372.04,63.56 1372.63,100.14 1393.68,91.36 1394.84,134.02 1373.67,147.72 
	1416.06,211.27 1475.9,215.04 1534.87,164.37 "/>
<polygon class="st18" points="1408.99,91.32 1445.31,75.49 1469.9,111.49 1439.45,125.75 "/>
<polygon class="st18" points="1314.04,52.55 1366.84,63.54 1366.84,108.71 1388.51,98.62 1390.09,130.84 1358.65,151.47 
	1314.04,99.55 "/>
<polygon class="st18" points="1542.01,165.82 1478.57,220.2 1490.91,246.91 1478.57,264.71 1492.34,294.92 1511.35,301.38 
	1510.29,327.28 1533.88,369.87 1564.48,369.87 1584.91,336.31 1554.29,323.06 1562.26,280.24 1551.89,259.76 1615.7,224.61 
	1637.96,232.1 1661.4,196.92 "/>
<polygon class="st19" points="1668.46,195.94 1783.64,185.73 1778.3,369.87 1791.41,374.71 1805.97,362.03 1807.24,377.92 
	1787.34,435.09 1736.84,430.33 1696.03,446.47 1658.16,440.91 1674.89,418.53 1688.46,394.96 1674.89,369.87 1648.49,386.01 
	1633.12,395.73 1633.12,441.74 1604.62,433.3 1586.91,405.53 1567.89,399.15 1567.89,377.63 1593.03,331.5 1561.39,320.95 
	1569.99,280.86 1560.41,261.4 1616.77,229.7 1642.09,239.19 "/>
<polygon class="st18" points="1481.47,338.35 1487.4,327.67 1497.3,343.06 1504.62,327.67 1506,305.4 1490.91,299.78 1474,304.93 
	1469.9,320.16 "/>
<polygon class="st18" points="1487.4,295.04 1472.57,264.97 1477.7,255.12 1458.11,247.68 1453.46,271.3 1457.54,307.3 
	1465.06,316.6 1470.79,298.6 "/>
<polygon class="st18" points="1480.68,250.73 1484.64,246.18 1472.18,220.86 1413.33,217.05 1358.71,187.04 1330.75,201.28 
	1301.73,250.53 1314.04,266.95 1329.44,271.66 1346.57,305.32 1358.53,308.01 1361.97,351.27 1383.15,373.65 1406.51,369.87 
	1426.34,348.84 1444.68,348.44 1459.31,359.9 1477.22,356.45 1502.01,377.33 1528.49,368.14 1507.39,335.59 1497.89,352.79 
	1487.95,337.96 1481.54,348.25 1452.79,310.07 1447.85,271.89 1453.46,238.86 "/>
<polygon class="st18" points="1428.07,353.78 1442.51,353.78 1457.94,366.34 1476.23,361.99 1502.84,383.45 1532.9,374.54 
	1559.83,374.54 1563.01,396.7 1530.05,416.66 1520.54,452.32 1526.95,479.67 1516.26,502.18 1505.07,488.13 1444.4,496.19 
	1433.3,472.07 1402.81,469.04 1372.64,497.27 1345.78,474.05 1353.19,439.59 1394.8,413.91 1402.68,391.28 1375.06,399.28 
	1365.64,383.23 1400.77,377.63 1411.45,374.54 "/>
<polygon class="st18" points="1344.4,479.59 1329.1,514 1308.78,540.42 1287.91,590.07 1305.54,663.14 1366.62,683.88 
	1412.16,662.4 1480.19,643.94 1515.36,611.34 1541.8,589.76 1543.46,546.79 1519.72,514.4 1502.46,494.86 1441.8,502.18 
	1430.05,476.82 1404.16,474.44 1372.88,505.1 "/>
<polygon class="st18" points="1404.3,512.72 1418.6,507.71 1433.3,522.44 1430.64,540.19 1413.13,537.47 1407.3,542.58 
	1393.81,531.77 1376.84,526.23 1391.56,511.55 "/>
<polygon class="st18" points="1519.72,506.09 1534.87,479.19 1527.29,455.98 1534.87,420.64 1564.48,404.29 1581.51,410.62 
	1602.23,437.52 1632.66,448.21 1653.84,445.96 1695.69,453.08 1722.59,442.83 1730.61,460.13 1753.66,485.67 1699.09,530.88 
	1680.59,591.61 1655.87,610.44 1641.2,578.6 1595.67,572.45 1581.51,607.37 1547.48,591.61 1549.35,545.49 "/>
<polygon class="st18" points="1671.89,377.39 1638.8,398.87 1637.98,440.91 1650.26,440.91 1670.31,416.42 1682.7,394.96 "/>
<polygon class="st18" points="1727.99,440.29 1735.85,456.05 1767.06,491.16 1791.41,444.9 1786.09,440.03 1738.42,435.08 "/>
<polygon class="st18" points="1704.86,533.52 1728.59,549.34 1764.82,507.36 1755.23,492.11 "/>
<polygon class="st18" points="1834.35,36.33 1860.45,50.5 1864.81,27.5 1849.64,21.87 "/>
<polygon class="st18" points="1908.99,65.12 1914.26,58.27 1920.86,63.54 1920.86,71.72 1914.92,74.88 "/>
<polygon class="st18" points="1930.88,69.08 1926.66,75.94 1934.31,78.57 "/>
<polygon class="st18" points="1308.79,817.83 1329.1,841.51 1353.03,829.67 1389.2,834.71 1416.21,819.94 1425.48,786.98 
	1401.13,774.05 1339.49,789.71 "/>
<polygon class="st18" points="1435.68,782.61 1433.9,787.91 1441.22,792.5 1441.22,784.39 "/>
<g>
	<path class="st10" d="M1618.79,82.78c0-5.82-4.48-10.54-10-10.54s-10,4.72-10,10.54c0,3.1,1.27,5.89,3.29,7.82
		c3.16,3.58,4.98,6.52,6.71,12.36c1.73-5.84,3.54-8.78,6.71-12.36C1617.51,88.67,1618.79,85.88,1618.79,82.78z"/>
	<ellipse class="st11" cx="1608.79" cy="82.78" rx="5.17" ry="5.45"/>
</g>
<g>
	<path class="st10" d="M1543.67,263.02c0-5.82-4.48-10.54-10-10.54c-5.52,0-10,4.72-10,10.54c0,3.1,1.27,5.89,3.29,7.82
		c3.16,3.58,4.98,6.52,6.71,12.36c1.73-5.84,3.54-8.78,6.71-12.36C1542.4,268.91,1543.67,266.13,1543.67,263.02z"/>
	<ellipse class="st11" cx="1533.67" cy="263.02" rx="5.17" ry="5.45"/>
</g>
<g>
	<path class="st10" d="M1472.8,242.86c0-5.82-4.48-10.54-10-10.54s-10,4.72-10,10.54c0,3.1,1.27,5.89,3.29,7.82
		c3.16,3.58,4.98,6.52,6.71,12.36c1.73-5.84,3.54-8.78,6.71-12.36C1471.53,248.75,1472.8,245.97,1472.8,242.86z"/>
	<ellipse class="st11" cx="1462.8" cy="242.86" rx="5.17" ry="5.45"/>
</g>
<g>
	<path class="st10" d="M1391.67,316.6c0-5.82-4.48-10.54-10-10.54s-10,4.72-10,10.54c0,3.1,1.27,5.89,3.29,7.82
		c3.16,3.58,4.98,6.52,6.71,12.36c1.73-5.84,3.54-8.78,6.71-12.36C1390.4,322.49,1391.67,319.7,1391.67,316.6z"/>
	<ellipse class="st11" cx="1381.67" cy="316.6" rx="5.17" ry="5.45"/>
</g>
<g>
	<path class="st10" d="M1463.95,447.82c0-5.82-4.48-10.54-10-10.54s-10,4.72-10,10.54c0,3.1,1.27,5.89,3.29,7.82
		c3.16,3.58,4.98,6.52,6.71,12.36c1.73-5.84,3.54-8.78,6.71-12.36C1462.68,453.71,1463.95,450.92,1463.95,447.82z"/>
	<ellipse class="st11" cx="1453.95" cy="447.82" rx="5.17" ry="5.45"/>
</g>
<g>
	<path class="st10" d="M1421.08,508.45c0-5.82-4.48-10.54-10-10.54c-5.52,0-10,4.72-10,10.54c0,3.1,1.27,5.89,3.29,7.82
		c3.16,3.58,4.98,6.52,6.71,12.36c1.73-5.84,3.54-8.78,6.71-12.36C1419.81,514.34,1421.08,511.55,1421.08,508.45z"/>
	<ellipse class="st11" cx="1411.08" cy="508.45" rx="5.17" ry="5.45"/>
</g>
<g>
	<path class="st10" d="M1492,298.38c0-5.82-4.48-10.54-10-10.54s-10,4.72-10,10.54c0,3.1,1.27,5.89,3.29,7.82
		c3.16,3.58,4.98,6.52,6.71,12.36c1.73-5.84,3.54-8.78,6.71-12.36C1490.73,304.27,1492,301.48,1492,298.38z"/>
	<ellipse class="st11" cx="1482" cy="298.38" rx="5.17" ry="5.45"/>
</g>
<g>
	<path class="st10" d="M1345.78,74.87c0-5.82-4.48-10.54-10-10.54s-10,4.72-10,10.54c0,3.1,1.27,5.89,3.29,7.82
		c3.16,3.58,4.98,6.52,6.71,12.36c1.73-5.84,3.54-8.78,6.71-12.36C1344.51,80.76,1345.78,77.97,1345.78,74.87z"/>
	<ellipse class="st11" cx="1335.78" cy="74.87" rx="5.17" ry="5.45"/>
</g>
<g>
	<path class="st10" d="M1443.3,74.87c0-5.82-4.48-10.54-10-10.54s-10,4.72-10,10.54c0,3.1,1.27,5.89,3.29,7.82
		c3.16,3.58,4.98,6.52,6.71,12.36c1.73-5.84,3.54-8.78,6.71-12.36C1442.03,80.76,1443.3,77.97,1443.3,74.87z"/>
	<ellipse class="st11" cx="1433.3" cy="74.87" rx="5.17" ry="5.45"/>
</g>
<g>
	<path class="st10" d="M1468.28,176.36c0-5.82-4.48-10.54-10-10.54c-5.52,0-10,4.72-10,10.54c0,3.1,1.27,5.89,3.29,7.82
		c3.16,3.58,4.98,6.52,6.71,12.36c1.73-5.84,3.54-8.78,6.71-12.36C1467.01,182.25,1468.28,179.46,1468.28,176.36z"/>
	<ellipse class="st11" cx="1458.28" cy="176.36" rx="5.17" ry="5.45"/>
</g>
<g>
	<path class="st10" d="M1861.64,12.87c0-5.82-4.48-10.54-10-10.54s-10,4.72-10,10.54c0,3.1,1.27,5.89,3.29,7.82
		c3.16,3.58,4.98,6.52,6.71,12.36c1.73-5.84,3.54-8.78,6.71-12.36C1860.37,18.76,1861.64,15.97,1861.64,12.87z"/>
	<ellipse class="st11" cx="1851.64" cy="12.87" rx="5.17" ry="5.45"/>
</g>
<g>
	<path class="st10" d="M1924.92,44.14c0-5.82-4.48-10.54-10-10.54s-10,4.72-10,10.54c0,3.1,1.27,5.89,3.29,7.82
		c3.16,3.58,4.98,6.52,6.71,12.36c1.73-5.84,3.54-8.78,6.71-12.36C1923.65,50.03,1924.92,47.24,1924.92,44.14z"/>
	<ellipse class="st11" cx="1914.92" cy="44.14" rx="5.17" ry="5.45"/>
</g>
<text transform="matrix(1 0 0 1 1556.5464 65.1113)" class="st10" style="font-family:'ArialMT'; font-size:16px;">Gangwon-do </text>
<g>
	<path class="st10" d="M1692.7,311.23c0-5.82-4.48-10.54-10-10.54s-10,4.72-10,10.54c0,3.1,1.27,5.89,3.29,7.82
		c3.16,3.58,4.98,6.52,6.71,12.36c1.73-5.84,3.54-8.78,6.71-12.36C1691.43,317.12,1692.7,314.33,1692.7,311.23z"/>
	<ellipse class="st11" cx="1682.7" cy="311.23" rx="5.17" ry="5.45"/>
</g>
<g>
	<path class="st10" d="M1636.69,513.63c0-5.82-4.48-10.54-10-10.54c-5.52,0-10,4.72-10,10.54c0,3.1,1.27,5.89,3.29,7.82
		c3.16,3.58,4.98,6.52,6.71,12.36c1.73-5.84,3.54-8.78,6.71-12.36C1635.41,519.52,1636.69,516.73,1636.69,513.63z"/>
	<ellipse class="st11" cx="1626.69" cy="513.63" rx="5.17" ry="5.45"/>
</g>
<g>
	<path class="st10" d="M1377.13,777.79c0-5.82-4.48-10.54-10-10.54c-5.52,0-10,4.72-10,10.54c0,3.1,1.27,5.89,3.29,7.82
		c3.16,3.58,4.98,6.52,6.71,12.36c1.73-5.84,3.54-8.78,6.71-12.36C1375.86,783.68,1377.13,780.89,1377.13,777.79z"/>
	<ellipse class="st11" cx="1367.13" cy="777.79" rx="5.17" ry="5.45"/>
</g>
<g>
	<path class="st10" d="M1661.4,380.41c0-5.82-4.48-10.54-10-10.54s-10,4.72-10,10.54c0,3.1,1.27,5.89,3.29,7.82
		c3.16,3.58,4.98,6.52,6.71,12.36c1.73-5.84,3.54-8.78,6.71-12.36C1660.13,386.3,1661.4,383.51,1661.4,380.41z"/>
	<ellipse class="st11" cx="1651.4" cy="380.41" rx="5.17" ry="5.45"/>
</g>
<g>
	<path class="st10" d="M1774.82,441.65c0-5.82-4.48-10.54-10-10.54c-5.52,0-10,4.72-10,10.54c0,3.1,1.27,5.89,3.29,7.82
		c3.16,3.58,4.98,6.52,6.71,12.36c1.73-5.84,3.54-8.78,6.71-12.36C1773.54,447.54,1774.82,444.76,1774.82,441.65z"/>
	<ellipse class="st11" cx="1764.82" cy="441.65" rx="5.17" ry="5.45"/>
</g>
<text transform="matrix(1 0 0 1 1618.7855 287.8413)" class="st10" style="font-family:'ArialMT'; font-size:16px;">Gyeongsangbuk-do</text>
<text transform="matrix(1 0 0 1 1807.2358 331.4068)" class="st10" style="font-family:'ArialMT'; font-size:16px;">Daegu</text>
<text transform="matrix(1 0 0 1 1796.9905 467.6587)" class="st10" style="font-family:'ArialMT'; font-size:16px;">Ulsan</text>
<g>
	<path class="st10" d="M1742.64,513c0-5.82-4.48-10.54-10-10.54s-10,4.72-10,10.54c0,3.1,1.27,5.89,3.29,7.82
		c3.16,3.58,4.98,6.52,6.71,12.36c1.73-5.84,3.54-8.78,6.71-12.36C1741.37,518.89,1742.64,516.1,1742.64,513z"/>
	<ellipse class="st11" cx="1732.64" cy="513" rx="5.17" ry="5.45"/>
</g>
<text transform="matrix(1 0 0 1 1764.8148 539.0009)" class="st10" style="font-family:'ArialMT'; font-size:16px;">Busan</text>
<text transform="matrix(1 0 0 1 1515.6001 207.6415)"><tspan x="0" y="0" class="st10" style="font-family:'ArialMT'; font-size:16px;">Chung</tspan><tspan x="0" y="19.2" class="st10" style="font-family:'ArialMT'; font-size:16px;">cheong</tspan><tspan x="0" y="38.4" class="st10" style="font-family:'ArialMT'; font-size:16px;">buk-do</tspan></text>
<text transform="matrix(1 0 0 1 1357.4275 252.4827)"><tspan x="0" y="0" class="st10" style="font-family:'ArialMT'; font-size:16px;">Chung</tspan><tspan x="0" y="19.2" class="st10" style="font-family:'ArialMT'; font-size:16px;">cheong</tspan><tspan x="0" y="38.4" class="st10" style="font-family:'ArialMT'; font-size:16px;">nam-do</tspan></text>
<text transform="matrix(1 0 0 1 1239.4066 181.812)" class="st10" style="font-family:'ArialMT'; font-size:16px;">sejong</text>
<text transform="matrix(1 0 0 1 1246.4963 357.1431)" class="st10" style="font-family:'ArialMT'; font-size:16px;">Daejeon</text>
<text transform="matrix(1 0 0 1 1411.0829 427.9841)" class="st10" style="font-family:'ArialMT'; font-size:16px;">Jeollabuk-do</text>
<text transform="matrix(1 0 0 1 1556.5465 492.1129)" class="st10" style="font-family:'ArialMT'; font-size:16px;">Gyeongsangnam-do</text>
<g>
	<path class="st10" d="M1403.57,610.9c0-5.82-4.48-10.54-10-10.54c-5.52,0-10,4.72-10,10.54c0,3.1,1.27,5.89,3.29,7.82
		c3.16,3.58,4.98,6.52,6.71,12.36c1.73-5.84,3.54-8.78,6.71-12.36C1402.3,616.79,1403.57,614,1403.57,610.9z"/>
	<ellipse class="st11" cx="1393.57" cy="610.9" rx="5.17" ry="5.45"/>
</g>
<text transform="matrix(1 0 0 1 1340.6967 590.431)" class="st10" style="font-family:'ArialMT'; font-size:16px;">Jeollanam-do</text>
<text transform="matrix(1 0 0 1 1353.8505 757.5193)" class="st10" style="font-family:'ArialMT'; font-size:16px;">Jeju</text>
<text transform="matrix(1 0 0 1 1247.7289 497.9109)" class="st10" style="font-family:'ArialMT'; font-size:16px;">Gwangju</text>
<text transform="matrix(1 0 0 1 1282.5035 45.1536)" class="st10" style="font-family:'ArialMT'; font-size:16px;">Incheon</text>
<text transform="matrix(1 0 0 1 1405.0709 60.931)" class="st10" style="font-family:'ArialMT'; font-size:16px;">Seoul</text>
<text transform="matrix(1 0 0 1 1412.7041 157.9214)" class="st10" style="font-family:'ArialMT'; font-size:16px;">Gyeonggi-do</text>
<text transform="matrix(1 0 0 1 1818.4558 -7.1347)" class="st10" style="font-family:'ArialMT'; font-size:16px;">Ulleungdo</text>
<text transform="matrix(1 0 0 1 1896.938 26.9586)" class="st10" style="font-family:'ArialMT'; font-size:16px;">Dokdo</text>
<polyline class="st9" points="1482,318.56 1457.63,336.78 1314.04,353.78 "/>
<polyline class="st9" points="1462.8,263.18 1438.47,233.85 1292.29,181.18 "/>
<line class="st9" x1="1803.68" y1="336.17" x2="1651.4" y2="400.59"/>
<line class="st9" x1="1314.04" y1="497.91" x2="1411.08" y2="528.63"/>
<polygon class="st20" points="-1087.49,2077.28 -940.46,2349.14 -1053.27,2360.81 -1179.86,2326.44 -1269.83,2136.78 
	-1111.08,2133.01 "/>
<polygon class="st20" points="156.36,2097.05 85.7,2189.56 86.29,2226.14 107.34,2217.36 108.5,2260.02 87.34,2273.72 
	129.73,2337.27 189.57,2341.03 248.54,2290.37 "/>
<polygon class="st20" points="554.43,2209.74 590.74,2193.91 615.33,2229.91 584.88,2244.18 "/>
<polygon class="st20" points="1008.27,2169.58 1061.06,2180.57 1061.06,2225.75 1082.73,2215.66 1084.32,2247.88 1052.88,2268.51 
	1008.27,2216.59 "/>
<polygon class="st20" points="139.14,2534.78 75.71,2589.16 88.05,2615.88 75.71,2633.67 89.48,2663.88 108.49,2670.34 
	107.43,2696.24 131.01,2738.83 161.61,2738.83 182.05,2705.28 151.43,2692.02 159.39,2649.2 149.03,2628.72 212.84,2593.57 
	235.1,2601.06 258.53,2565.88 "/>
<polygon class="st21" points="-693.25,2098.88 -578.07,2088.67 -583.42,2272.81 -570.3,2277.66 -555.74,2264.98 -554.48,2280.86 
	-574.37,2338.04 -624.87,2333.28 -665.68,2349.42 -703.55,2343.86 -686.82,2321.48 -673.25,2297.9 -686.82,2272.81 -713.22,2288.96 
	-728.59,2298.67 -728.59,2344.68 -757.09,2336.25 -774.8,2308.48 -793.82,2302.1 -793.82,2280.57 -768.68,2234.44 -800.32,2223.89 
	-791.73,2183.8 -801.3,2164.34 -744.94,2132.64 -719.62,2142.13 "/>
<polygon class="st20" points="1829.82,2653.74 1835.75,2643.06 1845.65,2658.44 1852.97,2643.06 1854.35,2620.78 1839.26,2615.17 
	1822.35,2620.31 1818.25,2635.54 "/>
<polygon class="st20" points="-233.66,2649.7 -248.49,2619.63 -243.36,2609.78 -262.95,2602.35 -267.61,2625.96 -263.52,2661.96 
	-256.01,2671.26 -250.27,2653.26 "/>
<polygon class="st20" points="-612.32,2605.35 -608.36,2600.8 -620.83,2575.48 -679.67,2571.67 -734.29,2541.66 -762.26,2555.9 
	-791.27,2605.15 -778.96,2621.57 -763.56,2626.28 -746.43,2659.94 -734.47,2662.63 -731.04,2705.9 -709.86,2728.27 -686.5,2724.49 
	-666.66,2703.47 -648.32,2703.06 -633.7,2714.52 -615.78,2711.08 -590.99,2731.95 -564.51,2722.76 -585.62,2690.21 -595.11,2707.42 
	-605.06,2692.58 -611.47,2702.87 -640.21,2664.69 -645.16,2626.52 -639.55,2593.48 "/>
<polygon class="st20" points="2218.23,2144.84 2232.67,2144.84 2248.1,2157.4 2266.4,2153.05 2293,2174.51 2323.07,2165.6 
	2350,2165.6 2353.17,2187.76 2320.22,2207.73 2310.7,2243.38 2317.11,2270.73 2306.43,2293.25 2295.24,2279.19 2234.57,2287.25 
	2223.47,2263.13 2192.98,2260.1 2162.81,2288.33 2135.95,2265.11 2143.36,2230.65 2184.97,2204.97 2192.85,2182.34 2165.22,2190.34 
	2155.81,2174.29 2190.94,2168.69 2201.62,2165.6 "/>
<polygon class="st20" points="2173.27,2537.23 2157.97,2571.65 2137.65,2598.06 2116.79,2647.71 2134.41,2720.78 2195.49,2741.52 
	2241.04,2720.04 2309.06,2701.59 2344.24,2668.98 2370.68,2647.4 2372.34,2604.43 2348.59,2572.04 2331.34,2552.51 2270.68,2559.83 
	2258.92,2534.46 2233.03,2532.09 2201.75,2562.74 "/>
<polygon class="st20" points="2623.57,2624.38 2637.87,2619.37 2652.57,2634.1 2649.91,2651.85 2632.4,2649.12 2626.57,2654.24 
	2613.08,2643.43 2596.11,2637.89 2610.83,2623.21 "/>
<polygon class="st20" points="-367.61,2217.77 -352.45,2190.87 -360.03,2167.66 -352.45,2132.32 -322.84,2115.97 -305.82,2122.3 
	-285.09,2149.2 -254.67,2159.89 -233.48,2157.64 -191.63,2164.76 -164.73,2154.51 -156.71,2171.81 -133.67,2197.35 -188.23,2242.56 
	-206.73,2303.29 -231.45,2322.12 -246.12,2290.28 -291.65,2284.13 -305.82,2319.05 -339.84,2303.29 -337.97,2257.17 "/>
<polygon class="st20" points="596.43,2605.04 563.34,2626.52 562.52,2668.57 574.8,2668.57 594.85,2644.07 607.24,2622.61 "/>
<polygon class="st20" points="1014.59,2613.97 1022.44,2629.73 1053.66,2664.84 1078,2618.59 1072.68,2613.71 1025.01,2608.76 "/>
<polygon class="st20" points="1411.32,2649.59 1435.06,2665.42 1471.28,2623.44 1461.69,2608.19 "/>
<polygon class="st20" points="1426.07,2219.18 1452.17,2233.36 1456.53,2210.35 1441.36,2204.73 "/>
<g>
	<polygon class="st20" points="-1171.36,2646.85 -1151.05,2670.53 -1127.11,2658.69 -1090.94,2663.73 -1063.93,2648.96 
		-1054.67,2616 -1079.01,2603.07 -1140.65,2618.73 	"/>
	<polygon class="st20" points="-1044.46,2611.63 -1046.24,2616.94 -1038.92,2621.52 -1038.92,2613.41 	"/>
</g>
<g>
	<path class="st10" d="M-1085.02,1981.11c0-5.82-4.48-10.54-10-10.54s-10,4.72-10,10.54c0,3.1,1.27,5.89,3.29,7.82
		c3.16,3.58,4.98,6.52,6.71,12.36c1.73-5.84,3.54-8.78,6.71-12.36C-1086.3,1987-1085.02,1984.21-1085.02,1981.11z"/>
	<ellipse class="st11" cx="-1095.02" cy="1981.11" rx="5.17" ry="5.45"/>
</g>
<g>
	<path class="st10" d="M85.7,2954.17c0-5.82-4.48-10.54-10-10.54c-5.52,0-10,4.72-10,10.54c0,3.1,1.27,5.89,3.29,7.82
		c3.16,3.58,4.98,6.52,6.71,12.36c1.73-5.84,3.54-8.78,6.71-12.36C84.43,2960.06,85.7,2957.27,85.7,2954.17z"/>
	<ellipse class="st11" cx="75.7" cy="2954.17" rx="5.17" ry="5.45"/>
</g>
<g>
	<path class="st10" d="M-211.85,2825.44c0-5.82-4.48-10.54-10-10.54c-5.52,0-10,4.72-10,10.54c0,3.1,1.27,5.89,3.29,7.82
		c3.16,3.58,4.98,6.52,6.71,12.36c1.73-5.84,3.54-8.78,6.71-12.36C-213.12,2831.33-211.85,2828.54-211.85,2825.44z"/>
	<ellipse class="st11" cx="-221.85" cy="2825.44" rx="5.17" ry="5.45"/>
</g>
<g>
	<path class="st10" d="M-720.29,2840.8c0-5.82-4.48-10.54-10-10.54c-5.52,0-10,4.72-10,10.54c0,3.1,1.27,5.89,3.29,7.82
		c3.16,3.58,4.98,6.52,6.71,12.36c1.73-5.84,3.54-8.78,6.71-12.36C-721.56,2846.69-720.29,2843.9-720.29,2840.8z"/>
	<ellipse class="st11" cx="-730.29" cy="2840.8" rx="5.17" ry="5.45"/>
</g>
<g>
	<path class="st10" d="M2276.97,2034.24c0-5.82-4.48-10.54-10-10.54c-5.52,0-10,4.72-10,10.54c0,3.1,1.27,5.89,3.29,7.82
		c3.16,3.58,4.98,6.52,6.71,12.36c1.73-5.84,3.54-8.78,6.71-12.36C2275.7,2040.13,2276.97,2037.35,2276.97,2034.24z"/>
	<ellipse class="st11" cx="2266.97" cy="2034.24" rx="5.17" ry="5.45"/>
</g>
<g>
	<path class="st10" d="M2866.33,2836.9c0-5.82-4.48-10.54-10-10.54c-5.52,0-10,4.72-10,10.54c0,3.1,1.27,5.89,3.29,7.82
		c3.16,3.58,4.98,6.52,6.71,12.36c1.73-5.84,3.54-8.78,6.71-12.36C2865.05,2842.79,2866.33,2840,2866.33,2836.9z"/>
	<ellipse class="st11" cx="2856.33" cy="2836.9" rx="5.17" ry="5.45"/>
</g>
<g>
	<path class="st10" d="M2045.72,2791.42c0-5.82-4.48-10.54-10-10.54s-10,4.72-10,10.54c0,3.1,1.27,5.89,3.29,7.82
		c3.16,3.58,4.98,6.52,6.71,12.36c1.73-5.84,3.54-8.78,6.71-12.36C2044.45,2797.31,2045.72,2794.52,2045.72,2791.42z"/>
	<ellipse class="st11" cx="2035.72" cy="2791.42" rx="5.17" ry="5.45"/>
</g>
<g>
	<path class="st10" d="M1072.57,1954.43c0-5.82-4.48-10.54-10-10.54s-10,4.72-10,10.54c0,3.1,1.27,5.89,3.29,7.82
		c3.16,3.58,4.98,6.52,6.71,12.36c1.73-5.84,3.54-8.78,6.71-12.36C1071.29,1960.32,1072.57,1957.54,1072.57,1954.43z"/>
	<ellipse class="st11" cx="1062.57" cy="1954.43" rx="5.17" ry="5.45"/>
</g>
<g>
	<path class="st10" d="M579.79,2002.41c0-5.82-4.48-10.54-10-10.54c-5.52,0-10,4.72-10,10.54c0,3.1,1.27,5.89,3.29,7.82
		c3.16,3.58,4.98,6.52,6.71,12.36c1.73-5.84,3.54-8.78,6.71-12.36C578.52,2008.3,579.79,2005.51,579.79,2002.41z"/>
	<ellipse class="st11" cx="569.79" cy="2002.41" rx="5.17" ry="5.45"/>
</g>
<g>
	<path class="st10" d="M155.63,1977.69c0-5.82-4.48-10.54-10-10.54c-5.52,0-10,4.72-10,10.54c0,3.1,1.27,5.89,3.29,7.82
		c3.16,3.58,4.98,6.52,6.71,12.36c1.73-5.84,3.54-8.78,6.71-12.36C154.36,1983.58,155.63,1980.79,155.63,1977.69z"/>
	<ellipse class="st11" cx="145.63" cy="1977.69" rx="5.17" ry="5.45"/>
</g>
<g>
	<path class="st10" d="M1506.15,1973.74c0-5.82-4.48-10.54-10-10.54c-5.52,0-10,4.72-10,10.54c0,3.1,1.27,5.89,3.29,7.82
		c3.16,3.58,4.98,6.52,6.71,12.36c1.73-5.84,3.54-8.78,6.71-12.36C1504.88,1979.63,1506.15,1976.84,1506.15,1973.74z"/>
	<ellipse class="st11" cx="1496.15" cy="1973.74" rx="5.17" ry="5.45"/>
</g>
<text transform="matrix(1 0 0 1 -1147.2635 1963.4456)" class="st10" style="font-family:'ArialMT'; font-size:16px;">Gangwon-do </text>
<g>
	<path class="st10" d="M-657.41,2009.95c0-5.82-4.48-10.54-10-10.54c-5.52,0-10,4.72-10,10.54c0,3.1,1.27,5.89,3.29,7.82
		c3.16,3.58,4.98,6.52,6.71,12.36c1.73-5.84,3.54-8.78,6.71-12.36C-658.68,2015.84-657.41,2013.05-657.41,2009.95z"/>
	<ellipse class="st11" cx="-667.41" cy="2009.95" rx="5.17" ry="5.45"/>
</g>
<g>
	<path class="st10" d="M-250.29,2000.08c0-5.82-4.48-10.54-10-10.54c-5.52,0-10,4.72-10,10.54c0,3.1,1.27,5.89,3.29,7.82
		c3.16,3.58,4.98,6.52,6.71,12.36c1.73-5.84,3.54-8.78,6.71-12.36C-251.56,2005.97-250.29,2003.18-250.29,2000.08z"/>
	<ellipse class="st11" cx="-260.29" cy="2000.08" rx="5.17" ry="5.45"/>
</g>
<g>
	<path class="st10" d="M-1077.72,2835.98c0-5.82-4.48-10.54-10-10.54c-5.52,0-10,4.72-10,10.54c0,3.1,1.27,5.89,3.29,7.82
		c3.16,3.58,4.98,6.52,6.71,12.36c1.73-5.84,3.54-8.78,6.71-12.36C-1078.99,2841.87-1077.72,2839.08-1077.72,2835.98z"/>
	<ellipse class="st11" cx="-1087.72" cy="2835.98" rx="5.17" ry="5.45"/>
</g>
<g>
	<path class="st10" d="M444.88,3002.29c0-5.82-4.48-10.54-10-10.54c-5.52,0-10,4.72-10,10.54c0,3.1,1.27,5.89,3.29,7.82
		c3.16,3.58,4.98,6.52,6.71,12.36c1.73-5.84,3.54-8.78,6.71-12.36C443.61,3008.18,444.88,3005.39,444.88,3002.29z"/>
	<ellipse class="st11" cx="434.88" cy="3002.29" rx="5.17" ry="5.45"/>
</g>
<g>
	<path class="st10" d="M1046.81,2840.8c0-5.82-4.48-10.54-10-10.54s-10,4.72-10,10.54c0,3.1,1.27,5.89,3.29,7.82
		c3.16,3.58,4.98,6.52,6.71,12.36c1.73-5.84,3.54-8.78,6.71-12.36C1045.53,2846.69,1046.81,2843.9,1046.81,2840.8z"/>
	<ellipse class="st11" cx="1036.81" cy="2840.8" rx="5.17" ry="5.45"/>
</g>
<text transform="matrix(1 0 0 1 -731.3302 1986.564)" class="st10" style="font-family:'ArialMT'; font-size:16px;">Gyeongsangbuk-do</text>
<text transform="matrix(1 0 0 1 641.3181 2692.5833)" class="st10" style="font-family:'ArialMT'; font-size:16px;">Daegu</text>
<text transform="matrix(1 0 0 1 1101.2177 2871.9016)" class="st10" style="font-family:'ArialMT'; font-size:16px;">Ulsan</text>
<g>
	<path class="st10" d="M1375.23,2852.26c0-5.82-4.48-10.54-10-10.54s-10,4.72-10,10.54c0,3.1,1.27,5.89,3.29,7.82
		c3.16,3.58,4.98,6.52,6.71,12.36c1.73-5.84,3.54-8.78,6.71-12.36C1373.96,2858.15,1375.23,2855.36,1375.23,2852.26z"/>
	<ellipse class="st11" cx="1365.23" cy="2852.26" rx="5.17" ry="5.45"/>
</g>
<text transform="matrix(1 0 0 1 1450.8888 2904.2312)" class="st10" style="font-family:'ArialMT'; font-size:16px;"> </text>
<text transform="matrix(1 0 0 1 119.166 2871.9011)"><tspan x="0" y="0" class="st10" style="font-family:'ArialMT'; font-size:16px;">Chung</tspan><tspan x="0" y="19.2" class="st10" style="font-family:'ArialMT'; font-size:16px;">cheong</tspan><tspan x="0" y="38.4" class="st10" style="font-family:'ArialMT'; font-size:16px;">buk-do</tspan></text>
<text transform="matrix(1 0 0 1 -601.4166 2611.6318)"><tspan x="0" y="0" class="st10" style="font-family:'ArialMT'; font-size:16px;">Chung</tspan><tspan x="0" y="19.2" class="st10" style="font-family:'ArialMT'; font-size:16px;">cheong</tspan><tspan x="0" y="38.4" class="st10" style="font-family:'ArialMT'; font-size:16px;">nam-do</tspan></text>
<text transform="matrix(1 0 0 1 -385.7216 2702.8943)" class="st10" style="font-family:'ArialMT'; font-size:16px;">sejong</text>
<text transform="matrix(1 0 0 1 1665.389 2857.0784)" class="st10" style="font-family:'ArialMT'; font-size:16px;">Daejeon</text>
<text transform="matrix(1 0 0 1 2198.8423 2000.0737)" class="st10" style="font-family:'ArialMT'; font-size:16px;">Jeollabuk-do</text>
<text transform="matrix(1 0 0 1 -330.4303 1978.5615)" class="st10" style="font-family:'ArialMT'; font-size:16px;">Gyeongsangnam-do</text>
<g>
	<path class="st10" d="M2190.26,2852.26c0-5.82-4.48-10.54-10-10.54c-5.52,0-10,4.72-10,10.54c0,3.1,1.27,5.89,3.29,7.82
		c3.16,3.58,4.98,6.52,6.71,12.36c1.73-5.84,3.54-8.78,6.71-12.36C2188.99,2858.15,2190.26,2855.36,2190.26,2852.26z"/>
	<ellipse class="st11" cx="2180.26" cy="2852.26" rx="5.17" ry="5.45"/>
</g>
<text transform="matrix(1 0 0 1 2244.5605 2857.0781)" class="st10" style="font-family:'ArialMT'; font-size:16px;">Jeollanam-do</text>
<text transform="matrix(1 0 0 1 -1233.0162 2888.4072)" class="st10" style="font-family:'ArialMT'; font-size:16px;">Jeju</text>
<text transform="matrix(1 0 0 1 2624.3411 2845.6218)" class="st10" style="font-family:'ArialMT'; font-size:16px;">av</text>
<text transform="matrix(1 0 0 1 971.2229 2000.0735)" class="st10" style="font-family:'ArialMT'; font-size:16px;">Incheon</text>
<text transform="matrix(1 0 0 1 541.5596 1988.4722)" class="st10" style="font-family:'ArialMT'; font-size:16px;">Seoul</text>
<text transform="matrix(1 0 0 1 100.0561 1959.2534)" class="st10" style="font-family:'ArialMT'; font-size:16px;">Gyeonggi-do</text>
<text transform="matrix(1 0 0 1 1379.429 2054.4739)" class="st10" style="font-family:'ArialMT'; font-size:16px;">Ulleungdo</text>
<polyline class="st9" points="1900.89,2818.5 1876.52,2836.72 1732.94,2853.72 "/>
<polyline class="st9" points="-159.07,2984.63 -183.4,2955.3 -329.58,2902.63 "/>
<line class="st9" x1="751.43" y1="2863.55" x2="599.15" y2="2927.97"/>
<line class="st9" x1="2527.3" y1="2921.07" x2="2624.34" y2="2951.79"/>
<g>
	<polygon class="st20" points="1823.64,2215.75 1828.91,2208.89 1835.51,2214.17 1835.51,2222.34 1829.57,2225.51 	"/>
	<polygon class="st20" points="1845.53,2219.7 1841.31,2226.56 1848.96,2229.2 	"/>
</g>
<g>
	<path class="st10" d="M1864.98,1989.1c0-5.82-4.48-10.54-10-10.54s-10,4.72-10,10.54c0,3.1,1.27,5.89,3.29,7.82
		c3.16,3.58,4.98,6.52,6.71,12.36c1.73-5.84,3.54-8.78,6.71-12.36C1863.71,1994.99,1864.98,1992.2,1864.98,1989.1z"/>
	<ellipse class="st11" cx="1854.98" cy="1989.1" rx="5.17" ry="5.45"/>
</g>
<text transform="matrix(1 0 0 1 1807.2352 1891.6604)" class="st10" style="font-family:'ArialMT'; font-size:16px;">Dokdo</text>
<rect x="1008.87" y="2132.41" class="st15" width="432" height="16.62"/>
<text transform="matrix(1 0 0 1 1008.8739 2140.9268)" style="font-family:'MyriadPro-Regular'; font-size:12px;">           </text>
</svg>
